{
.appVersion = "1342";
DisplayStrings = (
"uú/ubreve û/udblgrave ü/udotbelow ù/uhookabove/uhorn/uhornacute/uhorndotbelow/uhorngrave/uhornhookabove/uhorntilde/uhungarumlaut/uinvertedbreve/umacron/uogonek/uring/utilde",
"/s.ss01/s.ss01/scedilla.ss01",
"/Odotbelow/Odotmacron",
"´/acutecomb ác/cacute nou/tcaron src/cacute/ccaron ç/ccircumflex/cdotaccent/idotless a/abreve/abreveacute/abrevedotbelow `/gravecomb/brevecomb_gravecomb/abrevegrave/abrevehookabove/abrevetilde â/acircumflexacute/acircumflexdotbelow/acircumflexgrave/acircumflexhookabove/tilde/tildecomb/tildecomb.case ÃÑ/Ohorntilde Õ/Otildemacron U/Uhorn/Uhornacute/Uhorndotbelow/Uhorngrave/Uhornhookabove/Uhorntilde/Uhorntilde/Utilde Y/Ytilde ã/etilde/itilde ñ/ohorntilde õ\012¯/macroncomb a/amacron/emacron/imacron/odieresismacron/odotaccentmacron/omacron/otildemacron/umacron/ymacron/macronbelowcomb o/tildecomb/otildemacron/uhorntilde/utilde/ytilde/brevecomb_tildecomb/circumflexcomb_tildecomb/circumflexcomb_tildecomb/acircumflextilde/dblgravecomb/adblgrave ä/adotbelow",
"añó/obreve ô/ocircumflexacute/ocircumflexgrave/ocircumflexhookabove/ocircumflextilde/cacute/ccaron/ccircumflex/cdotaccent/gbreve/gcaron é/ebreve/ecaron ê/ecircumflexacute/ecircumflexdotbelow/ecircumflexgrave/ecircumflexhookabove/ecircumflextilde/edblgrave ë/edotaccent/edotbelow è/ehookabove/einvertedbreve/emacron/eogonek/etilde/Etilde/tcaron/abreveacute/abrevedotbelow/abrevegrave/abrevehookabove/abrevetilde â/acircumflexacute/acircumflexgrave/acircumflexhookabove/acircumflextilde/adblgrave ä",
Hmurcielagonbordepf,

glyphs = (
{
glyphname = .notdef;
lastChange = "2021-06-02 02:02:46 +0000";
layers = (
{
layerId = "BDD3FA2A-F197-48C4-9241-A354346F8EDC";
paths = (
{
closed = 1;
nodes = (
"436 0 LINE",
"444 9 LINE",
"444 573 LINE",
"436 582 LINE",
"49 582 LINE",
"40 573 LINE",
"40 9 LINE",
"49 0 LINE"
);
},
{
closed = 1;
nodes = (
"136 139 LINE",
"219 292 LINE",
"136 443 LINE",
"153 476 LINE",
"236 324 LINE",
"321 476 LINE",
"340 443 LINE",
"254 290 LINE",
"340 139 LINE",
"321 107 LINE",
"236 257 LINE",
"153 107 LINE"
);
},
{
closed = 1;
nodes = (
"56 566 LINE",
"430 566 LINE",
"430 16 LINE",
"56 16 LINE"
);
},
{
closed = 1;
nodes = (
"397 45 LINE",
"397 533 LINE",
"87 533 LINE",
"87 45 LINE"
);
}
);
width = 484;
}
);
note = .notdef;
},
{
glyphname = A;
lastChange = "2021-05-31 01:44:34 +0000";
layers = (
{
anchors = (
{
name = bottom;
position = "{492, 0}";
},
{
name = ogonek;
position = "{714, -4}";
},
{
name = top;
position = "{854, 601}";
}
);
layerId = "BDD3FA2A-F197-48C4-9241-A354346F8EDC";
paths = (
{
closed = 1;
nodes = (
"198 -83 OFFCURVE",
"254 -62 OFFCURVE",
"306 -24 CURVE SMOOTH",
"375 28 OFFCURVE",
"457 118 OFFCURVE",
"537 215 CURVE",
"577 210 OFFCURVE",
"617 205 OFFCURVE",
"656 201 CURVE",
"645 159 OFFCURVE",
"636 117 OFFCURVE",
"636 79 CURVE SMOOTH",
"636 26 OFFCURVE",
"659 -12 OFFCURVE",
"697 -12 CURVE SMOOTH",
"716 -12 OFFCURVE",
"756 -7 OFFCURVE",
"794 23 CURVE SMOOTH",
"864 79 OFFCURVE",
"909 145 OFFCURVE",
"913 152 CURVE SMOOTH",
"916 160 OFFCURVE",
"912 163 OFFCURVE",
"907 163 CURVE SMOOTH",
"905 163 OFFCURVE",
"902 162 OFFCURVE",
"901 161 CURVE",
"871 121 OFFCURVE",
"766 7 OFFCURVE",
"712 7 CURVE SMOOTH",
"693 7 OFFCURVE",
"681 24 OFFCURVE",
"681 64 CURVE SMOOTH",
"681 70 OFFCURVE",
"681 76 OFFCURVE",
"682 83 CURVE SMOOTH",
"686 121 OFFCURVE",
"693 160 OFFCURVE",
"703 197 CURVE",
"705 197 OFFCURVE",
"707 197 OFFCURVE",
"709 197 CURVE SMOOTH",
"721 196 LINE SMOOTH",
"723 196 OFFCURVE",
"725 196 OFFCURVE",
"727 196 CURVE SMOOTH",
"756 194 OFFCURVE",
"785 197 OFFCURVE",
"806 206 CURVE SMOOTH",
"824 212 OFFCURVE",
"838 222 OFFCURVE",
"845 234 CURVE SMOOTH",
"849 241 OFFCURVE",
"845 250 OFFCURVE",
"839 250 CURVE SMOOTH",
"838 250 OFFCURVE",
"836 249 OFFCURVE",
"834 246 CURVE SMOOTH",
"829 237 OFFCURVE",
"817 228 OFFCURVE",
"804 223 CURVE SMOOTH",
"784 215 OFFCURVE",
"758 212 OFFCURVE",
"731 214 CURVE SMOOTH",
"724 214 OFFCURVE",
"715 215 OFFCURVE",
"707 215 CURVE",
"709 222 LINE SMOOTH",
"745 347 OFFCURVE",
"790 466 OFFCURVE",
"857 579 CURVE SMOOTH",
"860 584 OFFCURVE",
"862 588 OFFCURVE",
"862 590 CURVE SMOOTH",
"862 596 OFFCURVE",
"858 601 OFFCURVE",
"852 601 CURVE SMOOTH",
"844 601 OFFCURVE",
"815 594 OFFCURVE",
"801 586 CURVE",
"800 586 OFFCURVE",
"799 585 OFFCURVE",
"798 584 CURVE SMOOTH",
"796 583 OFFCURVE",
"795 582 OFFCURVE",
"794 580 CURVE",
"731 500 OFFCURVE",
"626 365 OFFCURVE",
"522 244 CURVE",
"459 257 OFFCURVE",
"396 271 OFFCURVE",
"337 277 CURVE SMOOTH",
"313 280 OFFCURVE",
"288 282 OFFCURVE",
"265 282 CURVE SMOOTH",
"188 282 OFFCURVE",
"122 259 OFFCURVE",
"122 153 CURVE SMOOTH",
"122 135 OFFCURVE",
"126 118 OFFCURVE",
"132 107 CURVE SMOOTH",
"135 102 OFFCURVE",
"139 100 OFFCURVE",
"143 100 CURVE SMOOTH",
"147 100 OFFCURVE",
"151 104 OFFCURVE",
"151 109 CURVE SMOOTH",
"151 111 OFFCURVE",
"150 113 OFFCURVE",
"149 116 CURVE SMOOTH",
"146 121 OFFCURVE",
"144 128 OFFCURVE",
"144 134 CURVE SMOOTH",
"144 140 OFFCURVE",
"146 147 OFFCURVE",
"148 153 CURVE SMOOTH",
"174 223 OFFCURVE",
"245 237 OFFCURVE",
"309 237 CURVE SMOOTH",
"373 237 OFFCURVE",
"436 227 OFFCURVE",
"500 220 CURVE",
"420 130 OFFCURVE",
"344 50 OFFCURVE",
"284 10 CURVE SMOOTH",
"233 -25 OFFCURVE",
"175 -44 OFFCURVE",
"123 -44 CURVE SMOOTH",
"97 -44 OFFCURVE",
"76 -39 OFFCURVE",
"61 -29 CURVE SMOOTH",
"41 -16 OFFCURVE",
"32 0 OFFCURVE",
"32 24 CURVE SMOOTH",
"32 42 OFFCURVE",
"28 48 OFFCURVE",
"24 48 CURVE SMOOTH",
"18 48 OFFCURVE",
"11 36 OFFCURVE",
"11 24 CURVE SMOOTH",
"11 -51 OFFCURVE",
"76 -83 OFFCURVE",
"142 -83 CURVE SMOOTH"
);
},
{
closed = 1;
nodes = (
"626 225 OFFCURVE",
"591 231 OFFCURVE",
"557 238 CURVE",
"628 327 OFFCURVE",
"698 421 OFFCURVE",
"756 501 CURVE",
"751 489 LINE SMOOTH",
"719 412 OFFCURVE",
"684 313 OFFCURVE",
"660 220 CURVE"
);
}
);
width = 847;
}
);
note = A;
unicode = 0041;
},
{
glyphname = AE;
lastChange = "2021-05-31 01:44:34 +0000";
layers = (
{
anchors = (
{
name = bottom;
position = "{426, 0}";
},
{
name = top;
position = "{577, 549}";
}
);
layerId = "BDD3FA2A-F197-48C4-9241-A354346F8EDC";
paths = (
{
closed = 1;
nodes = (
"27 -72 OFFCURVE",
"27 -64 OFFCURVE",
"28 -62 CURVE",
"33 11 OFFCURVE",
"78 146 OFFCURVE",
"125 225 CURVE",
"129 225 OFFCURVE",
"140 225 OFFCURVE",
"156 225 CURVE SMOOTH",
"188 225 OFFCURVE",
"241 225 OFFCURVE",
"292 225 CURVE",
"294 226 OFFCURVE",
"295 225 OFFCURVE",
"296 225 CURVE SMOOTH",
"311 226 OFFCURVE",
"341 226 OFFCURVE",
"379 226 CURVE",
"363 184 OFFCURVE",
"351 138 OFFCURVE",
"351 97 CURVE SMOOTH",
"351 30 OFFCURVE",
"384 -24 OFFCURVE",
"487 -24 CURVE SMOOTH",
"659 -24 OFFCURVE",
"791 64 OFFCURVE",
"850 136 CURVE SMOOTH",
"852 138 OFFCURVE",
"853 141 OFFCURVE",
"853 144 CURVE SMOOTH",
"853 150 OFFCURVE",
"850 155 OFFCURVE",
"846 155 CURVE SMOOTH",
"845 155 OFFCURVE",
"843 154 OFFCURVE",
"841 152 CURVE SMOOTH",
"767 66 OFFCURVE",
"628 9 OFFCURVE",
"516 9 CURVE SMOOTH",
"431 9 OFFCURVE",
"405 63 OFFCURVE",
"405 124 CURVE SMOOTH",
"405 159 OFFCURVE",
"414 197 OFFCURVE",
"425 227 CURVE",
"486 227 OFFCURVE",
"551 229 OFFCURVE",
"590 232 CURVE SMOOTH",
"634 234 OFFCURVE",
"656 234 OFFCURVE",
"656 245 CURVE SMOOTH",
"656 254 OFFCURVE",
"641 255 OFFCURVE",
"634 255 CURVE SMOOTH",
"597 255 OFFCURVE",
"521 255 OFFCURVE",
"437 256 CURVE",
"465 314 OFFCURVE",
"554 479 OFFCURVE",
"578 493 CURVE SMOOTH",
"611 511 OFFCURVE",
"703 524 OFFCURVE",
"779 527 CURVE",
"766 516 OFFCURVE",
"756 500 OFFCURVE",
"750 490 CURVE SMOOTH",
"740 471 OFFCURVE",
"736 446 OFFCURVE",
"736 426 CURVE SMOOTH",
"736 410 OFFCURVE",
"739 397 OFFCURVE",
"743 393 CURVE SMOOTH",
"747 389 OFFCURVE",
"750 387 OFFCURVE",
"753 387 CURVE SMOOTH",
"757 387 OFFCURVE",
"760 390 OFFCURVE",
"760 394 CURVE SMOOTH",
"760 395 OFFCURVE",
"759 396 OFFCURVE",
"759 397 CURVE",
"755 404 OFFCURVE",
"753 411 OFFCURVE",
"753 418 CURVE SMOOTH",
"753 442 OFFCURVE",
"772 467 OFFCURVE",
"793 488 CURVE SMOOTH",
"807 503 OFFCURVE",
"825 513 OFFCURVE",
"833 521 CURVE SMOOTH",
"837 525 OFFCURVE",
"839 529 OFFCURVE",
"839 533 CURVE SMOOTH",
"839 543 OFFCURVE",
"824 549 OFFCURVE",
"810 546 CURVE",
"807 546 OFFCURVE",
"805 545 OFFCURVE",
"804 545 CURVE SMOOTH",
"770 548 OFFCURVE",
"732 549 OFFCURVE",
"696 549 CURVE SMOOTH",
"641 549 OFFCURVE",
"577 549 OFFCURVE",
"524 537 CURVE",
"518 554 OFFCURVE",
"477 561 OFFCURVE",
"464 561 CURVE SMOOTH",
"346 561 OFFCURVE",
"159 341 OFFCURVE",
"106 260 CURVE",
"100 259 OFFCURVE",
"89 257 OFFCURVE",
"76 257 CURVE SMOOTH",
"54 256 OFFCURVE",
"44 245 OFFCURVE",
"44 236 CURVE SMOOTH",
"44 228 OFFCURVE",
"51 221 OFFCURVE",
"64 221 CURVE SMOOTH",
"84 221 LINE",
"53 171 OFFCURVE",
"0 46 OFFCURVE",
"0 -28 CURVE SMOOTH",
"0 -34 OFFCURVE",
"0 -40 OFFCURVE",
"1 -46 CURVE SMOOTH",
"2 -52 OFFCURVE",
"15 -72 OFFCURVE",
"23 -72 CURVE SMOOTH"
);
},
{
closed = 1;
nodes = (
"319 256 OFFCURVE",
"246 257 OFFCURVE",
"189 257 CURVE SMOOTH",
"141 257 LINE",
"221 373 OFFCURVE",
"333 506 OFFCURVE",
"470 544 CURVE",
"478 539 OFFCURVE",
"494 531 OFFCURVE",
"492 495 CURVE SMOOTH",
"487 404 OFFCURVE",
"427 336 OFFCURVE",
"391 256 CURVE"
);
}
);
width = 852;
}
);
note = AE;
unicode = 00C6;
},
{
glyphname = B;
lastChange = "2021-05-31 01:44:34 +0000";
layers = (
{
layerId = "BDD3FA2A-F197-48C4-9241-A354346F8EDC";
paths = (
{
closed = 1;
nodes = (
"454 -61 OFFCURVE",
"531 -29 OFFCURVE",
"571 20 CURVE SMOOTH",
"602 58 OFFCURVE",
"615 92 OFFCURVE",
"615 124 CURVE SMOOTH",
"615 210 OFFCURVE",
"518 274 OFFCURVE",
"435 325 CURVE",
"528 329 OFFCURVE",
"728 370 OFFCURVE",
"730 493 CURVE SMOOTH",
"730 538 OFFCURVE",
"692 579 OFFCURVE",
"626 594 CURVE SMOOTH",
"603 599 OFFCURVE",
"573 602 OFFCURVE",
"540 602 CURVE SMOOTH",
"416 602 OFFCURVE",
"247 566 OFFCURVE",
"163 521 CURVE SMOOTH",
"104 489 OFFCURVE",
"21 430 OFFCURVE",
"15 367 CURVE SMOOTH",
"15 363 OFFCURVE",
"17 353 OFFCURVE",
"17 351 CURVE SMOOTH",
"9 287 OFFCURVE",
"88 254 OFFCURVE",
"119 254 CURVE SMOOTH",
"126 254 OFFCURVE",
"130 256 OFFCURVE",
"130 259 CURVE SMOOTH",
"130 261 OFFCURVE",
"127 264 OFFCURVE",
"121 267 CURVE SMOOTH",
"98 278 OFFCURVE",
"41 287 OFFCURVE",
"46 337 CURVE SMOOTH",
"62 481 OFFCURVE",
"400 560 OFFCURVE",
"571 560 CURVE SMOOTH",
"593 560 OFFCURVE",
"614 559 OFFCURVE",
"629 555 CURVE SMOOTH",
"681 546 OFFCURVE",
"701 523 OFFCURVE",
"701 498 CURVE SMOOTH",
"701 482 OFFCURVE",
"693 465 OFFCURVE",
"681 450 CURVE SMOOTH",
"640 398 OFFCURVE",
"495 344 OFFCURVE",
"433 344 CURVE SMOOTH",
"419 344 OFFCURVE",
"391 329 OFFCURVE",
"391 313 CURVE SMOOTH",
"391 285 OFFCURVE",
"462 239 OFFCURVE",
"506 188 CURVE SMOOTH",
"541 150 OFFCURVE",
"556 113 OFFCURVE",
"556 80 CURVE SMOOTH",
"556 7 OFFCURVE",
"480 -45 OFFCURVE",
"383 -45 CURVE SMOOTH",
"322 -45 OFFCURVE",
"288 -14 OFFCURVE",
"279 27 CURVE SMOOTH",
"276 42 OFFCURVE",
"279 70 OFFCURVE",
"252 70 CURVE",
"243 72 OFFCURVE",
"229 53 OFFCURVE",
"215 36 CURVE SMOOTH",
"205 24 OFFCURVE",
"193 17 OFFCURVE",
"185 17 CURVE SMOOTH",
"178 17 OFFCURVE",
"174 21 OFFCURVE",
"174 31 CURVE SMOOTH",
"174 38 OFFCURVE",
"177 48 OFFCURVE",
"182 62 CURVE SMOOTH",
"221 154 OFFCURVE",
"374 455 OFFCURVE",
"465 455 CURVE SMOOTH",
"468 455 OFFCURVE",
"473 452 OFFCURVE",
"476 452 CURVE SMOOTH",
"477 452 OFFCURVE",
"478 453 OFFCURVE",
"478 455 CURVE SMOOTH",
"478 456 OFFCURVE",
"478 458 OFFCURVE",
"477 461 CURVE SMOOTH",
"471 486 OFFCURVE",
"431 495 OFFCURVE",
"420 495 CURVE SMOOTH",
"368 495 OFFCURVE",
"297 409 OFFCURVE",
"292 376 CURVE",
"293 374 OFFCURVE",
"294 371 OFFCURVE",
"294 366 CURVE SMOOTH",
"294 360 OFFCURVE",
"292 351 OFFCURVE",
"284 336 CURVE SMOOTH",
"256 277 OFFCURVE",
"121 50 OFFCURVE",
"130 -13 CURVE SMOOTH",
"131 -21 OFFCURVE",
"164 -27 OFFCURVE",
"169 -27 CURVE SMOOTH",
"192 -27 OFFCURVE",
"217 12 OFFCURVE",
"233 35 CURVE",
"233 34 OFFCURVE",
"233 32 OFFCURVE",
"233 29 CURVE SMOOTH",
"242 -33 OFFCURVE",
"297 -61 OFFCURVE",
"373 -61 CURVE SMOOTH"
);
}
);
width = 653;
}
);
note = B;
unicode = 0042;
},
{
glyphname = C;
lastChange = "2021-05-31 01:44:34 +0000";
layers = (
{
anchors = (
{
name = bottom;
position = "{198, -41}";
},
{
name = top;
position = "{479, 596}";
}
);
layerId = "BDD3FA2A-F197-48C4-9241-A354346F8EDC";
paths = (
{
closed = 1;
nodes = (
"339 -46 OFFCURVE",
"502 14 OFFCURVE",
"606 158 CURVE SMOOTH",
"610 163 OFFCURVE",
"603 170 OFFCURVE",
"598 170 CURVE SMOOTH",
"595 170 OFFCURVE",
"593 169 OFFCURVE",
"591 166 CURVE SMOOTH",
"500 38 OFFCURVE",
"333 -21 OFFCURVE",
"217 -21 CURVE SMOOTH",
"128 -21 OFFCURVE",
"66 15 OFFCURVE",
"66 97 CURVE SMOOTH",
"66 119 OFFCURVE",
"70 143 OFFCURVE",
"79 171 CURVE SMOOTH",
"149 390 OFFCURVE",
"389 572 OFFCURVE",
"501 572 CURVE SMOOTH",
"542 572 OFFCURVE",
"557 548 OFFCURVE",
"557 519 CURVE SMOOTH",
"557 500 OFFCURVE",
"550 479 OFFCURVE",
"540 459 CURVE SMOOTH",
"492 365 OFFCURVE",
"395 310 OFFCURVE",
"291 301 CURVE SMOOTH",
"275 300 OFFCURVE",
"266 289 OFFCURVE",
"266 281 CURVE SMOOTH",
"266 274 OFFCURVE",
"271 269 OFFCURVE",
"285 270 CURVE SMOOTH",
"387 278 OFFCURVE",
"594 398 OFFCURVE",
"594 513 CURVE SMOOTH",
"594 552 OFFCURVE",
"568 585 OFFCURVE",
"515 594 CURVE SMOOTH",
"503 596 OFFCURVE",
"492 597 OFFCURVE",
"480 597 CURVE SMOOTH",
"291 597 OFFCURVE",
"78 385 OFFCURVE",
"30 188 CURVE SMOOTH",
"24 163 OFFCURVE",
"21 140 OFFCURVE",
"21 119 CURVE SMOOTH",
"21 6 OFFCURVE",
"106 -46 OFFCURVE",
"211 -46 CURVE SMOOTH"
);
}
);
width = 534;
}
);
note = C;
unicode = 0043;
},
{
glyphname = D;
lastChange = "2021-05-31 01:44:34 +0000";
layers = (
{
anchors = (
{
name = bottom;
position = "{434, -13}";
},
{
name = center;
position = "{434, 437}";
},
{
name = top;
position = "{721, 571}";
}
);
layerId = "BDD3FA2A-F197-48C4-9241-A354346F8EDC";
paths = (
{
closed = 1;
nodes = (
"267 -63 OFFCURVE",
"306 18 OFFCURVE",
"311 27 CURVE",
"357 -9 OFFCURVE",
"424 -25 OFFCURVE",
"492 -25 CURVE SMOOTH",
"694 -25 OFFCURVE",
"906 135 OFFCURVE",
"906 348 CURVE SMOOTH",
"906 542 OFFCURVE",
"715 583 OFFCURVE",
"557 583 CURVE SMOOTH",
"336 583 OFFCURVE",
"79 498 OFFCURVE",
"79 337 CURVE SMOOTH",
"79 332 OFFCURVE",
"81 323 OFFCURVE",
"81 321 CURVE SMOOTH",
"73 258 OFFCURVE",
"164 226 OFFCURVE",
"195 226 CURVE SMOOTH",
"201 226 OFFCURVE",
"206 229 OFFCURVE",
"206 232 CURVE SMOOTH",
"206 234 OFFCURVE",
"204 237 OFFCURVE",
"198 239 CURVE SMOOTH",
"176 251 OFFCURVE",
"115 257 OFFCURVE",
"115 307 CURVE SMOOTH",
"115 444 OFFCURVE",
"387 564 OFFCURVE",
"601 564 CURVE SMOOTH",
"778 564 OFFCURVE",
"861 477 OFFCURVE",
"861 366 CURVE SMOOTH",
"861 301 OFFCURVE",
"832 228 OFFCURVE",
"776 161 CURVE SMOOTH",
"706 76 OFFCURVE",
"579 -1 OFFCURVE",
"460 -1 CURVE SMOOTH",
"410 -1 OFFCURVE",
"362 12 OFFCURVE",
"319 44 CURVE",
"362 134 OFFCURVE",
"510 442 OFFCURVE",
"603 442 CURVE SMOOTH",
"608 442 OFFCURVE",
"612 438 OFFCURVE",
"614 438 CURVE SMOOTH",
"615 438 OFFCURVE",
"615 438 OFFCURVE",
"615 440 CURVE SMOOTH",
"615 441 OFFCURVE",
"615 442 OFFCURVE",
"615 444 CURVE SMOOTH",
"611 471 OFFCURVE",
"568 481 OFFCURVE",
"557 481 CURVE SMOOTH",
"504 481 OFFCURVE",
"404 358 OFFCURVE",
"398 325 CURVE",
"399 323 OFFCURVE",
"401 320 OFFCURVE",
"401 315 CURVE SMOOTH",
"401 309 OFFCURVE",
"399 299 OFFCURVE",
"392 284 CURVE SMOOTH",
"364 228 OFFCURVE",
"307 106 OFFCURVE",
"290 63 CURVE",
"285 64 OFFCURVE",
"221 118 OFFCURVE",
"221 140 CURVE SMOOTH",
"221 159 OFFCURVE",
"221 154 OFFCURVE",
"228 172 CURVE SMOOTH",
"232 180 OFFCURVE",
"233 185 OFFCURVE",
"233 189 CURVE SMOOTH",
"233 191 OFFCURVE",
"232 192 OFFCURVE",
"231 193 CURVE SMOOTH",
"229 194 OFFCURVE",
"226 195 OFFCURVE",
"223 195 CURVE SMOOTH",
"212 195 OFFCURVE",
"196 189 OFFCURVE",
"188 183 CURVE SMOOTH",
"184 179 OFFCURVE",
"181 175 OFFCURVE",
"181 169 CURVE SMOOTH",
"181 167 OFFCURVE",
"182 166 OFFCURVE",
"182 164 CURVE SMOOTH",
"185 155 OFFCURVE",
"189 148 OFFCURVE",
"189 140 CURVE SMOOTH",
"189 139 OFFCURVE",
"189 137 OFFCURVE",
"189 136 CURVE SMOOTH",
"185 102 OFFCURVE",
"181 73 OFFCURVE",
"181 29 CURVE SMOOTH",
"181 13 OFFCURVE",
"188 -63 OFFCURVE",
"239 -63 CURVE SMOOTH"
);
},
{
closed = 1;
nodes = (
"230 -33 OFFCURVE",
"226 -28 OFFCURVE",
"223 -13 CURVE SMOOTH",
"215 33 OFFCURVE",
"216 89 OFFCURVE",
"216 102 CURVE",
"233 86 OFFCURVE",
"262 53 OFFCURVE",
"277 41 CURVE",
"273 32 OFFCURVE",
"251 -33 OFFCURVE",
"235 -33 CURVE SMOOTH"
);
}
);
width = 868;
}
);
note = D;
unicode = 0044;
},
{
glyphname = Eth;
lastChange = "2021-05-31 01:44:34 +0000";
layers = (
{
layerId = "BDD3FA2A-F197-48C4-9241-A354346F8EDC";
paths = (
{
closed = 1;
nodes = (
"373 -11 OFFCURVE",
"595 122 OFFCURVE",
"595 329 CURVE SMOOTH",
"595 413 OFFCURVE",
"550 492 OFFCURVE",
"444 532 CURVE SMOOTH",
"394 550 OFFCURVE",
"336 558 OFFCURVE",
"278 558 CURVE SMOOTH",
"265 558 OFFCURVE",
"251 558 OFFCURVE",
"238 557 CURVE SMOOTH",
"180 552 OFFCURVE",
"146 550 OFFCURVE",
"109 535 CURVE SMOOTH",
"98 531 OFFCURVE",
"94 525 OFFCURVE",
"94 519 CURVE SMOOTH",
"94 505 OFFCURVE",
"115 492 OFFCURVE",
"129 495 CURVE SMOOTH",
"192 514 OFFCURVE",
"261 527 OFFCURVE",
"324 527 CURVE SMOOTH",
"440 527 OFFCURVE",
"548 481 OFFCURVE",
"548 346 CURVE SMOOTH",
"548 155 OFFCURVE",
"347 10 OFFCURVE",
"184 10 CURVE SMOOTH",
"144 10 OFFCURVE",
"106 19 OFFCURVE",
"75 39 CURVE",
"90 103 OFFCURVE",
"112 160 OFFCURVE",
"137 215 CURVE",
"161 217 OFFCURVE",
"186 219 OFFCURVE",
"205 220 CURVE SMOOTH",
"212 220 OFFCURVE",
"259 222 OFFCURVE",
"257 234 CURVE",
"257 242 OFFCURVE",
"236 248 OFFCURVE",
"204 248 CURVE SMOOTH",
"152 248 LINE",
"187 317 OFFCURVE",
"227 386 OFFCURVE",
"266 463 CURVE SMOOTH",
"271 475 OFFCURVE",
"242 488 OFFCURVE",
"224 488 CURVE SMOOTH",
"219 488 OFFCURVE",
"214 486 OFFCURVE",
"212 484 CURVE SMOOTH",
"197 465 OFFCURVE",
"149 357 OFFCURVE",
"106 248 CURVE",
"55 248 LINE SMOOTH",
"42 248 OFFCURVE",
"23 232 OFFCURVE",
"23 221 CURVE SMOOTH",
"23 214 OFFCURVE",
"29 209 OFFCURVE",
"46 210 CURVE SMOOTH",
"94 212 LINE",
"73 158 OFFCURVE",
"53 104 OFFCURVE",
"42 66 CURVE",
"38 70 OFFCURVE",
"34 75 OFFCURVE",
"30 80 CURVE SMOOTH",
"27 83 OFFCURVE",
"25 85 OFFCURVE",
"23 85 CURVE SMOOTH",
"18 85 OFFCURVE",
"15 79 OFFCURVE",
"15 70 CURVE SMOOTH",
"15 66 OFFCURVE",
"15 61 OFFCURVE",
"17 56 CURVE SMOOTH",
"21 47 OFFCURVE",
"27 40 OFFCURVE",
"34 34 CURVE",
"32 21 OFFCURVE",
"30 12 OFFCURVE",
"30 6 CURVE SMOOTH",
"31 1 OFFCURVE",
"37 -1 OFFCURVE",
"44 -1 CURVE SMOOTH",
"53 -1 OFFCURVE",
"64 2 OFFCURVE",
"69 6 CURVE",
"70 10 LINE",
"102 -4 OFFCURVE",
"145 -11 OFFCURVE",
"186 -11 CURVE SMOOTH"
);
}
);
width = 567;
}
);
note = Eth;
unicode = 00D0;
},
{
color = 3;
glyphname = Dcroat;
lastChange = "2021-06-02 09:46:15 +0000";
layers = (
{
layerId = "BDD3FA2A-F197-48C4-9241-A354346F8EDC";
paths = (
{
closed = 1;
nodes = (
"267 -63 OFFCURVE",
"306 18 OFFCURVE",
"311 27 CURVE",
"357 -9 OFFCURVE",
"424 -25 OFFCURVE",
"492 -25 CURVE SMOOTH",
"694 -25 OFFCURVE",
"906 135 OFFCURVE",
"906 348 CURVE SMOOTH",
"906 542 OFFCURVE",
"715 583 OFFCURVE",
"557 583 CURVE SMOOTH",
"336 583 OFFCURVE",
"79 498 OFFCURVE",
"79 337 CURVE SMOOTH",
"79 332 OFFCURVE",
"81 323 OFFCURVE",
"81 321 CURVE SMOOTH",
"73 258 OFFCURVE",
"164 226 OFFCURVE",
"195 226 CURVE SMOOTH",
"201 226 OFFCURVE",
"206 229 OFFCURVE",
"206 232 CURVE SMOOTH",
"206 234 OFFCURVE",
"204 237 OFFCURVE",
"198 239 CURVE SMOOTH",
"176 251 OFFCURVE",
"115 257 OFFCURVE",
"115 307 CURVE SMOOTH",
"115 444 OFFCURVE",
"387 564 OFFCURVE",
"601 564 CURVE SMOOTH",
"778 564 OFFCURVE",
"861 477 OFFCURVE",
"861 366 CURVE SMOOTH",
"861 301 OFFCURVE",
"832 228 OFFCURVE",
"776 161 CURVE SMOOTH",
"706 76 OFFCURVE",
"579 -1 OFFCURVE",
"460 -1 CURVE SMOOTH",
"410 -1 OFFCURVE",
"362 12 OFFCURVE",
"319 44 CURVE",
"335 77 OFFCURVE",
"364 139 OFFCURVE",
"400 204 CURVE",
"420 206 OFFCURVE",
"439 207 OFFCURVE",
"454 208 CURVE SMOOTH",
"461 209 OFFCURVE",
"508 211 OFFCURVE",
"508 223 CURVE",
"506 229 OFFCURVE",
"486 236 OFFCURVE",
"453 236 CURVE SMOOTH",
"442 236 OFFCURVE",
"430 236 OFFCURVE",
"418 236 CURVE",
"478 341 OFFCURVE",
"549 442 OFFCURVE",
"603 442 CURVE SMOOTH",
"608 442 OFFCURVE",
"612 438 OFFCURVE",
"614 438 CURVE SMOOTH",
"615 438 OFFCURVE",
"615 438 OFFCURVE",
"615 440 CURVE SMOOTH",
"615 441 OFFCURVE",
"615 442 OFFCURVE",
"615 444 CURVE SMOOTH",
"611 471 OFFCURVE",
"568 481 OFFCURVE",
"557 481 CURVE SMOOTH",
"504 481 OFFCURVE",
"404 358 OFFCURVE",
"398 325 CURVE",
"399 323 OFFCURVE",
"401 320 OFFCURVE",
"401 315 CURVE SMOOTH",
"401 309 OFFCURVE",
"399 299 OFFCURVE",
"392 284 CURVE SMOOTH",
"386 271 OFFCURVE",
"377 256 OFFCURVE",
"369 237 CURVE",
"315 237 OFFCURVE",
"273 233 OFFCURVE",
"273 209 CURVE SMOOTH",
"273 201 OFFCURVE",
"278 198 OFFCURVE",
"296 198 CURVE SMOOTH",
"309 198 OFFCURVE",
"329 199 OFFCURVE",
"352 201 CURVE",
"326 147 OFFCURVE",
"301 90 OFFCURVE",
"290 63 CURVE",
"285 64 OFFCURVE",
"221 118 OFFCURVE",
"221 140 CURVE SMOOTH",
"221 159 OFFCURVE",
"221 154 OFFCURVE",
"228 172 CURVE SMOOTH",
"232 180 OFFCURVE",
"233 185 OFFCURVE",
"233 189 CURVE SMOOTH",
"233 191 OFFCURVE",
"232 192 OFFCURVE",
"231 193 CURVE SMOOTH",
"229 194 OFFCURVE",
"226 195 OFFCURVE",
"223 195 CURVE SMOOTH",
"212 195 OFFCURVE",
"196 189 OFFCURVE",
"188 183 CURVE SMOOTH",
"184 179 OFFCURVE",
"181 175 OFFCURVE",
"181 169 CURVE SMOOTH",
"181 167 OFFCURVE",
"182 166 OFFCURVE",
"182 164 CURVE SMOOTH",
"185 155 OFFCURVE",
"189 148 OFFCURVE",
"189 140 CURVE SMOOTH",
"189 139 OFFCURVE",
"189 137 OFFCURVE",
"189 136 CURVE SMOOTH",
"185 102 OFFCURVE",
"181 73 OFFCURVE",
"181 29 CURVE SMOOTH",
"181 13 OFFCURVE",
"188 -63 OFFCURVE",
"239 -63 CURVE SMOOTH"
);
},
{
closed = 1;
nodes = (
"230 -33 OFFCURVE",
"226 -28 OFFCURVE",
"223 -13 CURVE SMOOTH",
"215 33 OFFCURVE",
"216 89 OFFCURVE",
"216 102 CURVE",
"233 86 OFFCURVE",
"262 53 OFFCURVE",
"277 41 CURVE",
"273 32 OFFCURVE",
"251 -33 OFFCURVE",
"235 -33 CURVE SMOOTH"
);
}
);
width = 868;
}
);
note = Dcroat;
unicode = 0110;
},
{
glyphname = E;
lastChange = "2021-06-01 21:40:24 +0000";
layers = (
{
anchors = (
{
name = bottom;
position = "{343, -48}";
},
{
name = ogonek;
position = "{346, -38}";
},
{
name = top;
position = "{447, 611}";
},
{
name = topleft;
position = "{20, 874}";
}
);
layerId = "BDD3FA2A-F197-48C4-9241-A354346F8EDC";
paths = (
{
closed = 1;
nodes = (
"344 -62 OFFCURVE",
"506 -30 OFFCURVE",
"589 17 CURVE SMOOTH",
"640 45 OFFCURVE",
"722 110 OFFCURVE",
"722 175 CURVE SMOOTH",
"722 190 OFFCURVE",
"718 205 OFFCURVE",
"708 219 CURVE",
"705 222 OFFCURVE",
"696 222 OFFCURVE",
"697 217 CURVE SMOOTH",
"698 214 OFFCURVE",
"698 210 OFFCURVE",
"698 207 CURVE SMOOTH",
"698 144 OFFCURVE",
"587 63 OFFCURVE",
"537 38 CURVE SMOOTH",
"472 4 OFFCURVE",
"323 -38 OFFCURVE",
"216 -38 CURVE SMOOTH",
"103 -38 OFFCURVE",
"66 6 OFFCURVE",
"68 60 CURVE SMOOTH",
"70 180 OFFCURVE",
"271 255 OFFCURVE",
"370 257 CURVE",
"389 253 OFFCURVE",
"420 241 OFFCURVE",
"443 241 CURVE SMOOTH",
"450 241 OFFCURVE",
"456 242 OFFCURVE",
"460 246 CURVE SMOOTH",
"468 251 OFFCURVE",
"473 258 OFFCURVE",
"473 265 CURVE SMOOTH",
"473 274 OFFCURVE",
"464 283 OFFCURVE",
"443 285 CURVE SMOOTH",
"432 287 OFFCURVE",
"397 288 OFFCURVE",
"391 296 CURVE SMOOTH",
"366 328 OFFCURVE",
"342 395 OFFCURVE",
"342 457 CURVE SMOOTH",
"342 508 OFFCURVE",
"359 554 OFFCURVE",
"406 573 CURVE SMOOTH",
"414 577 OFFCURVE",
"422 578 OFFCURVE",
"431 578 CURVE SMOOTH",
"457 578 OFFCURVE",
"479 563 OFFCURVE",
"490 551 CURVE SMOOTH",
"517 529 OFFCURVE",
"534 499 OFFCURVE",
"550 465 CURVE SMOOTH",
"563 439 OFFCURVE",
"566 404 OFFCURVE",
"582 385 CURVE SMOOTH",
"587 379 OFFCURVE",
"591 376 OFFCURVE",
"595 376 CURVE SMOOTH",
"607 376 OFFCURVE",
"613 403 OFFCURVE",
"613 430 CURVE SMOOTH",
"613 446 OFFCURVE",
"611 461 OFFCURVE",
"607 472 CURVE SMOOTH",
"601 487 OFFCURVE",
"593 508 OFFCURVE",
"582 518 CURVE SMOOTH",
"577 522 OFFCURVE",
"568 521 OFFCURVE",
"563 523 CURVE SMOOTH",
"551 527 OFFCURVE",
"541 537 OFFCURVE",
"534 544 CURVE SMOOTH",
"506 571 OFFCURVE",
"477 603 OFFCURVE",
"428 603 CURVE SMOOTH",
"383 603 OFFCURVE",
"320 582 OFFCURVE",
"300 546 CURVE SMOOTH",
"288 526 OFFCURVE",
"283 503 OFFCURVE",
"283 479 CURVE SMOOTH",
"283 412 OFFCURVE",
"321 335 OFFCURVE",
"361 288 CURVE",
"252 283 OFFCURVE",
"24 257 OFFCURVE",
"24 90 CURVE SMOOTH",
"24 -32 OFFCURVE",
"140 -62 OFFCURVE",
"251 -62 CURVE SMOOTH"
);
}
);
width = 716;
}
);
note = E;
unicode = 0045;
},
{
glyphname = F;
lastChange = "2021-05-31 01:44:34 +0000";
layers = (
{
layerId = "BDD3FA2A-F197-48C4-9241-A354346F8EDC";
paths = (
{
closed = 1;
nodes = (
"98 291 OFFCURVE",
"105 293 OFFCURVE",
"105 298 CURVE SMOOTH",
"105 300 OFFCURVE",
"103 303 OFFCURVE",
"98 306 CURVE SMOOTH",
"81 320 OFFCURVE",
"37 336 OFFCURVE",
"37 375 CURVE SMOOTH",
"37 379 OFFCURVE",
"38 383 OFFCURVE",
"39 388 CURVE SMOOTH",
"65 508 OFFCURVE",
"257 545 OFFCURVE",
"365 545 CURVE SMOOTH",
"460 545 OFFCURVE",
"552 527 OFFCURVE",
"649 531 CURVE",
"644 524 OFFCURVE",
"640 517 OFFCURVE",
"635 509 CURVE",
"624 488 OFFCURVE",
"619 461 OFFCURVE",
"619 438 CURVE SMOOTH",
"619 417 OFFCURVE",
"623 401 OFFCURVE",
"628 395 CURVE SMOOTH",
"632 390 OFFCURVE",
"637 388 OFFCURVE",
"640 388 CURVE SMOOTH",
"645 388 OFFCURVE",
"648 391 OFFCURVE",
"648 395 CURVE SMOOTH",
"648 396 OFFCURVE",
"648 397 OFFCURVE",
"647 398 CURVE SMOOTH",
"641 406 OFFCURVE",
"639 415 OFFCURVE",
"639 425 CURVE SMOOTH",
"639 453 OFFCURVE",
"662 483 OFFCURVE",
"686 506 CURVE SMOOTH",
"704 524 OFFCURVE",
"724 535 OFFCURVE",
"733 545 CURVE SMOOTH",
"738 550 OFFCURVE",
"741 556 OFFCURVE",
"741 560 CURVE SMOOTH",
"741 571 OFFCURVE",
"728 578 OFFCURVE",
"715 578 CURVE SMOOTH",
"712 578 OFFCURVE",
"710 578 OFFCURVE",
"707 577 CURVE SMOOTH",
"698 575 OFFCURVE",
"679 566 OFFCURVE",
"662 545 CURVE",
"542 549 OFFCURVE",
"459 582 OFFCURVE",
"333 582 CURVE SMOOTH",
"318 582 OFFCURVE",
"302 581 OFFCURVE",
"285 580 CURVE SMOOTH",
"158 572 OFFCURVE",
"36 524 OFFCURVE",
"15 425 CURVE",
"13 419 OFFCURVE",
"13 409 OFFCURVE",
"13 408 CURVE",
"10 400 OFFCURVE",
"9 393 OFFCURVE",
"9 386 CURVE SMOOTH",
"9 338 OFFCURVE",
"60 302 OFFCURVE",
"90 294 CURVE SMOOTH"
);
},
{
closed = 1;
nodes = (
"217 -27 OFFCURVE",
"243 23 OFFCURVE",
"260 44 CURVE SMOOTH",
"261 45 OFFCURVE",
"273 59 OFFCURVE",
"273 67 CURVE SMOOTH",
"273 68 OFFCURVE",
"273 69 OFFCURVE",
"272 70 CURVE",
"263 72 OFFCURVE",
"250 53 OFFCURVE",
"236 36 CURVE SMOOTH",
"226 25 OFFCURVE",
"215 17 OFFCURVE",
"206 17 CURVE SMOOTH",
"200 17 OFFCURVE",
"196 21 OFFCURVE",
"196 31 CURVE SMOOTH",
"196 38 OFFCURVE",
"198 48 OFFCURVE",
"204 62 CURVE SMOOTH",
"217 95 OFFCURVE",
"246 154 OFFCURVE",
"279 217 CURVE",
"364 226 OFFCURVE",
"482 243 OFFCURVE",
"515 255 CURVE SMOOTH",
"531 261 OFFCURVE",
"536 266 OFFCURVE",
"536 269 CURVE SMOOTH",
"536 274 OFFCURVE",
"524 276 OFFCURVE",
"516 276 CURVE SMOOTH",
"469 276 OFFCURVE",
"416 268 OFFCURVE",
"368 261 CURVE SMOOTH",
"345 257 OFFCURVE",
"323 255 OFFCURVE",
"300 252 CURVE",
"359 356 OFFCURVE",
"433 455 OFFCURVE",
"487 455 CURVE SMOOTH",
"490 455 OFFCURVE",
"495 453 OFFCURVE",
"499 450 CURVE",
"503 482 OFFCURVE",
"453 495 OFFCURVE",
"441 495 CURVE SMOOTH",
"388 495 OFFCURVE",
"318 409 OFFCURVE",
"312 376 CURVE",
"313 373 OFFCURVE",
"314 370 OFFCURVE",
"314 364 CURVE SMOOTH",
"314 358 OFFCURVE",
"312 349 OFFCURVE",
"306 336 CURVE SMOOTH",
"297 318 OFFCURVE",
"281 288 OFFCURVE",
"261 251 CURVE",
"257 251 LINE SMOOTH",
"250 251 OFFCURVE",
"246 270 OFFCURVE",
"229 270 CURVE SMOOTH",
"216 270 OFFCURVE",
"174 257 OFFCURVE",
"174 237 CURVE SMOOTH",
"174 221 OFFCURVE",
"188 211 OFFCURVE",
"199 211 CURVE SMOOTH",
"209 211 OFFCURVE",
"222 212 OFFCURVE",
"240 214 CURVE",
"194 127 OFFCURVE",
"146 27 OFFCURVE",
"151 -13 CURVE SMOOTH",
"152 -21 OFFCURVE",
"183 -27 OFFCURVE",
"189 -27 CURVE SMOOTH"
);
}
);
width = 529;
}
);
note = F;
unicode = 0046;
},
{
glyphname = G;
lastChange = "2021-05-31 01:44:34 +0000";
layers = (
{
anchors = (
{
name = bottom;
position = "{203, 24}";
},
{
name = top;
position = "{526, 602}";
}
);
layerId = "BDD3FA2A-F197-48C4-9241-A354346F8EDC";
paths = (
{
closed = 1;
nodes = (
"373 -370 OFFCURVE",
"526 -266 OFFCURVE",
"640 24 CURVE SMOOTH",
"647 43 OFFCURVE",
"702 57 OFFCURVE",
"729 57 CURVE SMOOTH",
"735 57 OFFCURVE",
"739 56 OFFCURVE",
"742 55 CURVE SMOOTH",
"746 53 OFFCURVE",
"749 56 OFFCURVE",
"749 61 CURVE SMOOTH",
"749 63 OFFCURVE",
"748 67 OFFCURVE",
"745 69 CURVE SMOOTH",
"742 71 OFFCURVE",
"736 72 OFFCURVE",
"729 72 CURVE SMOOTH",
"712 72 OFFCURVE",
"686 67 OFFCURVE",
"653 58 CURVE",
"671 107 OFFCURVE",
"687 157 OFFCURVE",
"704 204 CURVE SMOOTH",
"722 260 OFFCURVE",
"754 307 OFFCURVE",
"795 305 CURVE",
"802 304 OFFCURVE",
"807 308 OFFCURVE",
"807 312 CURVE SMOOTH",
"807 315 OFFCURVE",
"805 317 OFFCURVE",
"799 318 CURVE SMOOTH",
"793 318 OFFCURVE",
"777 322 OFFCURVE",
"759 322 CURVE SMOOTH",
"726 322 OFFCURVE",
"682 311 OFFCURVE",
"658 250 CURVE",
"573 169 OFFCURVE",
"516 108 OFFCURVE",
"403 75 CURVE SMOOTH",
"352 59 OFFCURVE",
"303 51 OFFCURVE",
"259 51 CURVE SMOOTH",
"166 51 OFFCURVE",
"98 89 OFFCURVE",
"98 181 CURVE SMOOTH",
"98 382 OFFCURVE",
"460 579 OFFCURVE",
"607 579 CURVE SMOOTH",
"652 579 OFFCURVE",
"704 567 OFFCURVE",
"708 513 CURVE SMOOTH",
"708 502 OFFCURVE",
"713 497 OFFCURVE",
"718 497 CURVE SMOOTH",
"724 497 OFFCURVE",
"731 505 OFFCURVE",
"731 521 CURVE SMOOTH",
"731 525 OFFCURVE",
"731 529 OFFCURVE",
"730 534 CURVE SMOOTH",
"721 591 OFFCURVE",
"618 602 OFFCURVE",
"586 602 CURVE SMOOTH",
"446 602 OFFCURVE",
"318 561 OFFCURVE",
"212 464 CURVE SMOOTH",
"121 382 OFFCURVE",
"74 287 OFFCURVE",
"74 185 CURVE SMOOTH",
"74 59 OFFCURVE",
"173 3 OFFCURVE",
"277 3 CURVE SMOOTH",
"418 3 OFFCURVE",
"549 109 OFFCURVE",
"647 201 CURVE",
"631 147 OFFCURVE",
"615 95 OFFCURVE",
"597 44 CURVE",
"469 2 OFFCURVE",
"356 -61 OFFCURVE",
"266 -165 CURVE SMOOTH",
"222 -215 OFFCURVE",
"203 -260 OFFCURVE",
"203 -296 CURVE SMOOTH",
"203 -341 OFFCURVE",
"234 -370 OFFCURVE",
"282 -370 CURVE SMOOTH"
);
},
{
closed = 1;
nodes = (
"278 -344 OFFCURVE",
"257 -322 OFFCURVE",
"257 -286 CURVE SMOOTH",
"257 -253 OFFCURVE",
"274 -210 OFFCURVE",
"314 -160 CURVE SMOOTH",
"387 -70 OFFCURVE",
"482 -11 OFFCURVE",
"591 25 CURVE",
"558 -70 OFFCURVE",
"433 -344 OFFCURVE",
"310 -344 CURVE SMOOTH"
);
}
);
width = 798;
}
);
note = G;
unicode = 0047;
},
{
glyphname = H;
lastChange = "2021-06-02 02:03:51 +0000";
layers = (
{
anchors = (
{
name = bottom;
position = "{375, 0}";
},
{
name = center;
position = "{375, 437}";
},
{
name = top;
position = "{605, 583}";
},
{
name = topleft;
position = "{20, 874}";
}
);
guideLines = (
{
position = "{66, 590}";
}
);
layerId = "BDD3FA2A-F197-48C4-9241-A354346F8EDC";
paths = (
{
closed = 1;
nodes = (
"161 -134 OFFCURVE",
"286 138 OFFCURVE",
"342 263 CURVE",
"425 254 OFFCURVE",
"505 238 OFFCURVE",
"589 231 CURVE",
"582 214 OFFCURVE",
"574 197 OFFCURVE",
"568 180 CURVE SMOOTH",
"559 154 OFFCURVE",
"541 102 OFFCURVE",
"541 59 CURVE SMOOTH",
"541 20 OFFCURVE",
"555 -12 OFFCURVE",
"601 -12 CURVE SMOOTH",
"659 -12 OFFCURVE",
"713 27 OFFCURVE",
"750 70 CURVE SMOOTH",
"790 112 OFFCURVE",
"813 147 OFFCURVE",
"816 152 CURVE SMOOTH",
"819 160 OFFCURVE",
"814 163 OFFCURVE",
"810 163 CURVE SMOOTH",
"807 163 OFFCURVE",
"805 162 OFFCURVE",
"804 161 CURVE SMOOTH",
"771 119 OFFCURVE",
"670 7 OFFCURVE",
"613 7 CURVE SMOOTH",
"592 7 OFFCURVE",
"584 25 OFFCURVE",
"584 51 CURVE SMOOTH",
"584 101 OFFCURVE",
"611 180 OFFCURVE",
"631 228 CURVE",
"672 228 OFFCURVE",
"739 232 OFFCURVE",
"764 271 CURVE SMOOTH",
"769 279 OFFCURVE",
"765 286 OFFCURVE",
"760 286 CURVE SMOOTH",
"758 286 OFFCURVE",
"756 285 OFFCURVE",
"754 282 CURVE SMOOTH",
"733 252 OFFCURVE",
"673 246 OFFCURVE",
"639 246 CURVE",
"668 311 OFFCURVE",
"776 544 OFFCURVE",
"849 544 CURVE SMOOTH",
"852 544 OFFCURVE",
"857 540 OFFCURVE",
"861 539 CURVE",
"863 571 OFFCURVE",
"812 583 OFFCURVE",
"800 583 CURVE SMOOTH",
"748 583 OFFCURVE",
"682 497 OFFCURVE",
"680 464 CURVE",
"681 461 OFFCURVE",
"682 458 OFFCURVE",
"682 452 CURVE SMOOTH",
"682 446 OFFCURVE",
"681 437 OFFCURVE",
"675 424 CURVE SMOOTH",
"652 364 OFFCURVE",
"623 307 OFFCURVE",
"596 250 CURVE",
"520 259 OFFCURVE",
"437 281 OFFCURVE",
"356 297 CURVE",
"403 407 OFFCURVE",
"441 513 OFFCURVE",
"466 577 CURVE",
"469 585 OFFCURVE",
"455 589 OFFCURVE",
"441 589 CURVE SMOOTH",
"425 589 OFFCURVE",
"405 584 OFFCURVE",
"403 577 CURVE",
"372 505 OFFCURVE",
"303 444 OFFCURVE",
"246 438 CURVE SMOOTH",
"238 437 OFFCURVE",
"234 432 OFFCURVE",
"234 428 CURVE SMOOTH",
"234 424 OFFCURVE",
"237 421 OFFCURVE",
"243 421 CURVE SMOOTH",
"243 421 OFFCURVE",
"244 421 OFFCURVE",
"244 421 CURVE SMOOTH",
"285 426 OFFCURVE",
"336 442 OFFCURVE",
"374 477 CURVE",
"358 426 OFFCURVE",
"340 365 OFFCURVE",
"317 305 CURVE",
"273 311 OFFCURVE",
"229 318 OFFCURVE",
"185 318 CURVE SMOOTH",
"112 318 OFFCURVE",
"49 297 OFFCURVE",
"41 205 CURVE SMOOTH",
"39 181 OFFCURVE",
"44 158 OFFCURVE",
"51 143 CURVE SMOOTH",
"54 138 OFFCURVE",
"58 136 OFFCURVE",
"62 136 CURVE SMOOTH",
"68 136 OFFCURVE",
"72 139 OFFCURVE",
"72 144 CURVE SMOOTH",
"72 147 OFFCURVE",
"71 149 OFFCURVE",
"69 152 CURVE SMOOTH",
"66 158 OFFCURVE",
"64 164 OFFCURVE",
"64 170 CURVE SMOOTH",
"64 177 OFFCURVE",
"66 184 OFFCURVE",
"69 191 CURVE SMOOTH",
"93 258 OFFCURVE",
"161 273 OFFCURVE",
"225 273 CURVE SMOOTH",
"234 273 OFFCURVE",
"242 272 OFFCURVE",
"251 272 CURVE SMOOTH",
"268 271 OFFCURVE",
"285 270 OFFCURVE",
"303 268 CURVE",
"260 157 OFFCURVE",
"144 -106 OFFCURVE",
"-1 -106 CURVE SMOOTH",
"-32 -106 OFFCURVE",
"-62 -100 OFFCURVE",
"-74 -66 CURVE SMOOTH",
"-78 -52 OFFCURVE",
"-82 -47 OFFCURVE",
"-85 -47 CURVE SMOOTH",
"-89 -47 OFFCURVE",
"-92 -54 OFFCURVE",
"-92 -62 CURVE SMOOTH",
"-92 -65 OFFCURVE",
"-92 -69 OFFCURVE",
"-91 -72 CURVE SMOOTH",
"-80 -114 OFFCURVE",
"-44 -134 OFFCURVE",
"-3 -134 CURVE SMOOTH"
);
}
);
width = 750;
}
);
note = H;
unicode = 0048;
},
{
color = 3;
glyphname = Hbar;
lastChange = "2021-05-31 01:44:34 +0000";
layers = (
{
layerId = "BDD3FA2A-F197-48C4-9241-A354346F8EDC";
paths = (
{
closed = 1;
nodes = (
"161 -134 OFFCURVE",
"286 138 OFFCURVE",
"342 263 CURVE",
"425 254 OFFCURVE",
"505 238 OFFCURVE",
"589 231 CURVE",
"582 214 OFFCURVE",
"574 197 OFFCURVE",
"568 180 CURVE SMOOTH",
"559 154 OFFCURVE",
"541 102 OFFCURVE",
"541 59 CURVE SMOOTH",
"541 20 OFFCURVE",
"555 -12 OFFCURVE",
"601 -12 CURVE SMOOTH",
"659 -12 OFFCURVE",
"713 27 OFFCURVE",
"750 70 CURVE SMOOTH",
"790 112 OFFCURVE",
"813 147 OFFCURVE",
"816 152 CURVE SMOOTH",
"819 160 OFFCURVE",
"814 163 OFFCURVE",
"810 163 CURVE SMOOTH",
"807 163 OFFCURVE",
"805 162 OFFCURVE",
"804 161 CURVE SMOOTH",
"771 119 OFFCURVE",
"670 7 OFFCURVE",
"613 7 CURVE SMOOTH",
"592 7 OFFCURVE",
"584 25 OFFCURVE",
"584 51 CURVE SMOOTH",
"584 101 OFFCURVE",
"611 180 OFFCURVE",
"631 228 CURVE",
"672 228 OFFCURVE",
"739 232 OFFCURVE",
"764 271 CURVE SMOOTH",
"769 279 OFFCURVE",
"765 286 OFFCURVE",
"760 286 CURVE SMOOTH",
"758 286 OFFCURVE",
"756 285 OFFCURVE",
"754 282 CURVE SMOOTH",
"733 252 OFFCURVE",
"673 246 OFFCURVE",
"639 246 CURVE",
"660 293 OFFCURVE",
"721 424 OFFCURVE",
"781 496 CURVE",
"799 499 OFFCURVE",
"813 503 OFFCURVE",
"813 509 CURVE",
"812 511 OFFCURVE",
"807 514 OFFCURVE",
"799 516 CURVE",
"816 534 OFFCURVE",
"834 544 OFFCURVE",
"849 544 CURVE SMOOTH",
"852 544 OFFCURVE",
"857 540 OFFCURVE",
"861 539 CURVE",
"863 571 OFFCURVE",
"812 583 OFFCURVE",
"800 583 CURVE SMOOTH",
"769 583 OFFCURVE",
"736 554 OFFCURVE",
"711 524 CURVE",
"706 524 OFFCURVE",
"702 524 OFFCURVE",
"697 524 CURVE SMOOTH",
"630 524 OFFCURVE",
"562 526 OFFCURVE",
"503 526 CURVE SMOOTH",
"483 526 OFFCURVE",
"464 526 OFFCURVE",
"446 525 CURVE",
"454 544 OFFCURVE",
"460 562 OFFCURVE",
"466 577 CURVE",
"469 585 OFFCURVE",
"455 589 OFFCURVE",
"441 589 CURVE SMOOTH",
"425 589 OFFCURVE",
"405 584 OFFCURVE",
"403 577 CURVE",
"394 557 OFFCURVE",
"383 537 OFFCURVE",
"368 520 CURVE",
"333 515 OFFCURVE",
"312 505 OFFCURVE",
"312 490 CURVE SMOOTH",
"312 484 OFFCURVE",
"317 481 OFFCURVE",
"329 479 CURVE",
"303 456 OFFCURVE",
"273 441 OFFCURVE",
"246 438 CURVE SMOOTH",
"238 437 OFFCURVE",
"234 432 OFFCURVE",
"234 428 CURVE SMOOTH",
"234 424 OFFCURVE",
"237 421 OFFCURVE",
"243 421 CURVE SMOOTH",
"243 421 OFFCURVE",
"244 421 OFFCURVE",
"244 421 CURVE SMOOTH",
"285 426 OFFCURVE",
"336 442 OFFCURVE",
"374 477 CURVE",
"358 426 OFFCURVE",
"340 365 OFFCURVE",
"317 305 CURVE",
"273 311 OFFCURVE",
"229 318 OFFCURVE",
"185 318 CURVE SMOOTH",
"112 318 OFFCURVE",
"49 297 OFFCURVE",
"41 205 CURVE SMOOTH",
"39 181 OFFCURVE",
"44 158 OFFCURVE",
"51 143 CURVE SMOOTH",
"54 138 OFFCURVE",
"58 136 OFFCURVE",
"62 136 CURVE SMOOTH",
"68 136 OFFCURVE",
"72 139 OFFCURVE",
"72 144 CURVE SMOOTH",
"72 147 OFFCURVE",
"71 149 OFFCURVE",
"69 152 CURVE SMOOTH",
"66 158 OFFCURVE",
"64 164 OFFCURVE",
"64 170 CURVE SMOOTH",
"64 177 OFFCURVE",
"66 184 OFFCURVE",
"69 191 CURVE SMOOTH",
"93 258 OFFCURVE",
"161 273 OFFCURVE",
"225 273 CURVE SMOOTH",
"234 273 OFFCURVE",
"242 272 OFFCURVE",
"251 272 CURVE SMOOTH",
"268 271 OFFCURVE",
"285 270 OFFCURVE",
"303 268 CURVE",
"260 157 OFFCURVE",
"144 -106 OFFCURVE",
"-1 -106 CURVE SMOOTH",
"-32 -106 OFFCURVE",
"-62 -100 OFFCURVE",
"-74 -66 CURVE SMOOTH",
"-78 -52 OFFCURVE",
"-82 -47 OFFCURVE",
"-85 -47 CURVE SMOOTH",
"-89 -47 OFFCURVE",
"-92 -54 OFFCURVE",
"-92 -62 CURVE SMOOTH",
"-92 -65 OFFCURVE",
"-92 -69 OFFCURVE",
"-91 -72 CURVE SMOOTH",
"-80 -114 OFFCURVE",
"-44 -134 OFFCURVE",
"-3 -134 CURVE SMOOTH"
);
},
{
closed = 1;
nodes = (
"520 259 OFFCURVE",
"437 281 OFFCURVE",
"356 297 CURVE",
"384 362 OFFCURVE",
"408 426 OFFCURVE",
"430 480 CURVE",
"506 481 OFFCURVE",
"612 486 OFFCURVE",
"687 488 CURVE",
"683 479 OFFCURVE",
"680 471 OFFCURVE",
"680 464 CURVE",
"681 461 OFFCURVE",
"682 458 OFFCURVE",
"682 452 CURVE SMOOTH",
"682 446 OFFCURVE",
"681 437 OFFCURVE",
"675 424 CURVE SMOOTH",
"652 364 OFFCURVE",
"623 307 OFFCURVE",
"596 250 CURVE"
);
}
);
width = 528;
}
);
note = Hbar;
unicode = 0126;
},
{
glyphname = I;
lastChange = "2021-05-31 01:44:34 +0000";
layers = (
{
anchors = (
{
name = bottom;
position = "{185, 0}";
},
{
name = ogonek;
position = "{207, 8}";
},
{
name = top;
position = "{455, 601}";
},
{
name = topleft;
position = "{20, 874}";
}
);
layerId = "BDD3FA2A-F197-48C4-9241-A354346F8EDC";
paths = (
{
closed = 1;
nodes = (
"126 -9 OFFCURVE",
"383 -3 OFFCURVE",
"399 5 CURVE SMOOTH",
"404 8 OFFCURVE",
"415 17 OFFCURVE",
"415 24 CURVE SMOOTH",
"415 27 OFFCURVE",
"412 29 OFFCURVE",
"404 29 CURVE SMOOTH",
"402 29 OFFCURVE",
"400 29 OFFCURVE",
"398 29 CURVE SMOOTH",
"357 27 OFFCURVE",
"294 24 OFFCURVE",
"221 25 CURVE",
"233 35 OFFCURVE",
"246 49 OFFCURVE",
"259 63 CURVE",
"347 176 OFFCURVE",
"420 413 OFFCURVE",
"459 535 CURVE",
"505 535 OFFCURVE",
"548 531 OFFCURVE",
"574 522 CURVE SMOOTH",
"585 518 OFFCURVE",
"593 517 OFFCURVE",
"598 517 CURVE SMOOTH",
"604 517 OFFCURVE",
"606 519 OFFCURVE",
"606 522 CURVE SMOOTH",
"606 530 OFFCURVE",
"589 546 OFFCURVE",
"580 550 CURVE SMOOTH",
"554 563 OFFCURVE",
"517 573 OFFCURVE",
"473 577 CURVE",
"476 582 OFFCURVE",
"478 586 OFFCURVE",
"478 590 CURVE SMOOTH",
"478 597 OFFCURVE",
"468 601 OFFCURVE",
"455 601 CURVE SMOOTH",
"441 601 OFFCURVE",
"427 596 OFFCURVE",
"424 589 CURVE SMOOTH",
"420 579 LINE",
"300 580 OFFCURVE",
"167 541 OFFCURVE",
"172 441 CURVE SMOOTH",
"172 437 OFFCURVE",
"175 430 OFFCURVE",
"175 428 CURVE SMOOTH",
"176 382 OFFCURVE",
"229 350 OFFCURVE",
"254 345 CURVE",
"259 343 OFFCURVE",
"263 344 OFFCURVE",
"263 347 CURVE SMOOTH",
"263 348 OFFCURVE",
"261 351 OFFCURVE",
"256 354 CURVE SMOOTH",
"238 364 OFFCURVE",
"196 377 OFFCURVE",
"196 418 CURVE SMOOTH",
"196 490 OFFCURVE",
"304 526 OFFCURVE",
"409 534 CURVE",
"379 413 OFFCURVE",
"318 185 OFFCURVE",
"239 80 CURVE SMOOTH",
"209 39 OFFCURVE",
"175 26 OFFCURVE",
"143 26 CURVE SMOOTH",
"115 26 OFFCURVE",
"89 37 OFFCURVE",
"70 51 CURVE SMOOTH",
"65 54 OFFCURVE",
"59 56 OFFCURVE",
"52 56 CURVE SMOOTH",
"38 56 OFFCURVE",
"20 49 OFFCURVE",
"13 34 CURVE SMOOTH",
"9 24 OFFCURVE",
"8 17 OFFCURVE",
"8 11 CURVE SMOOTH",
"8 -7 OFFCURVE",
"24 -9 OFFCURVE",
"52 -9 CURVE SMOOTH"
);
}
);
width = 430;
}
);
note = I;
unicode = 0049;
},
{
glyphname = IJ;
lastChange = "2021-05-31 01:44:34 +0000";
layers = (
{
layerId = "BDD3FA2A-F197-48C4-9241-A354346F8EDC";
paths = (
{
closed = 1;
nodes = (
"523 -104 OFFCURVE",
"675 -1 OFFCURVE",
"782 291 CURVE SMOOTH",
"789 311 OFFCURVE",
"841 324 OFFCURVE",
"869 324 CURVE SMOOTH",
"878 324 OFFCURVE",
"883 321 OFFCURVE",
"885 321 CURVE SMOOTH",
"889 321 OFFCURVE",
"890 324 OFFCURVE",
"890 328 CURVE SMOOTH",
"890 336 OFFCURVE",
"884 339 OFFCURVE",
"869 339 CURVE SMOOTH",
"851 339 OFFCURVE",
"822 333 OFFCURVE",
"790 325 CURVE",
"809 388 OFFCURVE",
"829 476 OFFCURVE",
"852 533 CURVE",
"894 528 OFFCURVE",
"925 517 OFFCURVE",
"935 517 CURVE SMOOTH",
"941 517 OFFCURVE",
"943 518 OFFCURVE",
"943 522 CURVE SMOOTH",
"943 545 OFFCURVE",
"901 558 OFFCURVE",
"872 567 CURVE",
"891 586 OFFCURVE",
"911 583 OFFCURVE",
"911 594 CURVE SMOOTH",
"911 596 OFFCURVE",
"907 601 OFFCURVE",
"900 601 CURVE SMOOTH",
"881 601 OFFCURVE",
"863 589 OFFCURVE",
"849 572 CURVE",
"820 577 OFFCURVE",
"789 579 OFFCURVE",
"756 579 CURVE SMOOTH",
"696 579 OFFCURVE",
"633 569 OFFCURVE",
"585 548 CURVE",
"580 550 LINE SMOOTH",
"554 563 OFFCURVE",
"517 573 OFFCURVE",
"473 577 CURVE",
"478 589 LINE",
"478 597 OFFCURVE",
"470 601 OFFCURVE",
"455 601 CURVE SMOOTH",
"441 601 OFFCURVE",
"425 596 OFFCURVE",
"424 589 CURVE SMOOTH",
"420 579 LINE",
"296 579 OFFCURVE",
"172 543 OFFCURVE",
"172 441 CURVE SMOOTH",
"172 387 OFFCURVE",
"229 344 OFFCURVE",
"259 344 CURVE SMOOTH",
"261 344 OFFCURVE",
"262 345 OFFCURVE",
"262 347 CURVE SMOOTH",
"262 359 OFFCURVE",
"196 367 OFFCURVE",
"196 418 CURVE SMOOTH",
"196 490 OFFCURVE",
"303 526 OFFCURVE",
"409 534 CURVE",
"367 368 OFFCURVE",
"282 25 OFFCURVE",
"143 25 CURVE SMOOTH",
"104 25 OFFCURVE",
"76 56 OFFCURVE",
"52 56 CURVE SMOOTH",
"28 56 OFFCURVE",
"7 36 OFFCURVE",
"7 10 CURVE SMOOTH",
"7 -9 OFFCURVE",
"28 -9 OFFCURVE",
"58 -9 CURVE SMOOTH",
"119 -9 OFFCURVE",
"268 -6 OFFCURVE",
"348 -1 CURVE",
"346 -10 OFFCURVE",
"346 -18 OFFCURVE",
"346 -27 CURVE SMOOTH",
"346 -75 OFFCURVE",
"380 -104 OFFCURVE",
"430 -104 CURVE SMOOTH"
);
},
{
closed = 1;
nodes = (
"419 -78 OFFCURVE",
"398 -55 OFFCURVE",
"398 -20 CURVE SMOOTH",
"398 5 OFFCURVE",
"414 12 OFFCURVE",
"414 24 CURVE SMOOTH",
"414 27 OFFCURVE",
"413 28 OFFCURVE",
"408 29 CURVE",
"454 152 OFFCURVE",
"603 250 OFFCURVE",
"732 292 CURVE",
"675 136 OFFCURVE",
"551 -78 OFFCURVE",
"450 -78 CURVE SMOOTH"
);
},
{
closed = 1;
nodes = (
"251 24 OFFCURVE",
"236 25 OFFCURVE",
"221 25 CURVE",
"325 108 OFFCURVE",
"415 396 OFFCURVE",
"459 535 CURVE",
"494 535 OFFCURVE",
"527 533 OFFCURVE",
"551 528 CURVE",
"526 508 OFFCURVE",
"509 482 OFFCURVE",
"509 448 CURVE SMOOTH",
"509 391 OFFCURVE",
"561 344 OFFCURVE",
"595 344 CURVE SMOOTH",
"597 344 OFFCURVE",
"599 345 OFFCURVE",
"599 347 CURVE SMOOTH",
"599 359 OFFCURVE",
"533 367 OFFCURVE",
"533 418 CURVE SMOOTH",
"533 526 OFFCURVE",
"750 535 OFFCURVE",
"822 535 CURVE",
"783 465 OFFCURVE",
"756 358 OFFCURVE",
"739 311 CURVE",
"593 265 OFFCURVE",
"416 169 OFFCURVE",
"357 27 CURVE",
"330 25 OFFCURVE",
"300 24 OFFCURVE",
"265 24 CURVE SMOOTH"
);
}
);
width = 696;
}
);
note = IJ;
unicode = 0132;
},
{
color = 3;
glyphname = Itilde;
lastChange = "2021-06-02 09:46:15 +0000";
layers = (
{
layerId = "BDD3FA2A-F197-48C4-9241-A354346F8EDC";
paths = (
{
closed = 1;
nodes = (
"126 -9 OFFCURVE",
"383 -3 OFFCURVE",
"399 5 CURVE SMOOTH",
"404 8 OFFCURVE",
"415 17 OFFCURVE",
"415 24 CURVE SMOOTH",
"415 27 OFFCURVE",
"412 29 OFFCURVE",
"404 29 CURVE SMOOTH",
"402 29 OFFCURVE",
"400 29 OFFCURVE",
"398 29 CURVE SMOOTH",
"357 27 OFFCURVE",
"294 24 OFFCURVE",
"221 25 CURVE",
"233 35 OFFCURVE",
"246 49 OFFCURVE",
"259 63 CURVE",
"347 176 OFFCURVE",
"420 413 OFFCURVE",
"459 535 CURVE",
"505 535 OFFCURVE",
"548 531 OFFCURVE",
"574 522 CURVE SMOOTH",
"585 518 OFFCURVE",
"593 517 OFFCURVE",
"598 517 CURVE SMOOTH",
"604 517 OFFCURVE",
"606 519 OFFCURVE",
"606 522 CURVE SMOOTH",
"606 530 OFFCURVE",
"589 546 OFFCURVE",
"580 550 CURVE SMOOTH",
"554 563 OFFCURVE",
"517 573 OFFCURVE",
"473 577 CURVE",
"476 582 OFFCURVE",
"478 586 OFFCURVE",
"478 590 CURVE SMOOTH",
"478 597 OFFCURVE",
"468 601 OFFCURVE",
"455 601 CURVE SMOOTH",
"441 601 OFFCURVE",
"426 596 OFFCURVE",
"424 589 CURVE SMOOTH",
"420 579 LINE",
"300 580 OFFCURVE",
"167 541 OFFCURVE",
"172 441 CURVE SMOOTH",
"172 437 OFFCURVE",
"175 430 OFFCURVE",
"175 428 CURVE SMOOTH",
"176 382 OFFCURVE",
"229 350 OFFCURVE",
"254 345 CURVE",
"259 343 OFFCURVE",
"263 344 OFFCURVE",
"263 347 CURVE SMOOTH",
"263 348 OFFCURVE",
"261 351 OFFCURVE",
"256 354 CURVE SMOOTH",
"238 364 OFFCURVE",
"196 377 OFFCURVE",
"196 418 CURVE SMOOTH",
"196 490 OFFCURVE",
"304 526 OFFCURVE",
"409 534 CURVE",
"379 413 OFFCURVE",
"318 185 OFFCURVE",
"239 80 CURVE SMOOTH",
"209 39 OFFCURVE",
"175 26 OFFCURVE",
"143 26 CURVE SMOOTH",
"115 26 OFFCURVE",
"89 37 OFFCURVE",
"70 51 CURVE SMOOTH",
"65 54 OFFCURVE",
"59 56 OFFCURVE",
"52 56 CURVE SMOOTH",
"38 56 OFFCURVE",
"20 49 OFFCURVE",
"13 34 CURVE SMOOTH",
"9 24 OFFCURVE",
"8 17 OFFCURVE",
"8 11 CURVE SMOOTH",
"8 -7 OFFCURVE",
"24 -9 OFFCURVE",
"52 -9 CURVE SMOOTH"
);
},
{
closed = 1;
nodes = (
"359 664 OFFCURVE",
"398 703 OFFCURVE",
"424 703 CURVE SMOOTH",
"460 703 OFFCURVE",
"498 670 OFFCURVE",
"535 670 CURVE SMOOTH",
"567 670 OFFCURVE",
"596 699 OFFCURVE",
"612 733 CURVE",
"612 737 OFFCURVE",
"607 738 OFFCURVE",
"602 738 CURVE SMOOTH",
"588 738 OFFCURVE",
"579 702 OFFCURVE",
"554 702 CURVE SMOOTH",
"516 702 OFFCURVE",
"458 747 OFFCURVE",
"435 747 CURVE SMOOTH",
"397 747 OFFCURVE",
"369 707 OFFCURVE",
"344 670 CURVE",
"344 669 LINE SMOOTH",
"344 666 OFFCURVE",
"348 664 OFFCURVE",
"353 664 CURVE SMOOTH"
);
}
);
width = 430;
}
);
note = Itilde;
unicode = 0128;
},
{
glyphname = J;
lastChange = "2021-05-31 01:44:34 +0000";
layers = (
{
anchors = (
{
name = bottom;
position = "{118, -105}";
},
{
name = top;
position = "{551, 589}";
}
);
layerId = "BDD3FA2A-F197-48C4-9241-A354346F8EDC";
paths = (
{
closed = 1;
nodes = (
"211 -105 OFFCURVE",
"363 -1 OFFCURVE",
"470 291 CURVE SMOOTH",
"477 311 OFFCURVE",
"529 324 OFFCURVE",
"557 324 CURVE SMOOTH",
"563 324 OFFCURVE",
"568 323 OFFCURVE",
"571 322 CURVE SMOOTH",
"575 320 OFFCURVE",
"578 323 OFFCURVE",
"578 328 CURVE SMOOTH",
"578 330 OFFCURVE",
"577 334 OFFCURVE",
"574 336 CURVE SMOOTH",
"571 338 OFFCURVE",
"565 339 OFFCURVE",
"558 339 CURVE SMOOTH",
"540 339 OFFCURVE",
"511 334 OFFCURVE",
"478 325 CURVE",
"497 388 OFFCURVE",
"517 476 OFFCURVE",
"540 533 CURVE",
"564 531 OFFCURVE",
"584 527 OFFCURVE",
"599 522 CURVE SMOOTH",
"611 518 OFFCURVE",
"619 517 OFFCURVE",
"624 517 CURVE SMOOTH",
"629 517 OFFCURVE",
"631 519 OFFCURVE",
"631 522 CURVE SMOOTH",
"631 529 OFFCURVE",
"614 546 OFFCURVE",
"606 550 CURVE SMOOTH",
"593 557 OFFCURVE",
"577 562 OFFCURVE",
"560 567 CURVE",
"569 577 OFFCURVE",
"580 583 OFFCURVE",
"588 584 CURVE SMOOTH",
"595 585 OFFCURVE",
"599 590 OFFCURVE",
"599 594 CURVE SMOOTH",
"599 598 OFFCURVE",
"596 601 OFFCURVE",
"588 601 CURVE SMOOTH",
"569 601 OFFCURVE",
"551 589 OFFCURVE",
"537 572 CURVE",
"509 577 OFFCURVE",
"478 579 OFFCURVE",
"445 579 CURVE SMOOTH",
"323 579 OFFCURVE",
"191 541 OFFCURVE",
"197 441 CURVE",
"197 396 OFFCURVE",
"234 354 OFFCURVE",
"278 345 CURVE SMOOTH",
"284 343 OFFCURVE",
"288 344 OFFCURVE",
"288 347 CURVE SMOOTH",
"288 348 OFFCURVE",
"286 351 OFFCURVE",
"281 354 CURVE SMOOTH",
"264 364 OFFCURVE",
"221 377 OFFCURVE",
"221 418 CURVE SMOOTH",
"221 509 OFFCURVE",
"390 540 OFFCURVE",
"510 535 CURVE",
"471 465 OFFCURVE",
"444 358 OFFCURVE",
"427 311 CURVE",
"297 270 OFFCURVE",
"185 208 OFFCURVE",
"95 103 CURVE SMOOTH",
"52 54 OFFCURVE",
"34 9 OFFCURVE",
"34 -26 CURVE SMOOTH",
"34 -74 OFFCURVE",
"67 -105 OFFCURVE",
"118 -105 CURVE SMOOTH"
);
},
{
closed = 1;
nodes = (
"106 -77 OFFCURVE",
"86 -55 OFFCURVE",
"86 -19 CURVE SMOOTH",
"86 13 OFFCURVE",
"103 57 OFFCURVE",
"143 107 CURVE SMOOTH",
"216 197 OFFCURVE",
"311 256 OFFCURVE",
"420 292 CURVE",
"387 197 OFFCURVE",
"262 -77 OFFCURVE",
"138 -77 CURVE SMOOTH"
);
}
);
width = 573;
}
);
note = J;
unicode = 004A;
},
{
glyphname = K;
lastChange = "2021-05-31 01:44:34 +0000";
layers = (
{
anchors = (
{
name = bottom;
position = "{208, 0}";
},
{
name = top;
position = "{454, 596}";
}
);
layerId = "BDD3FA2A-F197-48C4-9241-A354346F8EDC";
paths = (
{
closed = 1;
nodes = (
"-26 -134 OFFCURVE",
"60 -12 OFFCURVE",
"112 73 CURVE",
"146 120 OFFCURVE",
"208 193 OFFCURVE",
"265 260 CURVE",
"288 129 OFFCURVE",
"347 -33 OFFCURVE",
"473 -33 CURVE SMOOTH",
"498 -33 OFFCURVE",
"549 -13 OFFCURVE",
"550 28 CURVE SMOOTH",
"550 45 OFFCURVE",
"535 73 OFFCURVE",
"528 80 CURVE SMOOTH",
"523 85 OFFCURVE",
"514 89 OFFCURVE",
"509 89 CURVE SMOOTH",
"506 89 OFFCURVE",
"504 88 OFFCURVE",
"504 85 CURVE SMOOTH",
"504 82 OFFCURVE",
"506 79 OFFCURVE",
"509 74 CURVE SMOOTH",
"518 61 OFFCURVE",
"530 38 OFFCURVE",
"530 20 CURVE SMOOTH",
"530 5 OFFCURVE",
"522 -6 OFFCURVE",
"500 -6 CURVE SMOOTH",
"475 -6 OFFCURVE",
"441 17 OFFCURVE",
"410 53 CURVE SMOOTH",
"342 138 OFFCURVE",
"321 188 OFFCURVE",
"292 294 CURVE",
"365 374 OFFCURVE",
"573 508 OFFCURVE",
"674 555 CURVE SMOOTH",
"689 563 OFFCURVE",
"697 575 OFFCURVE",
"697 585 CURVE SMOOTH",
"697 597 OFFCURVE",
"687 607 OFFCURVE",
"666 607 CURVE SMOOTH",
"654 607 OFFCURVE",
"637 603 OFFCURVE",
"617 593 CURVE SMOOTH",
"585 578 OFFCURVE",
"321 352 OFFCURVE",
"287 318 CURVE SMOOTH",
"285 316 LINE",
"284 321 OFFCURVE",
"283 325 OFFCURVE",
"283 330 CURVE",
"281 340 OFFCURVE",
"278 343 OFFCURVE",
"276 343 CURVE SMOOTH",
"270 343 OFFCURVE",
"264 331 OFFCURVE",
"262 324 CURVE",
"261 316 OFFCURVE",
"261 308 OFFCURVE",
"261 298 CURVE SMOOTH",
"261 294 OFFCURVE",
"261 290 OFFCURVE",
"261 285 CURVE",
"225 248 OFFCURVE",
"197 216 OFFCURVE",
"171 183 CURVE",
"233 312 OFFCURVE",
"279 447 OFFCURVE",
"333 577 CURVE",
"335 585 OFFCURVE",
"322 589 OFFCURVE",
"307 589 CURVE SMOOTH",
"291 589 OFFCURVE",
"272 584 OFFCURVE",
"270 577 CURVE",
"238 505 OFFCURVE",
"169 444 OFFCURVE",
"112 438 CURVE SMOOTH",
"104 437 OFFCURVE",
"100 433 OFFCURVE",
"100 429 CURVE SMOOTH",
"100 425 OFFCURVE",
"104 421 OFFCURVE",
"111 421 CURVE SMOOTH",
"111 421 OFFCURVE",
"112 421 OFFCURVE",
"112 421 CURVE SMOOTH",
"152 426 OFFCURVE",
"203 442 OFFCURVE",
"240 477 CURVE",
"193 316 OFFCURVE",
"77 -47 OFFCURVE",
"-102 -102 CURVE SMOOTH",
"-112 -105 OFFCURVE",
"-123 -106 OFFCURVE",
"-133 -106 CURVE SMOOTH",
"-166 -106 OFFCURVE",
"-195 -100 OFFCURVE",
"-208 -66 CURVE",
"-211 -52 OFFCURVE",
"-215 -47 OFFCURVE",
"-219 -47 CURVE SMOOTH",
"-223 -47 OFFCURVE",
"-226 -55 OFFCURVE",
"-226 -64 CURVE SMOOTH",
"-226 -67 OFFCURVE",
"-225 -69 OFFCURVE",
"-225 -72 CURVE",
"-212 -114 OFFCURVE",
"-179 -134 OFFCURVE",
"-137 -134 CURVE SMOOTH"
);
}
);
width = 558;
}
);
note = K;
unicode = 004B;
},
{
glyphname = L;
lastChange = "2021-05-31 01:44:34 +0000";
layers = (
{
anchors = (
{
name = bottom;
position = "{356, -84}";
},
{
name = center;
position = "{206, 437}";
},
{
name = top;
position = "{535, 610}";
},
{
name = topright;
position = "{611, 601}";
}
);
layerId = "BDD3FA2A-F197-48C4-9241-A354346F8EDC";
paths = (
{
closed = 1;
nodes = (
"630 -164 OFFCURVE",
"664 -155 OFFCURVE",
"692 -136 CURVE SMOOTH",
"702 -129 OFFCURVE",
"711 -111 OFFCURVE",
"711 -91 CURVE SMOOTH",
"711 -74 OFFCURVE",
"704 -57 OFFCURVE",
"687 -45 CURVE SMOOTH",
"680 -41 OFFCURVE",
"675 -43 OFFCURVE",
"675 -48 CURVE SMOOTH",
"675 -50 OFFCURVE",
"677 -53 OFFCURVE",
"681 -56 CURVE SMOOTH",
"689 -62 OFFCURVE",
"692 -69 OFFCURVE",
"692 -76 CURVE SMOOTH",
"692 -85 OFFCURVE",
"687 -95 OFFCURVE",
"677 -101 CURVE SMOOTH",
"665 -109 OFFCURVE",
"644 -114 OFFCURVE",
"622 -114 CURVE SMOOTH",
"572 -114 OFFCURVE",
"508 -98 OFFCURVE",
"477 -90 CURVE SMOOTH",
"367 -62 OFFCURVE",
"256 -23 OFFCURVE",
"145 -5 CURVE SMOOTH",
"120 -1 OFFCURVE",
"97 1 OFFCURVE",
"79 2 CURVE",
"106 29 OFFCURVE",
"134 64 OFFCURVE",
"147 84 CURVE SMOOTH",
"169 112 OFFCURVE",
"188 141 OFFCURVE",
"206 170 CURVE",
"367 208 OFFCURVE",
"563 341 OFFCURVE",
"597 508 CURVE SMOOTH",
"599 518 OFFCURVE",
"600 528 OFFCURVE",
"600 537 CURVE SMOOTH",
"600 573 OFFCURVE",
"582 601 OFFCURVE",
"533 609 CURVE SMOOTH",
"526 610 OFFCURVE",
"518 611 OFFCURVE",
"510 611 CURVE SMOOTH",
"468 611 OFFCURVE",
"414 593 OFFCURVE",
"364 545 CURVE SMOOTH",
"323 504 OFFCURVE",
"266 393 OFFCURVE",
"217 284 CURVE SMOOTH",
"201 248 OFFCURVE",
"185 211 OFFCURVE",
"166 174 CURVE",
"147 169 OFFCURVE",
"126 166 OFFCURVE",
"107 166 CURVE SMOOTH",
"95 166 OFFCURVE",
"85 167 OFFCURVE",
"75 169 CURVE SMOOTH",
"54 172 OFFCURVE",
"46 186 OFFCURVE",
"46 200 CURVE SMOOTH",
"46 219 OFFCURVE",
"60 240 OFFCURVE",
"75 240 CURVE SMOOTH",
"81 240 OFFCURVE",
"84 243 OFFCURVE",
"84 246 CURVE SMOOTH",
"84 251 OFFCURVE",
"79 256 OFFCURVE",
"72 256 CURVE SMOOTH",
"45 256 OFFCURVE",
"15 227 OFFCURVE",
"15 199 CURVE SMOOTH",
"15 156 OFFCURVE",
"52 143 OFFCURVE",
"91 143 CURVE SMOOTH",
"112 143 OFFCURVE",
"136 148 OFFCURVE",
"157 154 CURVE",
"146 136 OFFCURVE",
"136 118 OFFCURVE",
"126 100 CURVE SMOOTH",
"114 78 OFFCURVE",
"83 29 OFFCURVE",
"53 2 CURVE",
"38 1 OFFCURVE",
"23 1 OFFCURVE",
"13 -4 CURVE SMOOTH",
"5 -9 OFFCURVE",
"2 -14 OFFCURVE",
"2 -18 CURVE SMOOTH",
"2 -25 OFFCURVE",
"9 -30 OFFCURVE",
"20 -30 CURVE SMOOTH",
"23 -30 OFFCURVE",
"26 -30 OFFCURVE",
"29 -29 CURVE SMOOTH",
"38 -28 OFFCURVE",
"46 -23 OFFCURVE",
"55 -16 CURVE",
"83 -16 OFFCURVE",
"126 -24 OFFCURVE",
"192 -41 CURVE SMOOTH",
"217 -47 OFFCURVE",
"285 -75 OFFCURVE",
"356 -100 CURVE SMOOTH",
"413 -121 OFFCURVE",
"509 -164 OFFCURVE",
"594 -164 CURVE SMOOTH"
);
},
{
closed = 1;
nodes = (
"251 240 OFFCURVE",
"274 284 OFFCURVE",
"285 306 CURVE SMOOTH",
"316 362 OFFCURVE",
"382 513 OFFCURVE",
"461 572 CURVE SMOOTH",
"484 587 OFFCURVE",
"506 595 OFFCURVE",
"529 595 CURVE SMOOTH",
"539 595 OFFCURVE",
"547 592 OFFCURVE",
"552 586 CURVE",
"561 578 OFFCURVE",
"565 566 OFFCURVE",
"565 553 CURVE SMOOTH",
"565 535 OFFCURVE",
"559 514 OFFCURVE",
"549 492 CURVE SMOOTH",
"484 341 OFFCURVE",
"369 257 OFFCURVE",
"221 193 CURVE"
);
}
);
width = 412;
}
);
note = L;
unicode = 004C;
},
{
color = 3;
glyphname = Lslash;
lastChange = "2021-05-31 01:44:34 +0000";
layers = (
{
components = (
{
name = L;
}
);
layerId = "BDD3FA2A-F197-48C4-9241-A354346F8EDC";
paths = (
{
closed = 1;
nodes = (
"82 50 OFFCURVE",
"170 87 OFFCURVE",
"222 109 CURVE",
"231 114 OFFCURVE",
"279 133 OFFCURVE",
"279 145 CURVE SMOOTH",
"279 147 OFFCURVE",
"275 150 OFFCURVE",
"268 150 CURVE SMOOTH",
"256 150 OFFCURVE",
"235 145 OFFCURVE",
"210 136 CURVE SMOOTH",
"164 119 OFFCURVE",
"67 82 OFFCURVE",
"44 74 CURVE SMOOTH",
"29 68 OFFCURVE",
"15 49 OFFCURVE",
"15 38 CURVE SMOOTH",
"15 33 OFFCURVE",
"17 30 OFFCURVE",
"24 30 CURVE SMOOTH",
"29 30 OFFCURVE",
"36 32 OFFCURVE",
"45 36 CURVE SMOOTH"
);
}
);
width = 412;
}
);
note = Lslash;
unicode = 0141;
},
{
glyphname = M;
lastChange = "2021-05-31 01:44:34 +0000";
layers = (
{
layerId = "BDD3FA2A-F197-48C4-9241-A354346F8EDC";
paths = (
{
closed = 1;
nodes = (
"71 -77 OFFCURVE",
"109 -57 OFFCURVE",
"145 -11 CURVE SMOOTH",
"226 91 OFFCURVE",
"299 277 OFFCURVE",
"323 336 CURVE",
"420 425 OFFCURVE",
"518 499 OFFCURVE",
"571 499 CURVE SMOOTH",
"624 499 OFFCURVE",
"643 431 OFFCURVE",
"643 346 CURVE SMOOTH",
"643 249 OFFCURVE",
"619 131 OFFCURVE",
"594 68 CURVE",
"590 59 OFFCURVE",
"604 25 OFFCURVE",
"619 25 CURVE SMOOTH",
"624 25 OFFCURVE",
"630 29 OFFCURVE",
"635 40 CURVE SMOOTH",
"692 160 OFFCURVE",
"847 387 OFFCURVE",
"943 471 CURVE SMOOTH",
"957 483 OFFCURVE",
"969 488 OFFCURVE",
"978 488 CURVE SMOOTH",
"989 488 OFFCURVE",
"996 480 OFFCURVE",
"996 467 CURVE SMOOTH",
"996 460 OFFCURVE",
"994 451 OFFCURVE",
"989 441 CURVE SMOOTH",
"965 375 OFFCURVE",
"887 196 OFFCURVE",
"887 83 CURVE SMOOTH",
"887 67 OFFCURVE",
"888 52 OFFCURVE",
"892 39 CURVE SMOOTH",
"901 3 OFFCURVE",
"928 -10 OFFCURVE",
"957 -10 CURVE SMOOTH",
"982 -10 OFFCURVE",
"1010 0 OFFCURVE",
"1030 15 CURVE SMOOTH",
"1070 44 OFFCURVE",
"1135 112 OFFCURVE",
"1161 152 CURVE",
"1165 158 OFFCURVE",
"1159 163 OFFCURVE",
"1154 163 CURVE SMOOTH",
"1152 163 OFFCURVE",
"1149 162 OFFCURVE",
"1148 160 CURVE SMOOTH",
"1121 123 OFFCURVE",
"1025 17 OFFCURVE",
"974 17 CURVE SMOOTH",
"952 17 OFFCURVE",
"938 36 OFFCURVE",
"938 82 CURVE SMOOTH",
"938 91 OFFCURVE",
"939 102 OFFCURVE",
"940 114 CURVE SMOOTH",
"953 251 OFFCURVE",
"1015 327 OFFCURVE",
"1046 454 CURVE SMOOTH",
"1049 467 OFFCURVE",
"1051 478 OFFCURVE",
"1051 488 CURVE SMOOTH",
"1051 525 OFFCURVE",
"1030 543 OFFCURVE",
"1004 543 CURVE SMOOTH",
"980 543 OFFCURVE",
"951 530 OFFCURVE",
"926 503 CURVE SMOOTH",
"862 436 OFFCURVE",
"796 347 OFFCURVE",
"743 265 CURVE SMOOTH",
"707 209 OFFCURVE",
"677 157 OFFCURVE",
"644 103 CURVE SMOOTH",
"638 94 OFFCURVE",
"635 90 OFFCURVE",
"634 90 CURVE SMOOTH",
"630 90 OFFCURVE",
"638 113 OFFCURVE",
"641 120 CURVE SMOOTH",
"664 188 OFFCURVE",
"686 274 OFFCURVE",
"693 335 CURVE SMOOTH",
"694 347 OFFCURVE",
"695 359 OFFCURVE",
"695 372 CURVE SMOOTH",
"695 454 OFFCURVE",
"660 533 OFFCURVE",
"546 527 CURVE SMOOTH",
"503 524 OFFCURVE",
"430 475 OFFCURVE",
"352 408 CURVE",
"373 461 OFFCURVE",
"396 518 OFFCURVE",
"420 579 CURVE",
"422 588 OFFCURVE",
"409 591 OFFCURVE",
"394 591 CURVE SMOOTH",
"377 591 OFFCURVE",
"359 587 OFFCURVE",
"356 579 CURVE SMOOTH",
"327 508 OFFCURVE",
"256 447 OFFCURVE",
"198 441 CURVE SMOOTH",
"190 440 OFFCURVE",
"186 436 OFFCURVE",
"186 432 CURVE SMOOTH",
"186 428 OFFCURVE",
"189 425 OFFCURVE",
"196 425 CURVE SMOOTH",
"196 425 OFFCURVE",
"197 425 OFFCURVE",
"197 425 CURVE SMOOTH",
"238 428 OFFCURVE",
"290 444 OFFCURVE",
"327 479 CURVE",
"313 433 OFFCURVE",
"301 391 OFFCURVE",
"288 351 CURVE",
"229 297 OFFCURVE",
"76 141 OFFCURVE",
"15 45 CURVE SMOOTH",
"-2 18 OFFCURVE",
"-9 -5 OFFCURVE",
"-9 -24 CURVE SMOOTH",
"-9 -57 OFFCURVE",
"12 -77 OFFCURVE",
"41 -77 CURVE SMOOTH"
);
},
{
closed = 1;
nodes = (
"33 -42 OFFCURVE",
"26 -33 OFFCURVE",
"26 -19 CURVE SMOOTH",
"26 -2 OFFCURVE",
"35 22 OFFCURVE",
"57 51 CURVE SMOOTH",
"94 101 OFFCURVE",
"193 216 OFFCURVE",
"268 287 CURVE",
"246 223 OFFCURVE",
"131 -42 OFFCURVE",
"46 -42 CURVE SMOOTH"
);
}
);
width = 1095;
}
);
note = M;
unicode = 004D;
},
{
glyphname = N;
lastChange = "2021-05-31 01:44:34 +0000";
layers = (
{
anchors = (
{
name = bottom;
position = "{295, -55}";
},
{
name = top;
position = "{508, 604}";
}
);
layerId = "BDD3FA2A-F197-48C4-9241-A354346F8EDC";
paths = (
{
closed = 1;
nodes = (
"27 -129 OFFCURVE",
"115 10 OFFCURVE",
"164 97 CURVE SMOOTH",
"217 194 OFFCURVE",
"255 287 OFFCURVE",
"296 395 CURVE",
"296 217 OFFCURVE",
"333 -55 OFFCURVE",
"492 -55 CURVE SMOOTH",
"627 -55 OFFCURVE",
"751 272 OFFCURVE",
"751 455 CURVE SMOOTH",
"751 463 OFFCURVE",
"751 471 OFFCURVE",
"750 479 CURVE",
"763 468 OFFCURVE",
"795 444 OFFCURVE",
"813 444 CURVE",
"824 446 OFFCURVE",
"836 453 OFFCURVE",
"836 464 CURVE",
"834 474 OFFCURVE",
"831 475 OFFCURVE",
"821 475 CURVE",
"815 472 LINE",
"802 472 OFFCURVE",
"798 474 OFFCURVE",
"788 483 CURVE SMOOTH",
"754 515 OFFCURVE",
"732 604 OFFCURVE",
"691 604 CURVE",
"685 603 OFFCURVE",
"671 591 OFFCURVE",
"671 586 CURVE SMOOTH",
"671 586 OFFCURVE",
"671 585 OFFCURVE",
"671 585 CURVE SMOOTH",
"681 557 OFFCURVE",
"692 534 OFFCURVE",
"698 498 CURVE SMOOTH",
"700 486 OFFCURVE",
"701 472 OFFCURVE",
"701 455 CURVE SMOOTH",
"701 302 OFFCURVE",
"616 -21 OFFCURVE",
"499 -21 CURVE SMOOTH",
"385 -21 OFFCURVE",
"345 289 OFFCURVE",
"345 431 CURVE SMOOTH",
"345 453 OFFCURVE",
"346 471 OFFCURVE",
"348 483 CURVE SMOOTH",
"351 501 OFFCURVE",
"353 539 OFFCURVE",
"359 554 CURVE",
"361 563 OFFCURVE",
"348 567 OFFCURVE",
"333 567 CURVE SMOOTH",
"317 567 OFFCURVE",
"298 562 OFFCURVE",
"295 554 CURVE SMOOTH",
"266 483 OFFCURVE",
"194 424 OFFCURVE",
"137 415 CURVE SMOOTH",
"130 414 OFFCURVE",
"125 410 OFFCURVE",
"125 405 CURVE SMOOTH",
"125 401 OFFCURVE",
"128 398 OFFCURVE",
"135 398 CURVE SMOOTH",
"135 398 OFFCURVE",
"136 398 OFFCURVE",
"136 398 CURVE SMOOTH",
"177 402 OFFCURVE",
"227 418 OFFCURVE",
"266 453 CURVE",
"228 328 OFFCURVE",
"192 214 OFFCURVE",
"134 102 CURVE SMOOTH",
"93 28 OFFCURVE",
"10 -102 OFFCURVE",
"-88 -102 CURVE SMOOTH",
"-99 -102 OFFCURVE",
"-112 -101 OFFCURVE",
"-120 -98 CURVE",
"-138 -94 OFFCURVE",
"-149 -83 OFFCURVE",
"-154 -64 CURVE SMOOTH",
"-159 -51 OFFCURVE",
"-163 -46 OFFCURVE",
"-166 -46 CURVE SMOOTH",
"-170 -46 OFFCURVE",
"-172 -52 OFFCURVE",
"-172 -60 CURVE SMOOTH",
"-172 -63 OFFCURVE",
"-172 -66 OFFCURVE",
"-171 -69 CURVE SMOOTH",
"-164 -98 OFFCURVE",
"-146 -116 OFFCURVE",
"-120 -125 CURVE SMOOTH",
"-109 -128 OFFCURVE",
"-99 -129 OFFCURVE",
"-88 -129 CURVE SMOOTH"
);
}
);
width = 784;
}
);
note = N;
unicode = 004E;
},
{
color = 3;
glyphname = Eng;
lastChange = "2021-05-31 01:44:34 +0000";
layers = (
{
layerId = "BDD3FA2A-F197-48C4-9241-A354346F8EDC";
paths = (
{
closed = 1;
nodes = (
"297 -323 OFFCURVE",
"387 -206 OFFCURVE",
"433 -134 CURVE SMOOTH",
"558 62 OFFCURVE",
"615 261 OFFCURVE",
"615 412 CURVE SMOOTH",
"615 503 OFFCURVE",
"589 572 OFFCURVE",
"524 572 CURVE SMOOTH",
"508 572 OFFCURVE",
"471 561 OFFCURVE",
"471 544 CURVE SMOOTH",
"471 539 OFFCURVE",
"472 538 OFFCURVE",
"476 538 CURVE SMOOTH",
"484 538 OFFCURVE",
"499 545 OFFCURVE",
"510 545 CURVE SMOOTH",
"526 545 OFFCURVE",
"538 537 OFFCURVE",
"545 521 CURVE SMOOTH",
"555 498 OFFCURVE",
"560 459 OFFCURVE",
"560 418 CURVE SMOOTH",
"560 233 OFFCURVE",
"497 18 OFFCURVE",
"392 18 CURVE SMOOTH",
"271 18 OFFCURVE",
"263 268 OFFCURVE",
"263 421 CURVE SMOOTH",
"263 457 OFFCURVE",
"266 489 OFFCURVE",
"266 522 CURVE SMOOTH",
"266 538 OFFCURVE",
"237 557 OFFCURVE",
"221 557 CURVE SMOOTH",
"197 557 OFFCURVE",
"7 90 OFFCURVE",
"7 9 CURVE",
"9 2 OFFCURVE",
"12 0 OFFCURVE",
"17 0 CURVE SMOOTH",
"24 0 OFFCURVE",
"32 4 OFFCURVE",
"35 9 CURVE",
"57 145 OFFCURVE",
"143 296 OFFCURVE",
"223 449 CURVE",
"221 415 OFFCURVE",
"219 382 OFFCURVE",
"219 348 CURVE SMOOTH",
"219 204 OFFCURVE",
"246 -16 OFFCURVE",
"375 -16 CURVE SMOOTH",
"414 -16 OFFCURVE",
"450 9 OFFCURVE",
"483 47 CURVE",
"444 -49 OFFCURVE",
"310 -303 OFFCURVE",
"204 -303 CURVE SMOOTH",
"153 -303 OFFCURVE",
"135 -272 OFFCURVE",
"135 -233 CURVE SMOOTH",
"135 -185 OFFCURVE",
"164 -124 OFFCURVE",
"194 -96 CURVE",
"197 -94 OFFCURVE",
"198 -91 OFFCURVE",
"198 -89 CURVE SMOOTH",
"198 -84 OFFCURVE",
"194 -80 OFFCURVE",
"189 -80 CURVE SMOOTH",
"149 -80 OFFCURVE",
"107 -165 OFFCURVE",
"101 -194 CURVE",
"98 -204 OFFCURVE",
"98 -212 OFFCURVE",
"98 -221 CURVE SMOOTH",
"98 -274 OFFCURVE",
"132 -323 OFFCURVE",
"203 -323 CURVE SMOOTH"
);
}
);
width = 520;
}
);
note = Eng;
unicode = 014A;
},
{
glyphname = O;
lastChange = "2021-06-03 11:17:01 +0000";
layers = (
{
anchors = (
{
name = bottom;
position = "{292, -61}";
},
{
name = center;
position = "{353, 437}";
},
{
name = ogonek;
position = "{303, -59}";
},
{
name = top;
position = "{521, 603}";
},
{
name = topleft;
position = "{20, 874}";
},
{
name = topright;
position = "{627, 522}";
}
);
layerId = "BDD3FA2A-F197-48C4-9241-A354346F8EDC";
paths = (
{
closed = 1;
nodes = (
"338 -72 OFFCURVE",
"360 -70 OFFCURVE",
"385 -63 CURVE SMOOTH",
"540 -28 OFFCURVE",
"716 138 OFFCURVE",
"716 348 CURVE SMOOTH",
"716 510 OFFCURVE",
"599 603 OFFCURVE",
"439 602 CURVE SMOOTH",
"262 602 OFFCURVE",
"46 447 OFFCURVE",
"46 260 CURVE SMOOTH",
"46 246 OFFCURVE",
"53 231 OFFCURVE",
"58 231 CURVE SMOOTH",
"61 231 OFFCURVE",
"63 234 OFFCURVE",
"63 242 CURVE SMOOTH",
"72 337 OFFCURVE",
"142 438 OFFCURVE",
"232 501 CURVE SMOOTH",
"290 543 OFFCURVE",
"378 578 OFFCURVE",
"461 578 CURVE SMOOTH",
"586 578 OFFCURVE",
"666 512 OFFCURVE",
"666 379 CURVE SMOOTH",
"666 206 OFFCURVE",
"507 -10 OFFCURVE",
"373 -41 CURVE SMOOTH",
"348 -47 OFFCURVE",
"325 -49 OFFCURVE",
"305 -49 CURVE SMOOTH",
"194 -49 OFFCURVE",
"145 28 OFFCURVE",
"145 122 CURVE SMOOTH",
"145 251 OFFCURVE",
"239 412 OFFCURVE",
"396 449 CURVE SMOOTH",
"402 450 OFFCURVE",
"410 451 OFFCURVE",
"418 451 CURVE SMOOTH",
"431 451 OFFCURVE",
"445 449 OFFCURVE",
"458 444 CURVE SMOOTH",
"464 442 OFFCURVE",
"471 437 OFFCURVE",
"475 437 CURVE SMOOTH",
"478 437 OFFCURVE",
"481 441 OFFCURVE",
"466 455 CURVE SMOOTH",
"446 476 OFFCURVE",
"416 483 OFFCURVE",
"387 483 CURVE SMOOTH",
"370 483 OFFCURVE",
"355 481 OFFCURVE",
"341 478 CURVE SMOOTH",
"176 440 OFFCURVE",
"99 301 OFFCURVE",
"99 173 CURVE SMOOTH",
"99 46 OFFCURVE",
"175 -72 OFFCURVE",
"316 -72 CURVE SMOOTH"
);
}
);
width = 705;
}
);
note = O;
unicode = 004F;
},
{
glyphname = Oslash;
lastChange = "2021-05-31 01:44:34 +0000";
layers = (
{
anchors = (
{
name = bottom;
position = "{307, 0}";
},
{
name = top;
position = "{478, 553}";
}
);
layerId = "BDD3FA2A-F197-48C4-9241-A354346F8EDC";
paths = (
{
closed = 1;
nodes = (
"132 -53 OFFCURVE",
"146 -45 OFFCURVE",
"153 -34 CURVE SMOOTH",
"159 -25 OFFCURVE",
"165 -15 OFFCURVE",
"171 -6 CURVE",
"197 -18 OFFCURVE",
"229 -25 OFFCURVE",
"267 -25 CURVE SMOOTH",
"412 -25 OFFCURVE",
"535 78 OFFCURVE",
"591 206 CURVE SMOOTH",
"609 247 OFFCURVE",
"618 286 OFFCURVE",
"618 324 CURVE SMOOTH",
"618 394 OFFCURVE",
"589 456 OFFCURVE",
"541 504 CURVE SMOOTH",
"540 505 LINE",
"551 518 OFFCURVE",
"561 529 OFFCURVE",
"568 538 CURVE SMOOTH",
"576 546 OFFCURVE",
"568 550 OFFCURVE",
"557 550 CURVE SMOOTH",
"547 550 OFFCURVE",
"535 547 OFFCURVE",
"529 541 CURVE",
"526 539 OFFCURVE",
"520 532 OFFCURVE",
"513 523 CURVE",
"473 545 OFFCURVE",
"425 553 OFFCURVE",
"376 553 CURVE SMOOTH",
"318 553 OFFCURVE",
"261 541 OFFCURVE",
"214 522 CURVE SMOOTH",
"140 491 OFFCURVE",
"61 413 OFFCURVE",
"61 327 CURVE SMOOTH",
"61 318 OFFCURVE",
"62 308 OFFCURVE",
"64 299 CURVE SMOOTH",
"70 277 OFFCURVE",
"83 262 OFFCURVE",
"100 255 CURVE",
"87 221 OFFCURVE",
"80 186 OFFCURVE",
"80 153 CURVE SMOOTH",
"80 95 OFFCURVE",
"101 43 OFFCURVE",
"145 10 CURVE",
"129 -15 OFFCURVE",
"119 -34 OFFCURVE",
"115 -42 CURVE",
"113 -50 OFFCURVE",
"116 -53 OFFCURVE",
"123 -53 CURVE SMOOTH"
);
},
{
closed = 1;
nodes = (
"124 54 OFFCURVE",
"110 93 OFFCURVE",
"110 137 CURVE SMOOTH",
"110 174 OFFCURVE",
"120 214 OFFCURVE",
"136 250 CURVE",
"141 250 OFFCURVE",
"147 251 OFFCURVE",
"152 252 CURVE SMOOTH",
"159 254 OFFCURVE",
"162 256 OFFCURVE",
"162 259 CURVE SMOOTH",
"162 261 OFFCURVE",
"159 262 OFFCURVE",
"152 263 CURVE SMOOTH",
"149 263 OFFCURVE",
"146 263 OFFCURVE",
"143 265 CURVE",
"152 279 OFFCURVE",
"161 295 OFFCURVE",
"172 308 CURVE SMOOTH",
"229 380 OFFCURVE",
"318 432 OFFCURVE",
"397 432 CURVE SMOOTH",
"408 432 OFFCURVE",
"425 430 OFFCURVE",
"436 424 CURVE",
"348 305 OFFCURVE",
"222 129 OFFCURVE",
"158 29 CURVE"
);
},
{
closed = 1;
nodes = (
"221 4 OFFCURVE",
"199 7 OFFCURVE",
"182 13 CURVE",
"279 171 OFFCURVE",
"443 387 OFFCURVE",
"529 492 CURVE",
"533 489 LINE SMOOTH",
"569 462 OFFCURVE",
"587 421 OFFCURVE",
"587 370 CURVE SMOOTH",
"587 330 OFFCURVE",
"576 284 OFFCURVE",
"555 234 CURVE SMOOTH",
"501 108 OFFCURVE",
"367 4 OFFCURVE",
"246 4 CURVE SMOOTH"
);
},
{
closed = 1;
nodes = (
"103 288 OFFCURVE",
"101 299 OFFCURVE",
"100 310 CURVE SMOOTH",
"89 444 OFFCURVE",
"252 532 OFFCURVE",
"391 532 CURVE SMOOTH",
"431 532 OFFCURVE",
"469 525 OFFCURVE",
"500 509 CURVE",
"487 492 OFFCURVE",
"471 470 OFFCURVE",
"450 443 CURVE",
"442 455 OFFCURVE",
"425 463 OFFCURVE",
"406 464 CURVE SMOOTH",
"335 472 OFFCURVE",
"232 427 OFFCURVE",
"181 379 CURVE SMOOTH",
"151 350 OFFCURVE",
"127 316 OFFCURVE",
"112 281 CURVE"
);
}
);
width = 613;
}
);
note = Oslash;
unicode = 00D8;
},
{
glyphname = OE;
lastChange = "2021-05-31 01:44:34 +0000";
layers = (
{
layerId = "BDD3FA2A-F197-48C4-9241-A354346F8EDC";
paths = (
{
closed = 1;
nodes = (
"354 -25 OFFCURVE",
"435 11 OFFCURVE",
"497 70 CURVE",
"505 16 OFFCURVE",
"543 -24 OFFCURVE",
"631 -24 CURVE SMOOTH",
"804 -24 OFFCURVE",
"936 64 OFFCURVE",
"994 136 CURVE",
"996 137 OFFCURVE",
"997 141 OFFCURVE",
"997 143 CURVE SMOOTH",
"997 148 OFFCURVE",
"993 154 OFFCURVE",
"989 154 CURVE SMOOTH",
"988 154 OFFCURVE",
"987 153 OFFCURVE",
"986 152 CURVE SMOOTH",
"913 66 OFFCURVE",
"772 9 OFFCURVE",
"659 9 CURVE SMOOTH",
"574 9 OFFCURVE",
"549 63 OFFCURVE",
"549 124 CURVE SMOOTH",
"549 158 OFFCURVE",
"558 194 OFFCURVE",
"568 223 CURVE",
"675 226 OFFCURVE",
"799 233 OFFCURVE",
"799 246 CURVE SMOOTH",
"799 256 OFFCURVE",
"707 257 OFFCURVE",
"637 257 CURVE SMOOTH",
"616 257 OFFCURVE",
"597 257 OFFCURVE",
"583 257 CURVE",
"612 317 OFFCURVE",
"699 479 OFFCURVE",
"722 493 CURVE SMOOTH",
"755 511 OFFCURVE",
"847 524 OFFCURVE",
"924 528 CURVE",
"889 493 OFFCURVE",
"880 461 OFFCURVE",
"880 426 CURVE SMOOTH",
"880 393 OFFCURVE",
"891 387 OFFCURVE",
"898 387 CURVE SMOOTH",
"902 387 OFFCURVE",
"905 390 OFFCURVE",
"905 393 CURVE SMOOTH",
"905 401 OFFCURVE",
"897 409 OFFCURVE",
"897 418 CURVE SMOOTH",
"897 461 OFFCURVE",
"954 500 OFFCURVE",
"977 521 CURVE SMOOTH",
"982 526 OFFCURVE",
"983 529 OFFCURVE",
"983 533 CURVE SMOOTH",
"983 541 OFFCURVE",
"974 546 OFFCURVE",
"961 546 CURVE SMOOTH",
"957 546 OFFCURVE",
"952 546 OFFCURVE",
"947 544 CURVE",
"914 548 OFFCURVE",
"876 549 OFFCURVE",
"840 549 CURVE SMOOTH",
"743 549 OFFCURVE",
"635 545 OFFCURVE",
"635 508 CURVE SMOOTH",
"635 497 OFFCURVE",
"642 494 OFFCURVE",
"652 494 CURVE SMOOTH",
"657 494 OFFCURVE",
"663 494 OFFCURVE",
"669 494 CURVE SMOOTH",
"674 494 OFFCURVE",
"677 494 OFFCURVE",
"680 490 CURVE",
"664 472 OFFCURVE",
"637 435 OFFCURVE",
"612 392 CURVE",
"584 503 OFFCURVE",
"487 554 OFFCURVE",
"375 554 CURVE SMOOTH",
"249 554 OFFCURVE",
"61 483 OFFCURVE",
"61 328 CURVE SMOOTH",
"61 292 OFFCURVE",
"74 266 OFFCURVE",
"98 255 CURVE",
"86 221 OFFCURVE",
"80 187 OFFCURVE",
"80 154 CURVE SMOOTH",
"80 56 OFFCURVE",
"138 -25 OFFCURVE",
"267 -25 CURVE SMOOTH"
);
},
{
closed = 1;
nodes = (
"147 4 OFFCURVE",
"109 64 OFFCURVE",
"109 137 CURVE SMOOTH",
"109 174 OFFCURVE",
"120 214 OFFCURVE",
"136 249 CURVE",
"152 252 LINE SMOOTH",
"159 254 OFFCURVE",
"163 256 OFFCURVE",
"163 259 CURVE SMOOTH",
"163 265 OFFCURVE",
"149 261 OFFCURVE",
"143 265 CURVE",
"192 356 OFFCURVE",
"303 432 OFFCURVE",
"397 432 CURVE SMOOTH",
"416 432 OFFCURVE",
"452 410 OFFCURVE",
"454 410 CURVE SMOOTH",
"457 410 OFFCURVE",
"458 415 OFFCURVE",
"458 421 CURVE SMOOTH",
"458 450 OFFCURVE",
"421 465 OFFCURVE",
"390 465 CURVE SMOOTH",
"261 465 OFFCURVE",
"153 369 OFFCURVE",
"109 281 CURVE",
"101 291 OFFCURVE",
"98 307 OFFCURVE",
"98 322 CURVE SMOOTH",
"98 449 OFFCURVE",
"256 532 OFFCURVE",
"391 532 CURVE SMOOTH",
"501 532 OFFCURVE",
"586 476 OFFCURVE",
"586 367 CURVE",
"588 336 OFFCURVE",
"545 282 OFFCURVE",
"535 257 CURVE SMOOTH",
"521 221 LINE SMOOTH",
"509 194 OFFCURVE",
"503 167 OFFCURVE",
"498 141 CURVE",
"432 61 OFFCURVE",
"336 4 OFFCURVE",
"246 4 CURVE SMOOTH"
);
}
);
width = 940;
}
);
note = OE;
unicode = 0152;
},
{
glyphname = P;
lastChange = "2021-05-31 01:44:34 +0000";
layers = (
{
layerId = "BDD3FA2A-F197-48C4-9241-A354346F8EDC";
paths = (
{
closed = 1;
nodes = (
"196 -27 OFFCURVE",
"223 23 OFFCURVE",
"238 44 CURVE SMOOTH",
"239 45 OFFCURVE",
"253 60 OFFCURVE",
"253 67 CURVE SMOOTH",
"253 68 OFFCURVE",
"253 69 OFFCURVE",
"252 70 CURVE",
"243 72 OFFCURVE",
"229 53 OFFCURVE",
"215 36 CURVE SMOOTH",
"205 24 OFFCURVE",
"193 17 OFFCURVE",
"185 17 CURVE SMOOTH",
"178 17 OFFCURVE",
"174 21 OFFCURVE",
"174 31 CURVE SMOOTH",
"174 38 OFFCURVE",
"177 48 OFFCURVE",
"182 62 CURVE SMOOTH",
"194 92 OFFCURVE",
"220 146 OFFCURVE",
"252 204 CURVE",
"307 205 OFFCURVE",
"380 211 OFFCURVE",
"442 225 CURVE SMOOTH",
"569 254 OFFCURVE",
"709 317 OFFCURVE",
"718 427 CURVE SMOOTH",
"722 484 OFFCURVE",
"677 543 OFFCURVE",
"601 568 CURVE SMOOTH",
"546 585 OFFCURVE",
"487 593 OFFCURVE",
"429 593 CURVE SMOOTH",
"333 593 OFFCURVE",
"240 573 OFFCURVE",
"178 543 CURVE SMOOTH",
"124 516 OFFCURVE",
"44 463 OFFCURVE",
"33 401 CURVE",
"33 396 OFFCURVE",
"34 386 OFFCURVE",
"34 385 CURVE SMOOTH",
"33 379 OFFCURVE",
"32 374 OFFCURVE",
"32 369 CURVE SMOOTH",
"32 316 OFFCURVE",
"89 284 OFFCURVE",
"118 279 CURVE SMOOTH",
"125 278 OFFCURVE",
"131 280 OFFCURVE",
"131 284 CURVE SMOOTH",
"131 287 OFFCURVE",
"129 290 OFFCURVE",
"124 294 CURVE SMOOTH",
"103 306 OFFCURVE",
"51 318 OFFCURVE",
"58 367 CURVE SMOOTH",
"80 491 OFFCURVE",
"293 549 OFFCURVE",
"463 549 CURVE SMOOTH",
"517 549 OFFCURVE",
"565 544 OFFCURVE",
"603 533 CURVE SMOOTH",
"665 515 OFFCURVE",
"694 480 OFFCURVE",
"694 441 CURVE SMOOTH",
"694 416 OFFCURVE",
"682 389 OFFCURVE",
"659 365 CURVE SMOOTH",
"573 277 OFFCURVE",
"395 226 OFFCURVE",
"261 221 CURVE",
"324 333 OFFCURVE",
"407 455 OFFCURVE",
"465 455 CURVE SMOOTH",
"468 455 OFFCURVE",
"473 452 OFFCURVE",
"476 452 CURVE SMOOTH",
"478 452 OFFCURVE",
"479 453 OFFCURVE",
"479 455 CURVE SMOOTH",
"479 457 OFFCURVE",
"479 459 OFFCURVE",
"478 461 CURVE SMOOTH",
"472 486 OFFCURVE",
"431 495 OFFCURVE",
"420 495 CURVE SMOOTH",
"368 495 OFFCURVE",
"297 409 OFFCURVE",
"292 376 CURVE",
"293 374 OFFCURVE",
"294 371 OFFCURVE",
"294 366 CURVE SMOOTH",
"294 360 OFFCURVE",
"292 351 OFFCURVE",
"284 336 CURVE SMOOTH",
"274 314 OFFCURVE",
"250 271 OFFCURVE",
"223 221 CURVE",
"214 221 OFFCURVE",
"206 222 OFFCURVE",
"196 222 CURVE SMOOTH",
"188 222 OFFCURVE",
"185 220 OFFCURVE",
"185 217 CURVE SMOOTH",
"185 213 OFFCURVE",
"191 207 OFFCURVE",
"197 206 CURVE",
"203 206 OFFCURVE",
"209 205 OFFCURVE",
"215 205 CURVE",
"171 121 OFFCURVE",
"125 24 OFFCURVE",
"130 -13 CURVE SMOOTH",
"131 -21 OFFCURVE",
"164 -27 OFFCURVE",
"169 -27 CURVE SMOOTH"
);
}
);
width = 538;
}
);
note = P;
unicode = 0050;
},
{
glyphname = Thorn;
lastChange = "2021-05-31 01:44:34 +0000";
layers = (
{
layerId = "BDD3FA2A-F197-48C4-9241-A354346F8EDC";
paths = (
{
closed = 1;
nodes = (
"53 -1 OFFCURVE",
"64 2 OFFCURVE",
"69 6 CURVE",
"94 142 OFFCURVE",
"176 316 OFFCURVE",
"249 460 CURVE",
"265 462 OFFCURVE",
"282 463 OFFCURVE",
"300 463 CURVE SMOOTH",
"323 463 OFFCURVE",
"347 461 OFFCURVE",
"370 457 CURVE SMOOTH",
"454 441 OFFCURVE",
"487 405 OFFCURVE",
"487 363 CURVE SMOOTH",
"487 274 OFFCURVE",
"337 160 OFFCURVE",
"204 160 CURVE SMOOTH",
"187 160 OFFCURVE",
"171 161 OFFCURVE",
"160 164 CURVE SMOOTH",
"153 165 OFFCURVE",
"149 161 OFFCURVE",
"149 156 CURVE SMOOTH",
"149 152 OFFCURVE",
"152 148 OFFCURVE",
"159 146 CURVE SMOOTH",
"172 142 OFFCURVE",
"189 140 OFFCURVE",
"209 140 CURVE SMOOTH",
"275 140 OFFCURVE",
"366 164 OFFCURVE",
"413 186 CURVE SMOOTH",
"487 221 OFFCURVE",
"526 280 OFFCURVE",
"526 336 CURVE SMOOTH",
"526 393 OFFCURVE",
"486 447 OFFCURVE",
"403 471 CURVE SMOOTH",
"358 484 OFFCURVE",
"310 489 OFFCURVE",
"263 489 CURVE",
"279 522 OFFCURVE",
"296 552 OFFCURVE",
"310 580 CURVE SMOOTH",
"316 592 OFFCURVE",
"284 606 OFFCURVE",
"266 606 CURVE SMOOTH",
"262 606 OFFCURVE",
"258 605 OFFCURVE",
"256 603 CURVE SMOOTH",
"248 593 OFFCURVE",
"227 548 OFFCURVE",
"201 486 CURVE",
"95 475 OFFCURVE",
"12 435 OFFCURVE",
"12 393 CURVE SMOOTH",
"12 379 OFFCURVE",
"20 384 OFFCURVE",
"25 386 CURVE SMOOTH",
"61 404 OFFCURVE",
"119 432 OFFCURVE",
"185 448 CURVE",
"118 284 OFFCURVE",
"28 45 OFFCURVE",
"30 6 CURVE",
"31 1 OFFCURVE",
"37 -1 OFFCURVE",
"44 -1 CURVE SMOOTH"
);
}
);
width = 453;
}
);
note = Thorn;
unicode = 00DE;
},
{
glyphname = Q;
lastChange = "2021-05-31 01:44:34 +0000";
layers = (
{
layerId = "BDD3FA2A-F197-48C4-9241-A354346F8EDC";
paths = (
{
closed = 1;
nodes = (
"903 -208 OFFCURVE",
"949 -161 OFFCURVE",
"951 -114 CURVE SMOOTH",
"952 -89 OFFCURVE",
"949 -62 OFFCURVE",
"935 -34 CURVE SMOOTH",
"931 -26 OFFCURVE",
"925 -23 OFFCURVE",
"920 -23 CURVE SMOOTH",
"916 -23 OFFCURVE",
"913 -25 OFFCURVE",
"913 -30 CURVE SMOOTH",
"913 -32 OFFCURVE",
"914 -35 OFFCURVE",
"916 -38 CURVE SMOOTH",
"923 -51 OFFCURVE",
"926 -63 OFFCURVE",
"926 -74 CURVE SMOOTH",
"926 -128 OFFCURVE",
"853 -158 OFFCURVE",
"802 -161 CURVE SMOOTH",
"792 -162 OFFCURVE",
"782 -162 OFFCURVE",
"772 -162 CURVE SMOOTH",
"642 -162 OFFCURVE",
"526 -85 OFFCURVE",
"426 -21 CURVE",
"591 40 OFFCURVE",
"725 239 OFFCURVE",
"733 407 CURVE SMOOTH",
"739 505 OFFCURVE",
"703 586 OFFCURVE",
"607 601 CURVE SMOOTH",
"596 602 OFFCURVE",
"586 597 OFFCURVE",
"586 592 CURVE SMOOTH",
"586 588 OFFCURVE",
"590 585 OFFCURVE",
"602 584 CURVE SMOOTH",
"671 578 OFFCURVE",
"699 517 OFFCURVE",
"699 441 CURVE SMOOTH",
"699 409 OFFCURVE",
"694 374 OFFCURVE",
"685 339 CURVE SMOOTH",
"648 188 OFFCURVE",
"538 42 OFFCURVE",
"397 -2 CURVE",
"379 9 OFFCURVE",
"361 20 OFFCURVE",
"344 30 CURVE SMOOTH",
"339 33 OFFCURVE",
"323 38 OFFCURVE",
"317 41 CURVE",
"404 56 OFFCURVE",
"497 104 OFFCURVE",
"564 209 CURVE SMOOTH",
"605 272 OFFCURVE",
"625 343 OFFCURVE",
"625 408 CURVE SMOOTH",
"625 519 OFFCURVE",
"565 611 OFFCURVE",
"441 611 CURVE SMOOTH",
"421 611 OFFCURVE",
"399 608 OFFCURVE",
"376 603 CURVE SMOOTH",
"222 568 OFFCURVE",
"45 408 OFFCURVE",
"45 205 CURVE SMOOTH",
"45 50 OFFCURVE",
"162 -40 OFFCURVE",
"320 -40 CURVE SMOOTH",
"349 -40 OFFCURVE",
"375 -36 OFFCURVE",
"403 -29 CURVE",
"510 -103 OFFCURVE",
"634 -215 OFFCURVE",
"796 -215 CURVE SMOOTH",
"805 -215 OFFCURVE",
"815 -215 OFFCURVE",
"824 -214 CURVE SMOOTH"
);
},
{
closed = 1;
nodes = (
"315 -17 OFFCURVE",
"306 -17 OFFCURVE",
"296 -17 CURVE SMOOTH",
"174 -17 OFFCURVE",
"95 50 OFFCURVE",
"95 176 CURVE SMOOTH",
"95 342 OFFCURVE",
"254 550 OFFCURVE",
"390 582 CURVE SMOOTH",
"413 587 OFFCURVE",
"434 590 OFFCURVE",
"452 590 CURVE SMOOTH",
"547 590 OFFCURVE",
"587 527 OFFCURVE",
"587 445 CURVE SMOOTH",
"587 305 OFFCURVE",
"471 109 OFFCURVE",
"307 61 CURVE",
"277 61 OFFCURVE",
"244 68 OFFCURVE",
"233 68 CURVE SMOOTH",
"215 66 OFFCURVE",
"206 54 OFFCURVE",
"206 43 CURVE SMOOTH",
"206 32 OFFCURVE",
"214 20 OFFCURVE",
"231 18 CURVE SMOOTH",
"248 17 OFFCURVE",
"282 28 OFFCURVE",
"297 32 CURVE",
"322 23 OFFCURVE",
"348 9 OFFCURVE",
"374 -9 CURVE",
"358 -12 OFFCURVE",
"342 -15 OFFCURVE",
"325 -16 CURVE SMOOTH"
);
}
);
width = 669;
}
);
note = Q;
unicode = 0051;
},
{
glyphname = R;
lastChange = "2021-05-31 01:44:34 +0000";
layers = (
{
anchors = (
{
name = bottom;
position = "{297, -48}";
},
{
name = top;
position = "{516, 591}";
}
);
layerId = "BDD3FA2A-F197-48C4-9241-A354346F8EDC";
paths = (
{
closed = 1;
nodes = (
"780 -182 OFFCURVE",
"834 -154 OFFCURVE",
"846 -116 CURVE SMOOTH",
"851 -101 OFFCURVE",
"855 -84 OFFCURVE",
"855 -64 CURVE SMOOTH",
"855 -55 OFFCURVE",
"854 -46 OFFCURVE",
"852 -36 CURVE SMOOTH",
"850 -27 OFFCURVE",
"844 -21 OFFCURVE",
"839 -21 CURVE SMOOTH",
"836 -21 OFFCURVE",
"832 -24 OFFCURVE",
"832 -30 CURVE SMOOTH",
"832 -32 OFFCURVE",
"833 -33 OFFCURVE",
"833 -35 CURVE SMOOTH",
"834 -42 OFFCURVE",
"835 -48 OFFCURVE",
"835 -55 CURVE SMOOTH",
"835 -111 OFFCURVE",
"776 -133 OFFCURVE",
"724 -133 CURVE SMOOTH",
"713 -133 OFFCURVE",
"703 -132 OFFCURVE",
"693 -130 CURVE SMOOTH",
"498 -94 OFFCURVE",
"393 64 OFFCURVE",
"279 205 CURVE",
"329 208 OFFCURVE",
"390 214 OFFCURVE",
"442 225 CURVE SMOOTH",
"569 254 OFFCURVE",
"709 317 OFFCURVE",
"718 427 CURVE SMOOTH",
"722 484 OFFCURVE",
"677 543 OFFCURVE",
"601 568 CURVE SMOOTH",
"546 585 OFFCURVE",
"487 593 OFFCURVE",
"429 593 CURVE SMOOTH",
"333 593 OFFCURVE",
"240 573 OFFCURVE",
"178 543 CURVE SMOOTH",
"124 516 OFFCURVE",
"44 463 OFFCURVE",
"33 401 CURVE",
"33 396 OFFCURVE",
"34 386 OFFCURVE",
"34 385 CURVE SMOOTH",
"33 379 OFFCURVE",
"32 374 OFFCURVE",
"32 369 CURVE SMOOTH",
"32 316 OFFCURVE",
"89 284 OFFCURVE",
"118 279 CURVE SMOOTH",
"125 278 OFFCURVE",
"131 280 OFFCURVE",
"131 284 CURVE SMOOTH",
"131 287 OFFCURVE",
"129 290 OFFCURVE",
"124 294 CURVE SMOOTH",
"103 306 OFFCURVE",
"51 318 OFFCURVE",
"58 367 CURVE SMOOTH",
"80 491 OFFCURVE",
"293 549 OFFCURVE",
"463 549 CURVE SMOOTH",
"517 549 OFFCURVE",
"565 544 OFFCURVE",
"603 533 CURVE SMOOTH",
"665 515 OFFCURVE",
"694 480 OFFCURVE",
"694 441 CURVE SMOOTH",
"694 416 OFFCURVE",
"682 389 OFFCURVE",
"659 365 CURVE SMOOTH",
"583 287 OFFCURVE",
"435 238 OFFCURVE",
"308 225 CURVE SMOOTH",
"303 224 OFFCURVE",
"298 224 OFFCURVE",
"293 224 CURVE SMOOTH",
"281 224 OFFCURVE",
"272 226 OFFCURVE",
"266 228 CURVE",
"328 339 OFFCURVE",
"408 455 OFFCURVE",
"465 455 CURVE SMOOTH",
"468 455 OFFCURVE",
"473 452 OFFCURVE",
"476 452 CURVE SMOOTH",
"477 452 OFFCURVE",
"478 453 OFFCURVE",
"478 455 CURVE SMOOTH",
"478 456 OFFCURVE",
"478 458 OFFCURVE",
"477 461 CURVE SMOOTH",
"471 486 OFFCURVE",
"431 495 OFFCURVE",
"420 495 CURVE SMOOTH",
"368 495 OFFCURVE",
"297 409 OFFCURVE",
"292 376 CURVE",
"293 374 OFFCURVE",
"294 371 OFFCURVE",
"294 366 CURVE SMOOTH",
"294 360 OFFCURVE",
"292 351 OFFCURVE",
"284 336 CURVE SMOOTH",
"276 317 OFFCURVE",
"256 282 OFFCURVE",
"234 242 CURVE",
"228 248 OFFCURVE",
"217 251 OFFCURVE",
"211 251 CURVE SMOOTH",
"189 251 OFFCURVE",
"179 238 OFFCURVE",
"179 225 CURVE SMOOTH",
"179 218 OFFCURVE",
"182 211 OFFCURVE",
"189 206 CURVE SMOOTH",
"193 204 OFFCURVE",
"203 201 OFFCURVE",
"212 199 CURVE",
"170 118 OFFCURVE",
"125 24 OFFCURVE",
"130 -13 CURVE SMOOTH",
"131 -21 OFFCURVE",
"164 -27 OFFCURVE",
"169 -27 CURVE SMOOTH",
"196 -27 OFFCURVE",
"223 23 OFFCURVE",
"238 44 CURVE SMOOTH",
"239 45 OFFCURVE",
"253 60 OFFCURVE",
"253 67 CURVE SMOOTH",
"253 68 OFFCURVE",
"253 69 OFFCURVE",
"252 70 CURVE",
"243 72 OFFCURVE",
"229 53 OFFCURVE",
"215 36 CURVE SMOOTH",
"205 24 OFFCURVE",
"193 17 OFFCURVE",
"185 17 CURVE SMOOTH",
"178 17 OFFCURVE",
"174 21 OFFCURVE",
"174 31 CURVE SMOOTH",
"174 38 OFFCURVE",
"177 48 OFFCURVE",
"182 62 CURVE SMOOTH",
"194 91 OFFCURVE",
"220 143 OFFCURVE",
"250 199 CURVE",
"250 199 OFFCURVE",
"254 204 OFFCURVE",
"257 198 CURVE",
"341 89 OFFCURVE",
"449 -135 OFFCURVE",
"676 -178 CURVE SMOOTH",
"690 -181 OFFCURVE",
"704 -182 OFFCURVE",
"717 -182 CURVE SMOOTH"
);
}
);
width = 538;
}
);
note = R;
unicode = 0052;
},
{
glyphname = S;
lastChange = "2021-05-31 01:44:34 +0000";
layers = (
{
anchors = (
{
name = bottom;
position = "{165, -20}";
},
{
name = top;
position = "{476, 594}";
}
);
layerId = "BDD3FA2A-F197-48C4-9241-A354346F8EDC";
paths = (
{
closed = 1;
nodes = (
"279 -34 OFFCURVE",
"450 32 OFFCURVE",
"545 123 CURVE SMOOTH",
"575 152 OFFCURVE",
"591 181 OFFCURVE",
"591 209 CURVE SMOOTH",
"591 313 OFFCURVE",
"396 357 OFFCURVE",
"300 402 CURVE SMOOTH",
"274 414 OFFCURVE",
"261 427 OFFCURVE",
"261 440 CURVE SMOOTH",
"261 459 OFFCURVE",
"285 480 OFFCURVE",
"330 505 CURVE SMOOTH",
"403 545 OFFCURVE",
"497 560 OFFCURVE",
"533 560 CURVE SMOOTH",
"583 560 OFFCURVE",
"618 545 OFFCURVE",
"618 517 CURVE SMOOTH",
"618 489 OFFCURVE",
"574 458 OFFCURVE",
"574 453 CURVE SMOOTH",
"574 448 OFFCURVE",
"576 446 OFFCURVE",
"580 446 CURVE SMOOTH",
"591 446 OFFCURVE",
"615 468 OFFCURVE",
"626 488 CURVE SMOOTH",
"639 509 OFFCURVE",
"644 522 OFFCURVE",
"644 539 CURVE SMOOTH",
"644 577 OFFCURVE",
"608 594 OFFCURVE",
"534 594 CURVE SMOOTH",
"447 594 OFFCURVE",
"214 535 OFFCURVE",
"214 426 CURVE SMOOTH",
"214 311 OFFCURVE",
"558 306 OFFCURVE",
"558 196 CURVE SMOOTH",
"558 183 OFFCURVE",
"554 168 OFFCURVE",
"543 152 CURVE SMOOTH",
"515 107 OFFCURVE",
"430 64 OFFCURVE",
"357 41 CURVE SMOOTH",
"327 32 OFFCURVE",
"249 12 OFFCURVE",
"181 12 CURVE SMOOTH",
"104 12 OFFCURVE",
"65 42 OFFCURVE",
"65 84 CURVE SMOOTH",
"65 112 OFFCURVE",
"83 146 OFFCURVE",
"119 178 CURVE SMOOTH",
"164 220 OFFCURVE",
"228 246 OFFCURVE",
"277 246 CURVE SMOOTH",
"290 246 OFFCURVE",
"298 251 OFFCURVE",
"298 255 CURVE SMOOTH",
"298 258 OFFCURVE",
"292 261 OFFCURVE",
"278 261 CURVE SMOOTH",
"174 261 OFFCURVE",
"13 174 OFFCURVE",
"13 56 CURVE SMOOTH",
"13 -2 OFFCURVE",
"69 -34 OFFCURVE",
"163 -34 CURVE SMOOTH"
);
}
);
width = 591;
}
);
note = S;
unicode = 0053;
},
{
glyphname = Schwa;
lastChange = "2021-05-31 01:44:34 +0000";
layers = (
{
layerId = "BDD3FA2A-F197-48C4-9241-A354346F8EDC";
paths = (
{
closed = 1;
nodes = (
"158 -29 OFFCURVE",
"175 -32 OFFCURVE",
"192 -32 CURVE SMOOTH",
"360 -32 OFFCURVE",
"588 192 OFFCURVE",
"640 310 CURVE SMOOTH",
"660 356 OFFCURVE",
"669 396 OFFCURVE",
"669 431 CURVE SMOOTH",
"669 535 OFFCURVE",
"590 591 OFFCURVE",
"480 591 CURVE SMOOTH",
"283 591 OFFCURVE",
"132 450 OFFCURVE",
"82 377 CURVE SMOOTH",
"77 369 OFFCURVE",
"82 360 OFFCURVE",
"87 360 CURVE SMOOTH",
"89 360 OFFCURVE",
"90 361 OFFCURVE",
"92 363 CURVE SMOOTH",
"187 470 OFFCURVE",
"317 569 OFFCURVE",
"488 569 CURVE SMOOTH",
"568 569 OFFCURVE",
"606 531 OFFCURVE",
"606 467 CURVE SMOOTH",
"606 446 OFFCURVE",
"602 421 OFFCURVE",
"593 394 CURVE SMOOTH",
"545 248 OFFCURVE",
"371 63 OFFCURVE",
"240 26 CURVE SMOOTH",
"224 21 OFFCURVE",
"191 6 OFFCURVE",
"164 6 CURVE SMOOTH",
"139 6 OFFCURVE",
"118 18 OFFCURVE",
"118 60 CURVE SMOOTH",
"118 164 OFFCURVE",
"391 321 OFFCURVE",
"524 321 CURVE SMOOTH",
"536 321 OFFCURVE",
"551 327 OFFCURVE",
"551 332 CURVE SMOOTH",
"551 335 OFFCURVE",
"546 337 OFFCURVE",
"533 337 CURVE SMOOTH",
"370 337 OFFCURVE",
"182 257 OFFCURVE",
"112 152 CURVE SMOOTH",
"95 129 OFFCURVE",
"84 95 OFFCURVE",
"84 63 CURVE SMOOTH",
"84 25 OFFCURVE",
"100 -10 OFFCURVE",
"142 -24 CURVE SMOOTH"
);
}
);
width = 666;
}
);
unicode = 018F;
},
{
glyphname = T;
lastChange = "2021-05-31 01:44:34 +0000";
layers = (
{
anchors = (
{
name = bottom;
position = "{189, -27}";
},
{
name = center;
position = "{280, 288}";
},
{
name = top;
position = "{512, 570}";
}
);
layerId = "BDD3FA2A-F197-48C4-9241-A354346F8EDC";
paths = (
{
closed = 1;
nodes = (
"98 291 OFFCURVE",
"105 293 OFFCURVE",
"105 298 CURVE SMOOTH",
"105 300 OFFCURVE",
"103 303 OFFCURVE",
"98 306 CURVE SMOOTH",
"81 320 OFFCURVE",
"37 336 OFFCURVE",
"37 375 CURVE SMOOTH",
"37 379 OFFCURVE",
"38 383 OFFCURVE",
"39 388 CURVE SMOOTH",
"66 515 OFFCURVE",
"270 546 OFFCURVE",
"383 546 CURVE SMOOTH",
"479 546 OFFCURVE",
"579 532 OFFCURVE",
"675 531 CURVE",
"669 524 OFFCURVE",
"657 509 OFFCURVE",
"652 500 CURVE SMOOTH",
"639 475 OFFCURVE",
"634 441 OFFCURVE",
"634 415 CURVE SMOOTH",
"634 395 OFFCURVE",
"637 378 OFFCURVE",
"642 372 CURVE SMOOTH",
"648 366 OFFCURVE",
"653 364 OFFCURVE",
"657 364 CURVE SMOOTH",
"661 364 OFFCURVE",
"665 368 OFFCURVE",
"665 372 CURVE SMOOTH",
"665 373 OFFCURVE",
"664 375 OFFCURVE",
"663 376 CURVE SMOOTH",
"657 385 OFFCURVE",
"655 395 OFFCURVE",
"655 405 CURVE SMOOTH",
"655 436 OFFCURVE",
"680 471 OFFCURVE",
"707 498 CURVE SMOOTH",
"726 518 OFFCURVE",
"748 531 OFFCURVE",
"758 540 CURVE SMOOTH",
"764 546 OFFCURVE",
"766 552 OFFCURVE",
"766 557 CURVE SMOOTH",
"766 570 OFFCURVE",
"752 578 OFFCURVE",
"737 578 CURVE SMOOTH",
"734 578 OFFCURVE",
"731 578 OFFCURVE",
"728 577 CURVE SMOOTH",
"719 575 OFFCURVE",
"707 566 OFFCURVE",
"687 545 CURVE",
"621 546 OFFCURVE",
"473 581 OFFCURVE",
"333 581 CURVE SMOOTH",
"317 581 OFFCURVE",
"301 581 OFFCURVE",
"285 580 CURVE SMOOTH",
"158 572 OFFCURVE",
"36 524 OFFCURVE",
"15 425 CURVE",
"13 419 OFFCURVE",
"13 409 OFFCURVE",
"13 408 CURVE",
"10 400 OFFCURVE",
"9 393 OFFCURVE",
"9 386 CURVE SMOOTH",
"9 338 OFFCURVE",
"60 302 OFFCURVE",
"90 294 CURVE SMOOTH"
);
},
{
closed = 1;
nodes = (
"217 -27 OFFCURVE",
"243 23 OFFCURVE",
"260 44 CURVE SMOOTH",
"261 45 OFFCURVE",
"273 59 OFFCURVE",
"273 67 CURVE SMOOTH",
"273 68 OFFCURVE",
"273 69 OFFCURVE",
"272 70 CURVE",
"263 72 OFFCURVE",
"250 53 OFFCURVE",
"236 36 CURVE SMOOTH",
"226 25 OFFCURVE",
"215 17 OFFCURVE",
"206 17 CURVE SMOOTH",
"200 17 OFFCURVE",
"196 21 OFFCURVE",
"196 31 CURVE SMOOTH",
"196 38 OFFCURVE",
"198 48 OFFCURVE",
"204 62 CURVE SMOOTH",
"242 154 OFFCURVE",
"395 455 OFFCURVE",
"487 455 CURVE SMOOTH",
"490 455 OFFCURVE",
"495 453 OFFCURVE",
"499 450 CURVE",
"503 482 OFFCURVE",
"453 495 OFFCURVE",
"441 495 CURVE SMOOTH",
"388 495 OFFCURVE",
"318 409 OFFCURVE",
"312 376 CURVE",
"313 373 OFFCURVE",
"314 370 OFFCURVE",
"314 364 CURVE SMOOTH",
"314 358 OFFCURVE",
"312 349 OFFCURVE",
"306 336 CURVE SMOOTH",
"277 277 OFFCURVE",
"142 50 OFFCURVE",
"151 -13 CURVE SMOOTH",
"152 -21 OFFCURVE",
"183 -27 OFFCURVE",
"189 -27 CURVE SMOOTH"
);
}
);
width = 336;
}
);
note = T;
unicode = 0054;
},
{
glyphname = U;
lastChange = "2021-06-01 21:48:43 +0000";
layers = (
{
anchors = (
{
name = bottom;
position = "{167, -14}";
},
{
name = ogonek;
position = "{406, -129}";
},
{
name = top;
position = "{445, 571}";
},
{
name = topright;
position = "{621, 597}";
}
);
layerId = "BDD3FA2A-F197-48C4-9241-A354346F8EDC";
paths = (
{
closed = 1;
nodes = (
"473 -188 OFFCURVE",
"501 -181 OFFCURVE",
"511 -169 CURVE SMOOTH",
"518 -163 OFFCURVE",
"522 -154 OFFCURVE",
"524 -149 CURVE SMOOTH",
"526 -141 OFFCURVE",
"525 -136 OFFCURVE",
"520 -136 CURVE SMOOTH",
"518 -136 OFFCURVE",
"514 -138 OFFCURVE",
"510 -142 CURVE SMOOTH",
"505 -147 OFFCURVE",
"501 -152 OFFCURVE",
"498 -158 CURVE SMOOTH",
"492 -165 OFFCURVE",
"485 -168 OFFCURVE",
"477 -168 CURVE SMOOTH",
"468 -168 OFFCURVE",
"457 -163 OFFCURVE",
"449 -153 CURVE SMOOTH",
"428 -127 OFFCURVE",
"416 -80 OFFCURVE",
"416 -15 CURVE SMOOTH",
"416 32 OFFCURVE",
"424 116 OFFCURVE",
"435 171 CURVE",
"506 265 OFFCURVE",
"631 388 OFFCURVE",
"666 505 CURVE SMOOTH",
"670 518 OFFCURVE",
"672 531 OFFCURVE",
"672 543 CURVE SMOOTH",
"672 575 OFFCURVE",
"657 602 OFFCURVE",
"612 606 CURVE SMOOTH",
"551 609 OFFCURVE",
"508 564 OFFCURVE",
"476 495 CURVE SMOOTH",
"443 430 OFFCURVE",
"408 299 OFFCURVE",
"388 170 CURVE",
"321 103 OFFCURVE",
"217 15 OFFCURVE",
"147 15 CURVE SMOOTH",
"119 15 OFFCURVE",
"98 35 OFFCURVE",
"98 88 CURVE SMOOTH",
"98 102 OFFCURVE",
"99 117 OFFCURVE",
"102 135 CURVE SMOOTH",
"127 272 OFFCURVE",
"274 511 OFFCURVE",
"297 548 CURVE",
"300 557 OFFCURVE",
"286 561 OFFCURVE",
"272 561 CURVE SMOOTH",
"256 561 OFFCURVE",
"236 555 OFFCURVE",
"233 548 CURVE SMOOTH",
"216 516 OFFCURVE",
"81 396 OFFCURVE",
"24 390 CURVE SMOOTH",
"16 389 OFFCURVE",
"11 384 OFFCURVE",
"11 379 CURVE SMOOTH",
"11 376 OFFCURVE",
"14 373 OFFCURVE",
"20 373 CURVE SMOOTH",
"20 373 OFFCURVE",
"21 373 OFFCURVE",
"21 373 CURVE SMOOTH",
"62 376 OFFCURVE",
"113 406 OFFCURVE",
"158 443 CURVE SMOOTH",
"169 452 OFFCURVE",
"176 456 OFFCURVE",
"180 456 CURVE SMOOTH",
"182 456 OFFCURVE",
"183 455 OFFCURVE",
"183 452 CURVE SMOOTH",
"183 450 OFFCURVE",
"183 447 OFFCURVE",
"181 443 CURVE SMOOTH",
"137 335 OFFCURVE",
"43 188 OFFCURVE",
"43 72 CURVE SMOOTH",
"43 63 OFFCURVE",
"44 54 OFFCURVE",
"45 45 CURVE SMOOTH",
"51 -2 OFFCURVE",
"80 -20 OFFCURVE",
"114 -20 CURVE SMOOTH",
"209 -20 OFFCURVE",
"307 60 OFFCURVE",
"384 134 CURVE",
"375 77 OFFCURVE",
"369 22 OFFCURVE",
"369 -25 CURVE SMOOTH",
"369 -49 OFFCURVE",
"371 -71 OFFCURVE",
"374 -91 CURVE SMOOTH",
"382 -146 OFFCURVE",
"404 -188 OFFCURVE",
"452 -188 CURVE SMOOTH"
);
},
{
closed = 1;
nodes = (
"476 363 OFFCURVE",
"510 475 OFFCURVE",
"584 557 CURVE SMOOTH",
"599 573 OFFCURVE",
"612 580 OFFCURVE",
"621 580 CURVE SMOOTH",
"633 580 OFFCURVE",
"639 569 OFFCURVE",
"639 551 CURVE SMOOTH",
"639 543 OFFCURVE",
"637 533 OFFCURVE",
"635 522 CURVE SMOOTH",
"609 426 OFFCURVE",
"521 301 OFFCURVE",
"450 234 CURVE"
);
}
);
width = 526;
}
);
note = U;
unicode = 0055;
},
{
glyphname = V;
lastChange = "2021-05-31 01:44:34 +0000";
layers = (
{
layerId = "BDD3FA2A-F197-48C4-9241-A354346F8EDC";
paths = (
{
closed = 1;
nodes = (
"267 -58 OFFCURVE",
"324 -30 OFFCURVE",
"381 15 CURVE SMOOTH",
"455 74 OFFCURVE",
"529 160 OFFCURVE",
"597 248 CURVE SMOOTH",
"728 415 OFFCURVE",
"836 586 OFFCURVE",
"894 586 CURVE SMOOTH",
"896 586 OFFCURVE",
"901 585 OFFCURVE",
"905 585 CURVE SMOOTH",
"907 585 OFFCURVE",
"914 591 OFFCURVE",
"905 596 CURVE SMOOTH",
"895 603 OFFCURVE",
"883 605 OFFCURVE",
"872 605 CURVE SMOOTH",
"821 605 OFFCURVE",
"766 562 OFFCURVE",
"742 531 CURVE SMOOTH",
"677 453 OFFCURVE",
"631 365 OFFCURVE",
"577 278 CURVE SMOOTH",
"517 183 OFFCURVE",
"458 106 OFFCURVE",
"367 38 CURVE SMOOTH",
"317 0 OFFCURVE",
"261 -33 OFFCURVE",
"224 -33 CURVE SMOOTH",
"200 -33 OFFCURVE",
"184 -18 OFFCURVE",
"184 18 CURVE SMOOTH",
"184 23 OFFCURVE",
"184 28 OFFCURVE",
"185 34 CURVE SMOOTH",
"193 119 OFFCURVE",
"238 225 OFFCURVE",
"279 321 CURVE SMOOTH",
"311 393 OFFCURVE",
"332 478 OFFCURVE",
"335 535 CURVE",
"370 534 OFFCURVE",
"402 529 OFFCURVE",
"424 522 CURVE SMOOTH",
"435 518 OFFCURVE",
"443 517 OFFCURVE",
"448 517 CURVE SMOOTH",
"453 517 OFFCURVE",
"456 519 OFFCURVE",
"456 522 CURVE SMOOTH",
"456 530 OFFCURVE",
"438 546 OFFCURVE",
"428 550 CURVE SMOOTH",
"404 562 OFFCURVE",
"370 571 OFFCURVE",
"333 575 CURVE",
"332 580 OFFCURVE",
"330 585 OFFCURVE",
"328 589 CURVE SMOOTH",
"322 599 OFFCURVE",
"314 604 OFFCURVE",
"309 604 CURVE SMOOTH",
"304 604 OFFCURVE",
"300 600 OFFCURVE",
"300 596 CURVE SMOOTH",
"300 594 OFFCURVE",
"301 592 OFFCURVE",
"302 590 CURVE SMOOTH",
"305 586 OFFCURVE",
"306 583 OFFCURVE",
"307 578 CURVE",
"295 579 OFFCURVE",
"283 579 OFFCURVE",
"271 579 CURVE SMOOTH",
"149 579 OFFCURVE",
"15 541 OFFCURVE",
"20 441 CURVE SMOOTH",
"20 437 OFFCURVE",
"24 430 OFFCURVE",
"24 428 CURVE SMOOTH",
"25 377 OFFCURVE",
"91 344 OFFCURVE",
"108 344 CURVE SMOOTH",
"110 344 OFFCURVE",
"112 345 OFFCURVE",
"112 346 CURVE SMOOTH",
"112 348 OFFCURVE",
"109 351 OFFCURVE",
"104 354 CURVE SMOOTH",
"88 364 OFFCURVE",
"45 377 OFFCURVE",
"45 418 CURVE SMOOTH",
"45 501 OFFCURVE",
"188 534 OFFCURVE",
"305 535 CURVE",
"294 482 OFFCURVE",
"260 402 OFFCURVE",
"231 333 CURVE SMOOTH",
"197 252 OFFCURVE",
"158 165 OFFCURVE",
"130 86 CURVE SMOOTH",
"121 61 OFFCURVE",
"116 37 OFFCURVE",
"116 16 CURVE SMOOTH",
"116 -28 OFFCURVE",
"140 -58 OFFCURVE",
"211 -58 CURVE SMOOTH"
);
}
);
width = 613;
}
);
note = V;
unicode = 0056;
},
{
glyphname = W;
lastChange = "2021-05-31 01:44:34 +0000";
layers = (
{
anchors = (
{
name = bottom;
position = "{477, -41}";
},
{
name = top;
position = "{623, 575}";
}
);
layerId = "BDD3FA2A-F197-48C4-9241-A354346F8EDC";
paths = (
{
closed = 1;
nodes = (
"165 -79 OFFCURVE",
"233 -44 OFFCURVE",
"301 4 CURVE SMOOTH",
"388 68 OFFCURVE",
"499 172 OFFCURVE",
"563 252 CURVE",
"552 96 OFFCURVE",
"643 -29 OFFCURVE",
"748 -29 CURVE SMOOTH",
"885 -29 OFFCURVE",
"987 179 OFFCURVE",
"987 348 CURVE SMOOTH",
"987 429 OFFCURVE",
"964 502 OFFCURVE",
"909 537 CURVE SMOOTH",
"889 550 OFFCURVE",
"864 558 OFFCURVE",
"838 558 CURVE SMOOTH",
"803 558 OFFCURVE",
"766 545 OFFCURVE",
"730 520 CURVE SMOOTH",
"727 518 OFFCURVE",
"726 515 OFFCURVE",
"726 513 CURVE SMOOTH",
"726 508 OFFCURVE",
"731 503 OFFCURVE",
"738 503 CURVE SMOOTH",
"740 503 OFFCURVE",
"743 504 OFFCURVE",
"745 505 CURVE SMOOTH",
"759 516 OFFCURVE",
"773 521 OFFCURVE",
"789 523 CURVE SMOOTH",
"795 524 OFFCURVE",
"801 524 OFFCURVE",
"807 524 CURVE SMOOTH",
"840 524 OFFCURVE",
"868 512 OFFCURVE",
"889 490 CURVE SMOOTH",
"928 449 OFFCURVE",
"945 382 OFFCURVE",
"945 311 CURVE SMOOTH",
"945 169 OFFCURVE",
"877 11 OFFCURVE",
"777 9 CURVE SMOOTH",
"687 6 OFFCURVE",
"609 154 OFFCURVE",
"612 310 CURVE",
"636 359 OFFCURVE",
"641 414 OFFCURVE",
"641 453 CURVE SMOOTH",
"641 493 OFFCURVE",
"633 507 OFFCURVE",
"621 507 CURVE SMOOTH",
"602 507 OFFCURVE",
"573 466 OFFCURVE",
"571 450 CURVE SMOOTH",
"566 424 OFFCURVE",
"564 389 OFFCURVE",
"564 357 CURVE SMOOTH",
"564 337 OFFCURVE",
"565 319 OFFCURVE",
"566 303 CURVE",
"488 194 OFFCURVE",
"387 94 OFFCURVE",
"276 17 CURVE SMOOTH",
"215 -24 OFFCURVE",
"151 -56 OFFCURVE",
"115 -56 CURVE SMOOTH",
"95 -56 OFFCURVE",
"84 -47 OFFCURVE",
"84 -24 CURVE SMOOTH",
"84 -13 OFFCURVE",
"86 1 OFFCURVE",
"92 18 CURVE SMOOTH",
"123 107 OFFCURVE",
"196 217 OFFCURVE",
"263 317 CURVE SMOOTH",
"312 390 OFFCURVE",
"358 475 OFFCURVE",
"380 532 CURVE",
"396 529 OFFCURVE",
"410 526 OFFCURVE",
"424 522 CURVE SMOOTH",
"435 518 OFFCURVE",
"443 517 OFFCURVE",
"448 517 CURVE SMOOTH",
"453 517 OFFCURVE",
"456 519 OFFCURVE",
"456 522 CURVE SMOOTH",
"456 530 OFFCURVE",
"438 546 OFFCURVE",
"428 550 CURVE SMOOTH",
"416 555 OFFCURVE",
"404 561 OFFCURVE",
"388 566 CURVE",
"390 572 OFFCURVE",
"391 578 OFFCURVE",
"391 583 CURVE SMOOTH",
"391 585 OFFCURVE",
"391 588 OFFCURVE",
"390 590 CURVE SMOOTH",
"386 602 OFFCURVE",
"377 606 OFFCURVE",
"371 606 CURVE SMOOTH",
"366 606 OFFCURVE",
"362 603 OFFCURVE",
"362 598 CURVE SMOOTH",
"362 596 OFFCURVE",
"362 595 OFFCURVE",
"363 593 CURVE SMOOTH",
"364 591 OFFCURVE",
"365 587 OFFCURVE",
"365 584 CURVE SMOOTH",
"365 580 OFFCURVE",
"364 576 OFFCURVE",
"363 571 CURVE",
"335 576 OFFCURVE",
"302 579 OFFCURVE",
"268 579 CURVE SMOOTH",
"147 579 OFFCURVE",
"15 541 OFFCURVE",
"20 441 CURVE SMOOTH",
"20 437 OFFCURVE",
"24 430 OFFCURVE",
"24 428 CURVE SMOOTH",
"25 377 OFFCURVE",
"91 344 OFFCURVE",
"108 344 CURVE SMOOTH",
"110 344 OFFCURVE",
"112 345 OFFCURVE",
"112 346 CURVE SMOOTH",
"112 348 OFFCURVE",
"109 351 OFFCURVE",
"104 354 CURVE SMOOTH",
"89 364 OFFCURVE",
"45 377 OFFCURVE",
"45 417 CURVE SMOOTH",
"45 502 OFFCURVE",
"191 535 OFFCURVE",
"307 535 CURVE SMOOTH",
"321 535 OFFCURVE",
"335 535 OFFCURVE",
"348 534 CURVE",
"321 479 OFFCURVE",
"262 398 OFFCURVE",
"216 329 CURVE SMOOTH",
"159 244 OFFCURVE",
"96 154 OFFCURVE",
"49 74 CURVE SMOOTH",
"28 38 OFFCURVE",
"13 4 OFFCURVE",
"13 -23 CURVE SMOOTH",
"13 -56 OFFCURVE",
"35 -79 OFFCURVE",
"93 -79 CURVE SMOOTH"
);
}
);
width = 975;
}
);
note = W;
unicode = 0057;
},
{
glyphname = X;
lastChange = "2021-05-31 01:44:34 +0000";
layers = (
{
layerId = "BDD3FA2A-F197-48C4-9241-A354346F8EDC";
paths = (
{
closed = 1;
nodes = (
"84 -144 OFFCURVE",
"281 52 OFFCURVE",
"385 165 CURVE",
"405 105 OFFCURVE",
"466 -13 OFFCURVE",
"540 -13 CURVE SMOOTH",
"565 -13 OFFCURVE",
"592 -2 OFFCURVE",
"625 23 CURVE SMOOTH",
"671 56 OFFCURVE",
"732 129 OFFCURVE",
"744 152 CURVE SMOOTH",
"747 159 OFFCURVE",
"743 163 OFFCURVE",
"738 163 CURVE SMOOTH",
"736 163 OFFCURVE",
"733 162 OFFCURVE",
"731 160 CURVE SMOOTH",
"705 121 OFFCURVE",
"614 27 OFFCURVE",
"566 27 CURVE SMOOTH",
"502 27 OFFCURVE",
"448 170 OFFCURVE",
"432 220 CURVE",
"531 333 OFFCURVE",
"625 464 OFFCURVE",
"699 578 CURVE SMOOTH",
"701 581 OFFCURVE",
"702 585 OFFCURVE",
"702 587 CURVE SMOOTH",
"702 594 OFFCURVE",
"696 598 OFFCURVE",
"690 598 CURVE SMOOTH",
"686 598 OFFCURVE",
"682 597 OFFCURVE",
"679 593 CURVE SMOOTH",
"611 505 OFFCURVE",
"523 373 OFFCURVE",
"421 254 CURVE",
"404 320 OFFCURVE",
"395 391 OFFCURVE",
"395 460 CURVE SMOOTH",
"395 487 OFFCURVE",
"396 513 OFFCURVE",
"399 538 CURVE",
"407 537 OFFCURVE",
"414 534 OFFCURVE",
"419 533 CURVE SMOOTH",
"432 529 OFFCURVE",
"440 527 OFFCURVE",
"445 527 CURVE SMOOTH",
"450 527 OFFCURVE",
"452 529 OFFCURVE",
"452 531 CURVE SMOOTH",
"452 539 OFFCURVE",
"435 556 OFFCURVE",
"426 562 CURVE",
"419 564 OFFCURVE",
"412 568 OFFCURVE",
"404 571 CURVE",
"404 583 OFFCURVE",
"399 594 OFFCURVE",
"389 594 CURVE SMOOTH",
"389 594 OFFCURVE",
"388 594 OFFCURVE",
"388 594 CURVE SMOOTH",
"381 593 OFFCURVE",
"373 588 OFFCURVE",
"367 580 CURVE",
"337 586 OFFCURVE",
"302 589 OFFCURVE",
"266 589 CURVE SMOOTH",
"145 589 OFFCURVE",
"12 551 OFFCURVE",
"17 450 CURVE SMOOTH",
"17 447 OFFCURVE",
"21 439 OFFCURVE",
"21 438 CURVE SMOOTH",
"21 393 OFFCURVE",
"76 361 OFFCURVE",
"100 354 CURVE",
"106 353 OFFCURVE",
"114 356 OFFCURVE",
"114 360 CURVE SMOOTH",
"114 361 OFFCURVE",
"113 363 OFFCURVE",
"109 365 CURVE",
"94 376 OFFCURVE",
"42 388 OFFCURVE",
"42 428 CURVE SMOOTH",
"42 513 OFFCURVE",
"187 546 OFFCURVE",
"304 546 CURVE SMOOTH",
"321 546 OFFCURVE",
"336 545 OFFCURVE",
"351 544 CURVE",
"348 537 OFFCURVE",
"347 528 OFFCURVE",
"346 522 CURVE SMOOTH",
"343 490 OFFCURVE",
"341 457 OFFCURVE",
"341 424 CURVE SMOOTH",
"341 348 OFFCURVE",
"351 270 OFFCURVE",
"373 198 CURVE",
"270 89 OFFCURVE",
"54 -104 OFFCURVE",
"-93 -104 CURVE SMOOTH",
"-119 -104 OFFCURVE",
"-142 -99 OFFCURVE",
"-163 -86 CURVE SMOOTH",
"-179 -75 OFFCURVE",
"-189 -60 OFFCURVE",
"-189 -40 CURVE SMOOTH",
"-189 -17 OFFCURVE",
"-192 -9 OFFCURVE",
"-196 -9 CURVE SMOOTH",
"-204 -9 OFFCURVE",
"-210 -23 OFFCURVE",
"-210 -38 CURVE SMOOTH",
"-210 -72 OFFCURVE",
"-197 -97 OFFCURVE",
"-172 -115 CURVE SMOOTH",
"-142 -135 OFFCURVE",
"-110 -144 OFFCURVE",
"-76 -144 CURVE SMOOTH"
);
}
);
width = 679;
}
);
note = X;
unicode = 0058;
},
{
glyphname = Y;
lastChange = "2021-06-01 21:49:03 +0000";
layers = (
{
anchors = (
{
name = bottom;
position = "{520, 43}";
},
{
name = top;
position = "{452, 565}";
},
{
name = topleft;
position = "{20, 874}";
}
);
layerId = "BDD3FA2A-F197-48C4-9241-A354346F8EDC";
paths = (
{
closed = 1;
nodes = (
"178 -370 OFFCURVE",
"329 -266 OFFCURVE",
"444 24 CURVE SMOOTH",
"451 43 OFFCURVE",
"507 57 OFFCURVE",
"533 57 CURVE SMOOTH",
"539 57 OFFCURVE",
"543 56 OFFCURVE",
"545 55 CURVE SMOOTH",
"550 52 OFFCURVE",
"553 57 OFFCURVE",
"553 62 CURVE SMOOTH",
"553 64 OFFCURVE",
"552 67 OFFCURVE",
"550 69 CURVE",
"547 71 OFFCURVE",
"542 72 OFFCURVE",
"535 72 CURVE SMOOTH",
"518 72 OFFCURVE",
"490 67 OFFCURVE",
"458 58 CURVE",
"476 107 OFFCURVE",
"552 367 OFFCURVE",
"578 432 CURVE SMOOTH",
"607 508 OFFCURVE",
"636 548 OFFCURVE",
"688 543 CURVE",
"697 543 OFFCURVE",
"703 549 OFFCURVE",
"703 554 CURVE SMOOTH",
"703 558 OFFCURVE",
"700 562 OFFCURVE",
"693 563 CURVE SMOOTH",
"685 564 OFFCURVE",
"666 569 OFFCURVE",
"641 569 CURVE SMOOTH",
"612 569 OFFCURVE",
"579 561 OFFCURVE",
"563 534 CURVE",
"558 531 OFFCURVE",
"554 523 OFFCURVE",
"549 513 CURVE SMOOTH",
"540 497 OFFCURVE",
"533 477 OFFCURVE",
"523 455 CURVE SMOOTH",
"436 270 OFFCURVE",
"261 15 OFFCURVE",
"147 15 CURVE SMOOTH",
"119 15 OFFCURVE",
"98 35 OFFCURVE",
"98 88 CURVE SMOOTH",
"98 102 OFFCURVE",
"99 117 OFFCURVE",
"102 135 CURVE SMOOTH",
"127 271 OFFCURVE",
"274 511 OFFCURVE",
"297 548 CURVE",
"300 557 OFFCURVE",
"286 561 OFFCURVE",
"272 561 CURVE SMOOTH",
"256 561 OFFCURVE",
"236 555 OFFCURVE",
"233 548 CURVE SMOOTH",
"216 516 OFFCURVE",
"81 396 OFFCURVE",
"24 390 CURVE SMOOTH",
"16 389 OFFCURVE",
"11 384 OFFCURVE",
"11 379 CURVE SMOOTH",
"11 376 OFFCURVE",
"14 373 OFFCURVE",
"20 373 CURVE SMOOTH",
"20 373 OFFCURVE",
"21 373 OFFCURVE",
"21 373 CURVE SMOOTH",
"62 376 OFFCURVE",
"113 406 OFFCURVE",
"158 443 CURVE SMOOTH",
"169 452 OFFCURVE",
"176 456 OFFCURVE",
"180 456 CURVE SMOOTH",
"182 456 OFFCURVE",
"183 455 OFFCURVE",
"183 452 CURVE SMOOTH",
"183 450 OFFCURVE",
"183 447 OFFCURVE",
"181 443 CURVE SMOOTH",
"137 335 OFFCURVE",
"43 188 OFFCURVE",
"43 72 CURVE SMOOTH",
"43 63 OFFCURVE",
"44 54 OFFCURVE",
"45 45 CURVE SMOOTH",
"51 -2 OFFCURVE",
"80 -20 OFFCURVE",
"114 -20 CURVE SMOOTH",
"227 -20 OFFCURVE",
"368 137 OFFCURVE",
"473 297 CURVE",
"442 188 OFFCURVE",
"414 78 OFFCURVE",
"402 44 CURVE",
"272 2 OFFCURVE",
"161 -61 OFFCURVE",
"70 -165 CURVE SMOOTH",
"26 -215 OFFCURVE",
"8 -260 OFFCURVE",
"8 -295 CURVE SMOOTH",
"8 -341 OFFCURVE",
"39 -370 OFFCURVE",
"87 -370 CURVE SMOOTH"
);
},
{
closed = 1;
nodes = (
"83 -344 OFFCURVE",
"62 -322 OFFCURVE",
"62 -286 CURVE SMOOTH",
"62 -254 OFFCURVE",
"78 -210 OFFCURVE",
"119 -160 CURVE SMOOTH",
"192 -70 OFFCURVE",
"287 -11 OFFCURVE",
"396 25 CURVE",
"361 -70 OFFCURVE",
"238 -344 OFFCURVE",
"115 -344 CURVE SMOOTH"
);
}
);
width = 526;
}
);
note = Y;
unicode = 0059;
},
{
glyphname = Z;
lastChange = "2021-05-31 01:44:34 +0000";
layers = (
{
anchors = (
{
name = bottom;
position = "{323, -102}";
},
{
name = center;
position = "{262, 437}";
},
{
name = top;
position = "{469, 584}";
}
);
layerId = "BDD3FA2A-F197-48C4-9241-A354346F8EDC";
paths = (
{
closed = 1;
nodes = (
"668 -193 OFFCURVE",
"699 -153 OFFCURVE",
"699 -110 CURVE SMOOTH",
"699 -106 OFFCURVE",
"698 -102 OFFCURVE",
"698 -98 CURVE SMOOTH",
"694 -75 OFFCURVE",
"687 -47 OFFCURVE",
"670 -18 CURVE SMOOTH",
"667 -11 OFFCURVE",
"661 -8 OFFCURVE",
"657 -8 CURVE SMOOTH",
"654 -8 OFFCURVE",
"651 -10 OFFCURVE",
"651 -14 CURVE SMOOTH",
"651 -16 OFFCURVE",
"652 -19 OFFCURVE",
"654 -23 CURVE",
"665 -41 OFFCURVE",
"670 -57 OFFCURVE",
"670 -71 CURVE SMOOTH",
"670 -117 OFFCURVE",
"618 -142 OFFCURVE",
"578 -147 CURVE SMOOTH",
"567 -148 OFFCURVE",
"556 -149 OFFCURVE",
"545 -149 CURVE SMOOTH",
"405 -149 OFFCURVE",
"278 -52 OFFCURVE",
"149 17 CURVE SMOOTH",
"143 21 OFFCURVE",
"138 27 OFFCURVE",
"138 34 CURVE SMOOTH",
"138 39 OFFCURVE",
"140 44 OFFCURVE",
"146 49 CURVE",
"147 49 LINE",
"233 100 OFFCURVE",
"305 172 OFFCURVE",
"372 244 CURVE",
"444 251 OFFCURVE",
"520 259 OFFCURVE",
"544 266 CURVE SMOOTH",
"561 271 OFFCURVE",
"566 275 OFFCURVE",
"566 278 CURVE SMOOTH",
"566 283 OFFCURVE",
"554 286 OFFCURVE",
"544 287 CURVE",
"499 290 OFFCURVE",
"450 284 OFFCURVE",
"403 279 CURVE",
"482 369 OFFCURVE",
"560 461 OFFCURVE",
"628 500 CURVE",
"632 499 OFFCURVE",
"636 499 OFFCURVE",
"641 499 CURVE SMOOTH",
"681 499 OFFCURVE",
"737 529 OFFCURVE",
"737 574 CURVE SMOOTH",
"737 591 OFFCURVE",
"728 597 OFFCURVE",
"716 597 CURVE SMOOTH",
"688 597 OFFCURVE",
"641 567 OFFCURVE",
"628 552 CURVE",
"547 573 OFFCURVE",
"443 596 OFFCURVE",
"348 596 CURVE SMOOTH",
"302 596 OFFCURVE",
"259 591 OFFCURVE",
"221 578 CURVE SMOOTH",
"177 564 OFFCURVE",
"131 521 OFFCURVE",
"131 479 CURVE SMOOTH",
"131 466 OFFCURVE",
"135 453 OFFCURVE",
"145 441 CURVE SMOOTH",
"151 434 OFFCURVE",
"155 431 OFFCURVE",
"158 431 CURVE SMOOTH",
"161 431 OFFCURVE",
"162 433 OFFCURVE",
"162 437 CURVE SMOOTH",
"162 440 OFFCURVE",
"161 445 OFFCURVE",
"158 450 CURVE SMOOTH",
"156 454 OFFCURVE",
"155 459 OFFCURVE",
"155 464 CURVE SMOOTH",
"155 493 OFFCURVE",
"193 528 OFFCURVE",
"238 539 CURVE SMOOTH",
"267 547 OFFCURVE",
"302 550 OFFCURVE",
"338 550 CURVE SMOOTH",
"426 550 OFFCURVE",
"526 531 OFFCURVE",
"593 510 CURVE",
"532 478 OFFCURVE",
"439 375 OFFCURVE",
"347 276 CURVE",
"334 276 OFFCURVE",
"320 275 OFFCURVE",
"307 275 CURVE SMOOTH",
"300 275 OFFCURVE",
"294 275 OFFCURVE",
"287 276 CURVE SMOOTH",
"278 277 OFFCURVE",
"274 296 OFFCURVE",
"257 296 CURVE SMOOTH",
"243 296 OFFCURVE",
"204 284 OFFCURVE",
"204 266 CURVE SMOOTH",
"204 250 OFFCURVE",
"219 238 OFFCURVE",
"229 238 CURVE SMOOTH",
"244 237 OFFCURVE",
"276 238 OFFCURVE",
"314 240 CURVE",
"231 152 OFFCURVE",
"151 73 OFFCURVE",
"94 51 CURVE",
"66 53 OFFCURVE",
"40 63 OFFCURVE",
"32 60 CURVE SMOOTH",
"17 53 OFFCURVE",
"11 42 OFFCURVE",
"11 31 CURVE SMOOTH",
"11 18 OFFCURVE",
"19 6 OFFCURVE",
"33 1 CURVE SMOOTH",
"41 -2 OFFCURVE",
"70 4 OFFCURVE",
"94 16 CURVE",
"230 -32 OFFCURVE",
"386 -201 OFFCURVE",
"574 -201 CURVE SMOOTH",
"585 -201 OFFCURVE",
"595 -200 OFFCURVE",
"606 -199 CURVE SMOOTH"
);
}
);
width = 523;
}
);
note = Z;
unicode = 005A;
},
{
color = 3;
glyphname = Zacute;
lastChange = "2021-05-31 01:44:34 +0000";
layers = (
{
layerId = "BDD3FA2A-F197-48C4-9241-A354346F8EDC";
paths = (
{
closed = 1;
nodes = (
"668 -193 OFFCURVE",
"699 -153 OFFCURVE",
"699 -110 CURVE SMOOTH",
"699 -106 OFFCURVE",
"698 -102 OFFCURVE",
"698 -98 CURVE SMOOTH",
"694 -75 OFFCURVE",
"687 -47 OFFCURVE",
"670 -18 CURVE SMOOTH",
"667 -11 OFFCURVE",
"661 -8 OFFCURVE",
"657 -8 CURVE SMOOTH",
"654 -8 OFFCURVE",
"651 -10 OFFCURVE",
"651 -14 CURVE SMOOTH",
"651 -16 OFFCURVE",
"652 -19 OFFCURVE",
"654 -23 CURVE",
"665 -41 OFFCURVE",
"670 -57 OFFCURVE",
"670 -71 CURVE SMOOTH",
"670 -117 OFFCURVE",
"618 -142 OFFCURVE",
"578 -147 CURVE SMOOTH",
"567 -148 OFFCURVE",
"556 -149 OFFCURVE",
"545 -149 CURVE SMOOTH",
"405 -149 OFFCURVE",
"278 -52 OFFCURVE",
"149 17 CURVE SMOOTH",
"143 21 OFFCURVE",
"138 27 OFFCURVE",
"138 34 CURVE SMOOTH",
"138 39 OFFCURVE",
"140 44 OFFCURVE",
"146 49 CURVE",
"147 49 LINE",
"233 100 OFFCURVE",
"305 172 OFFCURVE",
"372 244 CURVE",
"444 251 OFFCURVE",
"520 259 OFFCURVE",
"544 266 CURVE SMOOTH",
"561 271 OFFCURVE",
"566 275 OFFCURVE",
"566 278 CURVE SMOOTH",
"566 283 OFFCURVE",
"554 286 OFFCURVE",
"544 287 CURVE",
"499 290 OFFCURVE",
"450 284 OFFCURVE",
"403 279 CURVE",
"482 369 OFFCURVE",
"560 461 OFFCURVE",
"628 500 CURVE",
"632 499 OFFCURVE",
"636 499 OFFCURVE",
"641 499 CURVE SMOOTH",
"681 499 OFFCURVE",
"737 529 OFFCURVE",
"737 574 CURVE SMOOTH",
"737 591 OFFCURVE",
"728 597 OFFCURVE",
"716 597 CURVE SMOOTH",
"688 597 OFFCURVE",
"641 567 OFFCURVE",
"628 552 CURVE",
"547 573 OFFCURVE",
"443 596 OFFCURVE",
"348 596 CURVE SMOOTH",
"302 596 OFFCURVE",
"259 591 OFFCURVE",
"221 578 CURVE SMOOTH",
"177 564 OFFCURVE",
"131 521 OFFCURVE",
"131 479 CURVE SMOOTH",
"131 466 OFFCURVE",
"135 453 OFFCURVE",
"145 441 CURVE SMOOTH",
"151 434 OFFCURVE",
"155 431 OFFCURVE",
"158 431 CURVE SMOOTH",
"161 431 OFFCURVE",
"162 433 OFFCURVE",
"162 437 CURVE SMOOTH",
"162 440 OFFCURVE",
"161 445 OFFCURVE",
"158 450 CURVE SMOOTH",
"156 454 OFFCURVE",
"155 459 OFFCURVE",
"155 464 CURVE SMOOTH",
"155 493 OFFCURVE",
"193 528 OFFCURVE",
"238 539 CURVE SMOOTH",
"267 547 OFFCURVE",
"302 550 OFFCURVE",
"338 550 CURVE SMOOTH",
"426 550 OFFCURVE",
"526 531 OFFCURVE",
"593 510 CURVE",
"532 478 OFFCURVE",
"439 375 OFFCURVE",
"347 276 CURVE",
"334 276 OFFCURVE",
"320 275 OFFCURVE",
"307 275 CURVE SMOOTH",
"300 275 OFFCURVE",
"294 275 OFFCURVE",
"287 276 CURVE SMOOTH",
"278 277 OFFCURVE",
"274 296 OFFCURVE",
"257 296 CURVE SMOOTH",
"243 296 OFFCURVE",
"204 284 OFFCURVE",
"204 266 CURVE SMOOTH",
"204 250 OFFCURVE",
"219 238 OFFCURVE",
"229 238 CURVE SMOOTH",
"244 237 OFFCURVE",
"276 238 OFFCURVE",
"314 240 CURVE",
"231 152 OFFCURVE",
"151 73 OFFCURVE",
"94 51 CURVE",
"66 53 OFFCURVE",
"40 63 OFFCURVE",
"32 60 CURVE SMOOTH",
"17 53 OFFCURVE",
"11 42 OFFCURVE",
"11 31 CURVE SMOOTH",
"11 18 OFFCURVE",
"19 6 OFFCURVE",
"33 1 CURVE SMOOTH",
"41 -2 OFFCURVE",
"70 4 OFFCURVE",
"94 16 CURVE",
"230 -32 OFFCURVE",
"386 -201 OFFCURVE",
"574 -201 CURVE SMOOTH",
"585 -201 OFFCURVE",
"595 -200 OFFCURVE",
"606 -199 CURVE SMOOTH"
);
},
{
closed = 1;
nodes = (
"585 656 OFFCURVE",
"707 713 OFFCURVE",
"727 730 CURVE SMOOTH",
"728 731 LINE SMOOTH",
"732 734 OFFCURVE",
"734 739 OFFCURVE",
"734 744 CURVE SMOOTH",
"734 751 OFFCURVE",
"730 759 OFFCURVE",
"722 764 CURVE",
"719 765 OFFCURVE",
"711 769 OFFCURVE",
"703 769 CURVE SMOOTH",
"700 769 OFFCURVE",
"697 768 OFFCURVE",
"694 767 CURVE",
"675 743 OFFCURVE",
"646 726 OFFCURVE",
"619 704 CURVE SMOOTH",
"608 696 OFFCURVE",
"566 668 OFFCURVE",
"564 665 CURVE SMOOTH",
"562 663 OFFCURVE",
"560 660 OFFCURVE",
"560 658 CURVE SMOOTH",
"560 656 OFFCURVE",
"562 654 OFFCURVE",
"568 654 CURVE SMOOTH"
);
}
);
width = 523;
}
);
note = Zacute;
unicode = 0179;
},
{
color = 3;
glyphname = Zdotaccent;
lastChange = "2021-05-31 01:44:34 +0000";
layers = (
{
layerId = "BDD3FA2A-F197-48C4-9241-A354346F8EDC";
paths = (
{
closed = 1;
nodes = (
"668 -193 OFFCURVE",
"699 -153 OFFCURVE",
"699 -110 CURVE SMOOTH",
"699 -106 OFFCURVE",
"698 -102 OFFCURVE",
"698 -98 CURVE SMOOTH",
"694 -75 OFFCURVE",
"687 -47 OFFCURVE",
"670 -18 CURVE SMOOTH",
"667 -11 OFFCURVE",
"661 -8 OFFCURVE",
"657 -8 CURVE SMOOTH",
"654 -8 OFFCURVE",
"651 -10 OFFCURVE",
"651 -14 CURVE SMOOTH",
"651 -16 OFFCURVE",
"652 -19 OFFCURVE",
"654 -23 CURVE",
"665 -41 OFFCURVE",
"670 -57 OFFCURVE",
"670 -71 CURVE SMOOTH",
"670 -117 OFFCURVE",
"618 -142 OFFCURVE",
"578 -147 CURVE SMOOTH",
"567 -148 OFFCURVE",
"556 -149 OFFCURVE",
"545 -149 CURVE SMOOTH",
"405 -149 OFFCURVE",
"278 -52 OFFCURVE",
"149 17 CURVE SMOOTH",
"143 21 OFFCURVE",
"138 27 OFFCURVE",
"138 34 CURVE SMOOTH",
"138 39 OFFCURVE",
"140 44 OFFCURVE",
"146 49 CURVE",
"147 49 LINE",
"233 100 OFFCURVE",
"305 172 OFFCURVE",
"372 244 CURVE",
"444 251 OFFCURVE",
"520 259 OFFCURVE",
"544 266 CURVE SMOOTH",
"561 271 OFFCURVE",
"566 275 OFFCURVE",
"566 278 CURVE SMOOTH",
"566 283 OFFCURVE",
"554 286 OFFCURVE",
"544 287 CURVE",
"499 290 OFFCURVE",
"450 284 OFFCURVE",
"403 279 CURVE",
"482 369 OFFCURVE",
"560 461 OFFCURVE",
"628 500 CURVE",
"632 499 OFFCURVE",
"636 499 OFFCURVE",
"641 499 CURVE SMOOTH",
"681 499 OFFCURVE",
"737 529 OFFCURVE",
"737 574 CURVE SMOOTH",
"737 591 OFFCURVE",
"728 597 OFFCURVE",
"716 597 CURVE SMOOTH",
"688 597 OFFCURVE",
"641 567 OFFCURVE",
"628 552 CURVE",
"547 573 OFFCURVE",
"443 596 OFFCURVE",
"348 596 CURVE SMOOTH",
"302 596 OFFCURVE",
"259 591 OFFCURVE",
"221 578 CURVE SMOOTH",
"177 564 OFFCURVE",
"131 521 OFFCURVE",
"131 479 CURVE SMOOTH",
"131 466 OFFCURVE",
"135 453 OFFCURVE",
"145 441 CURVE SMOOTH",
"151 434 OFFCURVE",
"155 431 OFFCURVE",
"158 431 CURVE SMOOTH",
"161 431 OFFCURVE",
"162 433 OFFCURVE",
"162 437 CURVE SMOOTH",
"162 440 OFFCURVE",
"161 445 OFFCURVE",
"158 450 CURVE SMOOTH",
"156 454 OFFCURVE",
"155 459 OFFCURVE",
"155 464 CURVE SMOOTH",
"155 493 OFFCURVE",
"193 528 OFFCURVE",
"238 539 CURVE SMOOTH",
"267 547 OFFCURVE",
"302 550 OFFCURVE",
"338 550 CURVE SMOOTH",
"426 550 OFFCURVE",
"526 531 OFFCURVE",
"593 510 CURVE",
"532 478 OFFCURVE",
"439 375 OFFCURVE",
"347 276 CURVE",
"334 276 OFFCURVE",
"320 275 OFFCURVE",
"307 275 CURVE SMOOTH",
"300 275 OFFCURVE",
"294 275 OFFCURVE",
"287 276 CURVE SMOOTH",
"278 277 OFFCURVE",
"274 296 OFFCURVE",
"257 296 CURVE SMOOTH",
"243 296 OFFCURVE",
"204 284 OFFCURVE",
"204 266 CURVE SMOOTH",
"204 250 OFFCURVE",
"219 238 OFFCURVE",
"229 238 CURVE SMOOTH",
"244 237 OFFCURVE",
"276 238 OFFCURVE",
"314 240 CURVE",
"231 152 OFFCURVE",
"151 73 OFFCURVE",
"94 51 CURVE",
"66 53 OFFCURVE",
"40 63 OFFCURVE",
"32 60 CURVE SMOOTH",
"17 53 OFFCURVE",
"11 42 OFFCURVE",
"11 31 CURVE SMOOTH",
"11 18 OFFCURVE",
"19 6 OFFCURVE",
"33 1 CURVE SMOOTH",
"41 -2 OFFCURVE",
"70 4 OFFCURVE",
"94 16 CURVE",
"230 -32 OFFCURVE",
"386 -201 OFFCURVE",
"574 -201 CURVE SMOOTH",
"585 -201 OFFCURVE",
"595 -200 OFFCURVE",
"606 -199 CURVE SMOOTH"
);
},
{
closed = 1;
nodes = (
"554 674 OFFCURVE",
"579 714 OFFCURVE",
"579 726 CURVE SMOOTH",
"579 731 OFFCURVE",
"579 736 OFFCURVE",
"579 740 CURVE SMOOTH",
"579 750 OFFCURVE",
"578 758 OFFCURVE",
"571 758 CURVE SMOOTH",
"566 758 OFFCURVE",
"555 753 OFFCURVE",
"540 742 CURVE SMOOTH",
"534 737 OFFCURVE",
"497 703 OFFCURVE",
"497 698 CURVE SMOOTH",
"497 674 OFFCURVE",
"524 674 OFFCURVE",
"541 674 CURVE SMOOTH"
);
}
);
width = 523;
}
);
note = Zdotaccent;
unicode = 017B;
},
{
glyphname = S.003;
lastChange = "2021-05-31 01:44:35 +0000";
layers = (
{
layerId = "BDD3FA2A-F197-48C4-9241-A354346F8EDC";
paths = (
{
closed = 1;
nodes = (
"410 -163 OFFCURVE",
"470 -154 OFFCURVE",
"510 -143 CURVE SMOOTH",
"635 -113 OFFCURVE",
"836 -2 OFFCURVE",
"836 164 CURVE SMOOTH",
"836 292 OFFCURVE",
"684 344 OFFCURVE",
"593 380 CURVE SMOOTH",
"458 431 OFFCURVE",
"340 458 OFFCURVE",
"336 552 CURVE",
"410 518 OFFCURVE",
"523 500 OFFCURVE",
"606 500 CURVE SMOOTH",
"675 500 OFFCURVE",
"905 518 OFFCURVE",
"905 677 CURVE SMOOTH",
"905 776 OFFCURVE",
"759 800 OFFCURVE",
"684 800 CURVE SMOOTH",
"532 800 OFFCURVE",
"359 711 OFFCURVE",
"300 590 CURVE",
"238 626 OFFCURVE",
"221 669 OFFCURVE",
"221 704 CURVE SMOOTH",
"221 748 OFFCURVE",
"244 777 OFFCURVE",
"244 781 CURVE SMOOTH",
"244 784 OFFCURVE",
"238 787 OFFCURVE",
"234 787 CURVE SMOOTH",
"231 787 OFFCURVE",
"199 745 OFFCURVE",
"199 693 CURVE SMOOTH",
"199 653 OFFCURVE",
"223 608 OFFCURVE",
"292 571 CURVE",
"290 560 OFFCURVE",
"287 533 OFFCURVE",
"287 523 CURVE SMOOTH",
"287 419 OFFCURVE",
"414 374 OFFCURVE",
"550 322 CURVE SMOOTH",
"629 291 OFFCURVE",
"764 246 OFFCURVE",
"764 140 CURVE SMOOTH",
"764 6 OFFCURVE",
"606 -90 OFFCURVE",
"505 -120 CURVE SMOOTH",
"469 -132 OFFCURVE",
"413 -142 OFFCURVE",
"356 -142 CURVE SMOOTH",
"236 -142 OFFCURVE",
"107 -101 OFFCURVE",
"107 41 CURVE SMOOTH",
"107 149 OFFCURVE",
"246 290 OFFCURVE",
"387 290 CURVE SMOOTH",
"444 290 OFFCURVE",
"494 261 OFFCURVE",
"494 211 CURVE SMOOTH",
"494 165 OFFCURVE",
"433 74 OFFCURVE",
"307 74 CURVE SMOOTH",
"300 74 OFFCURVE",
"282 76 OFFCURVE",
"276 76 CURVE SMOOTH",
"267 76 OFFCURVE",
"265 68 OFFCURVE",
"265 64 CURVE SMOOTH",
"265 60 OFFCURVE",
"279 56 OFFCURVE",
"311 56 CURVE SMOOTH",
"443 56 OFFCURVE",
"534 147 OFFCURVE",
"534 212 CURVE SMOOTH",
"534 270 OFFCURVE",
"463 305 OFFCURVE",
"376 305 CURVE SMOOTH",
"277 305 OFFCURVE",
"46 215 OFFCURVE",
"46 36 CURVE SMOOTH",
"46 -120 OFFCURVE",
"205 -163 OFFCURVE",
"347 -163 CURVE SMOOTH"
);
},
{
closed = 1;
nodes = (
"516 524 OFFCURVE",
"412 535 OFFCURVE",
"340 573 CURVE",
"345 594 OFFCURVE",
"357 615 OFFCURVE",
"372 634 CURVE SMOOTH",
"446 722 OFFCURVE",
"572 758 OFFCURVE",
"677 758 CURVE SMOOTH",
"812 758 OFFCURVE",
"861 702 OFFCURVE",
"861 654 CURVE SMOOTH",
"861 551 OFFCURVE",
"693 528 OFFCURVE",
"626 526 CURVE",
"617 524 OFFCURVE",
"606 524 OFFCURVE",
"593 524 CURVE SMOOTH"
);
}
);
width = 872;
}
);
note = S.003;
},
{
glyphname = T.003;
lastChange = "2021-05-31 01:44:35 +0000";
layers = (
{
layerId = "BDD3FA2A-F197-48C4-9241-A354346F8EDC";
paths = (
{
closed = 1;
nodes = (
"192 170 OFFCURVE",
"199 170 OFFCURVE",
"199 176 CURVE SMOOTH",
"199 180 OFFCURVE",
"197 181 OFFCURVE",
"192 181 CURVE SMOOTH",
"153 183 OFFCURVE",
"131 217 OFFCURVE",
"131 263 CURVE SMOOTH",
"131 307 OFFCURVE",
"142 351 OFFCURVE",
"161 390 CURVE",
"209 361 OFFCURVE",
"277 353 OFFCURVE",
"340 353 CURVE SMOOTH",
"528 353 OFFCURVE",
"673 443 OFFCURVE",
"674 545 CURVE SMOOTH",
"674 606 OFFCURVE",
"619 658 OFFCURVE",
"526 658 CURVE SMOOTH",
"387 658 OFFCURVE",
"224 546 OFFCURVE",
"152 426 CURVE",
"120 457 OFFCURVE",
"104 498 OFFCURVE",
"106 540 CURVE SMOOTH",
"106 601 OFFCURVE",
"136 660 OFFCURVE",
"191 697 CURVE SMOOTH",
"265 742 OFFCURVE",
"364 756 OFFCURVE",
"467 756 CURVE SMOOTH",
"484 756 OFFCURVE",
"501 756 OFFCURVE",
"518 755 CURVE SMOOTH",
"813 744 OFFCURVE",
"884 692 OFFCURVE",
"1207 680 CURVE SMOOTH",
"1223 679 OFFCURVE",
"1239 679 OFFCURVE",
"1254 679 CURVE SMOOTH",
"1343 679 OFFCURVE",
"1413 692 OFFCURVE",
"1413 720 CURVE SMOOTH",
"1413 726 OFFCURVE",
"1409 731 OFFCURVE",
"1403 731 CURVE SMOOTH",
"1397 731 OFFCURVE",
"1391 728 OFFCURVE",
"1385 722 CURVE SMOOTH",
"1368 703 OFFCURVE",
"1324 696 OFFCURVE",
"1270 696 CURVE SMOOTH",
"1258 696 OFFCURVE",
"1247 696 OFFCURVE",
"1235 697 CURVE SMOOTH",
"1119 702 OFFCURVE",
"971 728 OFFCURVE",
"896 743 CURVE SMOOTH",
"817 756 OFFCURVE",
"629 804 OFFCURVE",
"452 810 CURVE SMOOTH",
"440 810 OFFCURVE",
"428 811 OFFCURVE",
"416 811 CURVE SMOOTH",
"188 811 OFFCURVE",
"50 718 OFFCURVE",
"50 570 CURVE SMOOTH",
"50 506 OFFCURVE",
"80 443 OFFCURVE",
"138 403 CURVE",
"118 359 OFFCURVE",
"106 312 OFFCURVE",
"106 265 CURVE SMOOTH",
"106 212 OFFCURVE",
"140 171 OFFCURVE",
"185 170 CURVE SMOOTH"
);
},
{
closed = 1;
nodes = (
"578 -115 OFFCURVE",
"686 307 OFFCURVE",
"852 535 CURVE SMOOTH",
"921 630 OFFCURVE",
"953 628 OFFCURVE",
"992 636 CURVE",
"996 636 OFFCURVE",
"997 639 OFFCURVE",
"997 642 CURVE SMOOTH",
"997 671 OFFCURVE",
"963 686 OFFCURVE",
"935 686 CURVE SMOOTH",
"891 686 OFFCURVE",
"833 654 OFFCURVE",
"765 558 CURVE SMOOTH",
"753 539 OFFCURVE",
"756 508 OFFCURVE",
"743 482 CURVE SMOOTH",
"630 271 OFFCURVE",
"539 -104 OFFCURVE",
"264 -104 CURVE SMOOTH",
"183 -104 OFFCURVE",
"127 -51 OFFCURVE",
"127 1 CURVE SMOOTH",
"127 62 OFFCURVE",
"189 102 OFFCURVE",
"265 102 CURVE SMOOTH",
"288 102 OFFCURVE",
"312 98 OFFCURVE",
"337 92 CURVE SMOOTH",
"341 91 OFFCURVE",
"345 90 OFFCURVE",
"347 90 CURVE SMOOTH",
"352 90 OFFCURVE",
"353 91 OFFCURVE",
"353 94 CURVE SMOOTH",
"353 109 OFFCURVE",
"284 121 OFFCURVE",
"251 121 CURVE SMOOTH",
"174 121 OFFCURVE",
"95 85 OFFCURVE",
"95 0 CURVE SMOOTH",
"95 -75 OFFCURVE",
"166 -127 OFFCURVE",
"272 -127 CURVE"
);
},
{
closed = 1;
nodes = (
"268 369 OFFCURVE",
"210 382 OFFCURVE",
"170 409 CURVE",
"230 520 OFFCURVE",
"377 634 OFFCURVE",
"507 634 CURVE SMOOTH",
"536 634 OFFCURVE",
"568 631 OFFCURVE",
"594 615 CURVE SMOOTH",
"624 599 OFFCURVE",
"639 574 OFFCURVE",
"639 545 CURVE SMOOTH",
"639 454 OFFCURVE",
"493 369 OFFCURVE",
"329 369 CURVE SMOOTH"
);
}
);
width = 770;
}
);
note = T.003;
},
{
glyphname = T.004;
lastChange = "2021-05-31 01:44:35 +0000";
layers = (
{
layerId = "BDD3FA2A-F197-48C4-9241-A354346F8EDC";
paths = (
{
closed = 1;
nodes = (
"192 170 OFFCURVE",
"199 170 OFFCURVE",
"199 176 CURVE SMOOTH",
"199 180 OFFCURVE",
"197 181 OFFCURVE",
"192 181 CURVE SMOOTH",
"153 183 OFFCURVE",
"131 217 OFFCURVE",
"131 263 CURVE SMOOTH",
"131 307 OFFCURVE",
"142 351 OFFCURVE",
"161 390 CURVE",
"209 361 OFFCURVE",
"277 353 OFFCURVE",
"340 353 CURVE SMOOTH",
"528 353 OFFCURVE",
"673 443 OFFCURVE",
"674 545 CURVE SMOOTH",
"674 606 OFFCURVE",
"619 658 OFFCURVE",
"526 658 CURVE SMOOTH",
"387 658 OFFCURVE",
"224 546 OFFCURVE",
"152 426 CURVE",
"120 457 OFFCURVE",
"104 498 OFFCURVE",
"106 540 CURVE SMOOTH",
"106 601 OFFCURVE",
"136 660 OFFCURVE",
"191 697 CURVE SMOOTH",
"265 742 OFFCURVE",
"364 756 OFFCURVE",
"467 756 CURVE SMOOTH",
"484 756 OFFCURVE",
"501 756 OFFCURVE",
"518 755 CURVE SMOOTH",
"813 744 OFFCURVE",
"884 692 OFFCURVE",
"1207 680 CURVE SMOOTH",
"1223 679 OFFCURVE",
"1239 679 OFFCURVE",
"1254 679 CURVE SMOOTH",
"1343 679 OFFCURVE",
"1413 692 OFFCURVE",
"1413 720 CURVE SMOOTH",
"1413 726 OFFCURVE",
"1409 731 OFFCURVE",
"1403 731 CURVE SMOOTH",
"1397 731 OFFCURVE",
"1391 728 OFFCURVE",
"1385 722 CURVE SMOOTH",
"1368 703 OFFCURVE",
"1324 696 OFFCURVE",
"1270 696 CURVE SMOOTH",
"1258 696 OFFCURVE",
"1247 696 OFFCURVE",
"1235 697 CURVE SMOOTH",
"1119 702 OFFCURVE",
"971 728 OFFCURVE",
"896 743 CURVE SMOOTH",
"817 756 OFFCURVE",
"629 804 OFFCURVE",
"452 810 CURVE SMOOTH",
"440 810 OFFCURVE",
"428 811 OFFCURVE",
"416 811 CURVE SMOOTH",
"188 811 OFFCURVE",
"50 718 OFFCURVE",
"50 570 CURVE SMOOTH",
"50 506 OFFCURVE",
"80 443 OFFCURVE",
"138 403 CURVE",
"118 359 OFFCURVE",
"106 312 OFFCURVE",
"106 265 CURVE SMOOTH",
"106 212 OFFCURVE",
"140 171 OFFCURVE",
"185 170 CURVE SMOOTH"
);
},
{
closed = 1;
nodes = (
"578 -115 OFFCURVE",
"686 307 OFFCURVE",
"852 535 CURVE SMOOTH",
"921 630 OFFCURVE",
"953 628 OFFCURVE",
"992 636 CURVE",
"996 636 OFFCURVE",
"997 639 OFFCURVE",
"997 642 CURVE SMOOTH",
"997 671 OFFCURVE",
"963 686 OFFCURVE",
"935 686 CURVE SMOOTH",
"891 686 OFFCURVE",
"833 654 OFFCURVE",
"765 558 CURVE SMOOTH",
"753 539 OFFCURVE",
"756 508 OFFCURVE",
"743 482 CURVE SMOOTH",
"630 271 OFFCURVE",
"539 -104 OFFCURVE",
"264 -104 CURVE SMOOTH",
"183 -104 OFFCURVE",
"127 -51 OFFCURVE",
"127 1 CURVE SMOOTH",
"127 62 OFFCURVE",
"189 102 OFFCURVE",
"265 102 CURVE SMOOTH",
"288 102 OFFCURVE",
"312 98 OFFCURVE",
"337 92 CURVE SMOOTH",
"341 91 OFFCURVE",
"345 90 OFFCURVE",
"347 90 CURVE SMOOTH",
"352 90 OFFCURVE",
"353 91 OFFCURVE",
"353 94 CURVE SMOOTH",
"353 109 OFFCURVE",
"284 121 OFFCURVE",
"251 121 CURVE SMOOTH",
"174 121 OFFCURVE",
"95 85 OFFCURVE",
"95 0 CURVE SMOOTH",
"95 -75 OFFCURVE",
"166 -127 OFFCURVE",
"272 -127 CURVE"
);
},
{
closed = 1;
nodes = (
"268 369 OFFCURVE",
"210 382 OFFCURVE",
"170 409 CURVE",
"230 520 OFFCURVE",
"377 634 OFFCURVE",
"507 634 CURVE SMOOTH",
"536 634 OFFCURVE",
"568 631 OFFCURVE",
"594 615 CURVE SMOOTH",
"624 599 OFFCURVE",
"639 574 OFFCURVE",
"639 545 CURVE SMOOTH",
"639 454 OFFCURVE",
"493 369 OFFCURVE",
"329 369 CURVE SMOOTH"
);
}
);
width = 770;
}
);
note = T.004;
},
{
glyphname = A.ss01;
lastChange = "2021-06-07 01:12:49 +0000";
layers = (
{
layerId = "BDD3FA2A-F197-48C4-9241-A354346F8EDC";
paths = (
{
closed = 1;
nodes = (
"30 -24 OFFCURVE",
"30 -17 OFFCURVE",
"32 -15 CURVE",
"32 34 OFFCURVE",
"91 201 OFFCURVE",
"130 225 CURVE",
"147 225 OFFCURVE",
"186 225 OFFCURVE",
"220 225 CURVE SMOOTH",
"285 225 OFFCURVE",
"369 226 OFFCURVE",
"414 232 CURVE",
"398 151 OFFCURVE",
"381 72 OFFCURVE",
"368 13 CURVE SMOOTH",
"368 12 LINE SMOOTH",
"368 5 OFFCURVE",
"376 -6 OFFCURVE",
"388 -6 CURVE SMOOTH",
"392 -6 OFFCURVE",
"395 -5 OFFCURVE",
"396 0 CURVE SMOOTH",
"427 134 OFFCURVE",
"524 463 OFFCURVE",
"524 528 CURVE SMOOTH",
"524 531 OFFCURVE",
"524 533 OFFCURVE",
"524 534 CURVE SMOOTH",
"521 554 OFFCURVE",
"478 561 OFFCURVE",
"464 561 CURVE SMOOTH",
"380 561 OFFCURVE",
"159 341 OFFCURVE",
"106 260 CURVE",
"73 254 OFFCURVE",
"45 257 OFFCURVE",
"45 236 CURVE SMOOTH",
"45 227 OFFCURVE",
"51 221 OFFCURVE",
"64 221 CURVE SMOOTH",
"84 221 LINE",
"52 171 OFFCURVE",
"4 84 OFFCURVE",
"4 20 CURVE SMOOTH",
"4 13 OFFCURVE",
"6 -24 OFFCURVE",
"27 -24 CURVE SMOOTH"
);
},
{
closed = 1;
nodes = (
"332 255 OFFCURVE",
"182 257 OFFCURVE",
"141 257 CURVE",
"221 373 OFFCURVE",
"353 488 OFFCURVE",
"469 532 CURVE",
"469 499 OFFCURVE",
"444 382 OFFCURVE",
"419 255 CURVE"
);
}
);
width = 470;
}
);
note = A.001;
},
{
glyphname = Aacute.ss01;
lastChange = "2021-06-07 01:12:49 +0000";
layers = (
{
layerId = "BDD3FA2A-F197-48C4-9241-A354346F8EDC";
paths = (
{
closed = 1;
nodes = (
"30 -24 OFFCURVE",
"30 -17 OFFCURVE",
"32 -15 CURVE",
"32 34 OFFCURVE",
"91 201 OFFCURVE",
"130 225 CURVE",
"147 225 OFFCURVE",
"186 225 OFFCURVE",
"220 225 CURVE SMOOTH",
"285 225 OFFCURVE",
"369 226 OFFCURVE",
"414 232 CURVE",
"398 151 OFFCURVE",
"381 72 OFFCURVE",
"368 13 CURVE SMOOTH",
"368 12 LINE SMOOTH",
"368 5 OFFCURVE",
"376 -6 OFFCURVE",
"388 -6 CURVE SMOOTH",
"392 -6 OFFCURVE",
"395 -5 OFFCURVE",
"396 0 CURVE SMOOTH",
"427 134 OFFCURVE",
"524 463 OFFCURVE",
"524 528 CURVE SMOOTH",
"524 531 OFFCURVE",
"524 533 OFFCURVE",
"524 534 CURVE SMOOTH",
"521 554 OFFCURVE",
"478 561 OFFCURVE",
"464 561 CURVE SMOOTH",
"380 561 OFFCURVE",
"159 341 OFFCURVE",
"106 260 CURVE",
"73 254 OFFCURVE",
"45 257 OFFCURVE",
"45 236 CURVE SMOOTH",
"45 227 OFFCURVE",
"51 221 OFFCURVE",
"64 221 CURVE SMOOTH",
"84 221 LINE",
"52 171 OFFCURVE",
"4 84 OFFCURVE",
"4 20 CURVE SMOOTH",
"4 13 OFFCURVE",
"6 -24 OFFCURVE",
"27 -24 CURVE SMOOTH"
);
},
{
closed = 1;
nodes = (
"332 255 OFFCURVE",
"182 257 OFFCURVE",
"141 257 CURVE",
"221 373 OFFCURVE",
"353 488 OFFCURVE",
"469 532 CURVE",
"469 499 OFFCURVE",
"444 382 OFFCURVE",
"419 255 CURVE"
);
},
{
closed = 1;
nodes = (
"494 628 OFFCURVE",
"615 685 OFFCURVE",
"636 703 CURVE SMOOTH",
"637 704 LINE SMOOTH",
"640 707 OFFCURVE",
"642 711 OFFCURVE",
"642 716 CURVE SMOOTH",
"642 726 OFFCURVE",
"634 742 OFFCURVE",
"612 742 CURVE SMOOTH",
"604 742 OFFCURVE",
"469 642 OFFCURVE",
"469 630 CURVE SMOOTH",
"469 628 OFFCURVE",
"471 626 OFFCURVE",
"477 626 CURVE SMOOTH"
);
}
);
width = 470;
}
);
note = Aacute.001;
},
{
glyphname = Abreve.ss01;
lastChange = "2021-06-07 01:12:49 +0000";
layers = (
{
layerId = "BDD3FA2A-F197-48C4-9241-A354346F8EDC";
paths = (
{
closed = 1;
nodes = (
"30 -24 OFFCURVE",
"30 -17 OFFCURVE",
"32 -15 CURVE",
"32 34 OFFCURVE",
"91 201 OFFCURVE",
"130 225 CURVE",
"147 225 OFFCURVE",
"186 225 OFFCURVE",
"220 225 CURVE SMOOTH",
"285 225 OFFCURVE",
"369 226 OFFCURVE",
"414 232 CURVE",
"398 151 OFFCURVE",
"381 72 OFFCURVE",
"368 13 CURVE SMOOTH",
"368 12 LINE SMOOTH",
"368 5 OFFCURVE",
"376 -6 OFFCURVE",
"388 -6 CURVE SMOOTH",
"392 -6 OFFCURVE",
"395 -5 OFFCURVE",
"396 0 CURVE SMOOTH",
"427 134 OFFCURVE",
"524 463 OFFCURVE",
"524 528 CURVE SMOOTH",
"524 531 OFFCURVE",
"524 533 OFFCURVE",
"524 534 CURVE SMOOTH",
"521 554 OFFCURVE",
"478 561 OFFCURVE",
"464 561 CURVE SMOOTH",
"380 561 OFFCURVE",
"159 341 OFFCURVE",
"106 260 CURVE",
"73 254 OFFCURVE",
"45 257 OFFCURVE",
"45 236 CURVE SMOOTH",
"45 227 OFFCURVE",
"51 221 OFFCURVE",
"64 221 CURVE SMOOTH",
"84 221 LINE",
"52 171 OFFCURVE",
"4 84 OFFCURVE",
"4 20 CURVE SMOOTH",
"4 13 OFFCURVE",
"6 -24 OFFCURVE",
"27 -24 CURVE SMOOTH"
);
},
{
closed = 1;
nodes = (
"332 255 OFFCURVE",
"182 257 OFFCURVE",
"141 257 CURVE",
"221 373 OFFCURVE",
"353 488 OFFCURVE",
"469 532 CURVE",
"469 499 OFFCURVE",
"444 382 OFFCURVE",
"419 255 CURVE"
);
},
{
closed = 1;
nodes = (
"549 631 OFFCURVE",
"609 664 OFFCURVE",
"623 724 CURVE SMOOTH",
"623 725 OFFCURVE",
"622 730 OFFCURVE",
"618 731 CURVE",
"618 731 OFFCURVE",
"617 732 OFFCURVE",
"615 732 CURVE SMOOTH",
"614 732 OFFCURVE",
"613 732 OFFCURVE",
"613 731 CURVE",
"594 676 OFFCURVE",
"555 653 OFFCURVE",
"521 653 CURVE SMOOTH",
"484 653 OFFCURVE",
"455 676 OFFCURVE",
"455 720 CURVE SMOOTH",
"455 726 OFFCURVE",
"448 731 OFFCURVE",
"442 731 CURVE SMOOTH",
"433 731 OFFCURVE",
"427 720 OFFCURVE",
"427 700 CURVE SMOOTH",
"427 653 OFFCURVE",
"460 631 OFFCURVE",
"500 631 CURVE SMOOTH"
);
}
);
width = 470;
}
);
note = Abreve.001;
},
{
glyphname = Acircumflex.ss01;
lastChange = "2021-06-07 01:12:49 +0000";
layers = (
{
layerId = "BDD3FA2A-F197-48C4-9241-A354346F8EDC";
paths = (
{
closed = 1;
nodes = (
"30 -24 OFFCURVE",
"30 -17 OFFCURVE",
"32 -15 CURVE",
"32 34 OFFCURVE",
"91 201 OFFCURVE",
"130 225 CURVE",
"147 225 OFFCURVE",
"186 225 OFFCURVE",
"220 225 CURVE SMOOTH",
"285 225 OFFCURVE",
"369 226 OFFCURVE",
"414 232 CURVE",
"398 151 OFFCURVE",
"381 72 OFFCURVE",
"368 13 CURVE SMOOTH",
"368 12 LINE SMOOTH",
"368 5 OFFCURVE",
"376 -6 OFFCURVE",
"388 -6 CURVE SMOOTH",
"392 -6 OFFCURVE",
"395 -5 OFFCURVE",
"396 0 CURVE SMOOTH",
"427 134 OFFCURVE",
"524 463 OFFCURVE",
"524 528 CURVE SMOOTH",
"524 531 OFFCURVE",
"524 533 OFFCURVE",
"524 534 CURVE SMOOTH",
"521 554 OFFCURVE",
"478 561 OFFCURVE",
"464 561 CURVE SMOOTH",
"380 561 OFFCURVE",
"159 341 OFFCURVE",
"106 260 CURVE",
"73 254 OFFCURVE",
"45 257 OFFCURVE",
"45 236 CURVE SMOOTH",
"45 227 OFFCURVE",
"51 221 OFFCURVE",
"64 221 CURVE SMOOTH",
"84 221 LINE",
"52 171 OFFCURVE",
"4 84 OFFCURVE",
"4 20 CURVE SMOOTH",
"4 13 OFFCURVE",
"6 -24 OFFCURVE",
"27 -24 CURVE SMOOTH"
);
},
{
closed = 1;
nodes = (
"332 255 OFFCURVE",
"182 257 OFFCURVE",
"141 257 CURVE",
"221 373 OFFCURVE",
"353 488 OFFCURVE",
"469 532 CURVE",
"469 499 OFFCURVE",
"444 382 OFFCURVE",
"419 255 CURVE"
);
},
{
closed = 1;
nodes = (
"588 602 OFFCURVE",
"589 606 OFFCURVE",
"589 609 CURVE SMOOTH",
"589 613 OFFCURVE",
"588 618 OFFCURVE",
"585 622 CURVE SMOOTH",
"568 649 OFFCURVE",
"524 707 OFFCURVE",
"505 714 CURVE",
"486 713 OFFCURVE",
"412 640 OFFCURVE",
"395 626 CURVE SMOOTH",
"390 622 OFFCURVE",
"384 613 OFFCURVE",
"384 608 CURVE SMOOTH",
"384 607 OFFCURVE",
"385 604 OFFCURVE",
"387 604 CURVE SMOOTH",
"408 604 OFFCURVE",
"461 659 OFFCURVE",
"493 679 CURVE",
"516 654 OFFCURVE",
"588 602 OFFCURVE",
"584 602 CURVE"
);
}
);
width = 470;
}
);
note = Acircumflex.001;
},
{
glyphname = Adieresis.ss01;
lastChange = "2021-06-07 01:12:49 +0000";
layers = (
{
layerId = "BDD3FA2A-F197-48C4-9241-A354346F8EDC";
paths = (
{
closed = 1;
nodes = (
"30 -24 OFFCURVE",
"30 -17 OFFCURVE",
"32 -15 CURVE",
"32 34 OFFCURVE",
"91 201 OFFCURVE",
"130 225 CURVE",
"147 225 OFFCURVE",
"186 225 OFFCURVE",
"220 225 CURVE SMOOTH",
"285 225 OFFCURVE",
"369 226 OFFCURVE",
"414 232 CURVE",
"398 151 OFFCURVE",
"381 72 OFFCURVE",
"368 13 CURVE SMOOTH",
"368 12 LINE SMOOTH",
"368 5 OFFCURVE",
"376 -6 OFFCURVE",
"388 -6 CURVE SMOOTH",
"392 -6 OFFCURVE",
"395 -5 OFFCURVE",
"396 0 CURVE SMOOTH",
"427 134 OFFCURVE",
"524 463 OFFCURVE",
"524 528 CURVE SMOOTH",
"524 531 OFFCURVE",
"524 533 OFFCURVE",
"524 534 CURVE SMOOTH",
"521 554 OFFCURVE",
"478 561 OFFCURVE",
"464 561 CURVE SMOOTH",
"380 561 OFFCURVE",
"159 341 OFFCURVE",
"106 260 CURVE",
"73 254 OFFCURVE",
"45 257 OFFCURVE",
"45 236 CURVE SMOOTH",
"45 227 OFFCURVE",
"51 221 OFFCURVE",
"64 221 CURVE SMOOTH",
"84 221 LINE",
"52 171 OFFCURVE",
"4 84 OFFCURVE",
"4 20 CURVE SMOOTH",
"4 13 OFFCURVE",
"6 -24 OFFCURVE",
"27 -24 CURVE SMOOTH"
);
},
{
closed = 1;
nodes = (
"332 255 OFFCURVE",
"182 257 OFFCURVE",
"141 257 CURVE",
"221 373 OFFCURVE",
"353 488 OFFCURVE",
"469 532 CURVE",
"469 499 OFFCURVE",
"444 382 OFFCURVE",
"419 255 CURVE"
);
},
{
closed = 1;
nodes = (
"426 636 OFFCURVE",
"443 665 OFFCURVE",
"443 675 CURVE SMOOTH",
"443 682 OFFCURVE",
"449 697 OFFCURVE",
"449 702 CURVE SMOOTH",
"449 703 OFFCURVE",
"448 703 OFFCURVE",
"447 703 CURVE SMOOTH",
"446 703 OFFCURVE",
"439 700 OFFCURVE",
"431 693 CURVE SMOOTH",
"426 688 OFFCURVE",
"384 658 OFFCURVE",
"384 653 CURVE SMOOTH",
"384 636 OFFCURVE",
"403 636 OFFCURVE",
"416 636 CURVE SMOOTH"
);
},
{
closed = 1;
nodes = (
"590 636 OFFCURVE",
"608 687 OFFCURVE",
"608 702 CURVE SMOOTH",
"608 703 OFFCURVE",
"607 703 OFFCURVE",
"606 703 CURVE SMOOTH",
"604 703 OFFCURVE",
"597 700 OFFCURVE",
"589 693 CURVE SMOOTH",
"584 688 OFFCURVE",
"541 658 OFFCURVE",
"541 653 CURVE SMOOTH",
"541 636 OFFCURVE",
"561 636 OFFCURVE",
"575 636 CURVE SMOOTH"
);
}
);
width = 470;
}
);
note = Adieresis.001;
},
{
glyphname = Agrave.ss01;
lastChange = "2021-06-07 01:12:49 +0000";
layers = (
{
layerId = "BDD3FA2A-F197-48C4-9241-A354346F8EDC";
paths = (
{
closed = 1;
nodes = (
"30 -24 OFFCURVE",
"30 -17 OFFCURVE",
"32 -15 CURVE",
"32 34 OFFCURVE",
"91 201 OFFCURVE",
"130 225 CURVE",
"147 225 OFFCURVE",
"186 225 OFFCURVE",
"220 225 CURVE SMOOTH",
"285 225 OFFCURVE",
"369 226 OFFCURVE",
"414 232 CURVE",
"398 151 OFFCURVE",
"381 72 OFFCURVE",
"368 13 CURVE SMOOTH",
"368 12 LINE SMOOTH",
"368 5 OFFCURVE",
"376 -6 OFFCURVE",
"388 -6 CURVE SMOOTH",
"392 -6 OFFCURVE",
"395 -5 OFFCURVE",
"396 0 CURVE SMOOTH",
"427 134 OFFCURVE",
"524 463 OFFCURVE",
"524 528 CURVE SMOOTH",
"524 531 OFFCURVE",
"524 533 OFFCURVE",
"524 534 CURVE SMOOTH",
"521 554 OFFCURVE",
"478 561 OFFCURVE",
"464 561 CURVE SMOOTH",
"380 561 OFFCURVE",
"159 341 OFFCURVE",
"106 260 CURVE",
"73 254 OFFCURVE",
"45 257 OFFCURVE",
"45 236 CURVE SMOOTH",
"45 227 OFFCURVE",
"51 221 OFFCURVE",
"64 221 CURVE SMOOTH",
"84 221 LINE",
"52 171 OFFCURVE",
"4 84 OFFCURVE",
"4 20 CURVE SMOOTH",
"4 13 OFFCURVE",
"6 -24 OFFCURVE",
"27 -24 CURVE SMOOTH"
);
},
{
closed = 1;
nodes = (
"332 255 OFFCURVE",
"182 257 OFFCURVE",
"141 257 CURVE",
"221 373 OFFCURVE",
"353 488 OFFCURVE",
"469 532 CURVE",
"469 499 OFFCURVE",
"444 382 OFFCURVE",
"419 255 CURVE"
);
},
{
closed = 1;
nodes = (
"544 620 OFFCURVE",
"546 623 OFFCURVE",
"546 625 CURVE SMOOTH",
"546 628 OFFCURVE",
"544 630 OFFCURVE",
"541 631 CURVE",
"494 666 OFFCURVE",
"421 731 OFFCURVE",
"392 731 CURVE SMOOTH",
"375 731 OFFCURVE",
"369 721 OFFCURVE",
"369 716 CURVE SMOOTH",
"369 686 OFFCURVE",
"515 620 OFFCURVE",
"538 620 CURVE SMOOTH"
);
}
);
width = 470;
}
);
note = Agrave.001;
},
{
glyphname = Amacron.ss01;
lastChange = "2021-06-07 01:12:49 +0000";
layers = (
{
layerId = "BDD3FA2A-F197-48C4-9241-A354346F8EDC";
paths = (
{
closed = 1;
nodes = (
"30 -24 OFFCURVE",
"30 -17 OFFCURVE",
"32 -15 CURVE",
"32 34 OFFCURVE",
"91 201 OFFCURVE",
"130 225 CURVE",
"147 225 OFFCURVE",
"186 225 OFFCURVE",
"220 225 CURVE SMOOTH",
"285 225 OFFCURVE",
"369 226 OFFCURVE",
"414 232 CURVE",
"398 151 OFFCURVE",
"381 72 OFFCURVE",
"368 13 CURVE SMOOTH",
"368 12 LINE SMOOTH",
"368 5 OFFCURVE",
"376 -6 OFFCURVE",
"388 -6 CURVE SMOOTH",
"392 -6 OFFCURVE",
"395 -5 OFFCURVE",
"396 0 CURVE SMOOTH",
"427 134 OFFCURVE",
"524 463 OFFCURVE",
"524 528 CURVE SMOOTH",
"524 531 OFFCURVE",
"524 533 OFFCURVE",
"524 534 CURVE SMOOTH",
"521 554 OFFCURVE",
"478 561 OFFCURVE",
"464 561 CURVE SMOOTH",
"380 561 OFFCURVE",
"159 341 OFFCURVE",
"106 260 CURVE",
"73 254 OFFCURVE",
"45 257 OFFCURVE",
"45 236 CURVE SMOOTH",
"45 227 OFFCURVE",
"51 221 OFFCURVE",
"64 221 CURVE SMOOTH",
"84 221 LINE",
"52 171 OFFCURVE",
"4 84 OFFCURVE",
"4 20 CURVE SMOOTH",
"4 13 OFFCURVE",
"6 -24 OFFCURVE",
"27 -24 CURVE SMOOTH"
);
},
{
closed = 1;
nodes = (
"332 255 OFFCURVE",
"182 257 OFFCURVE",
"141 257 CURVE",
"221 373 OFFCURVE",
"353 488 OFFCURVE",
"469 532 CURVE",
"469 499 OFFCURVE",
"444 382 OFFCURVE",
"419 255 CURVE"
);
},
{
closed = 1;
nodes = (
"437 626 OFFCURVE",
"515 633 OFFCURVE",
"562 635 CURVE SMOOTH",
"569 636 OFFCURVE",
"615 639 OFFCURVE",
"615 652 CURVE",
"614 658 OFFCURVE",
"593 664 OFFCURVE",
"561 664 CURVE SMOOTH",
"530 664 OFFCURVE",
"499 665 OFFCURVE",
"472 665 CURVE SMOOTH",
"420 665 OFFCURVE",
"381 661 OFFCURVE",
"381 636 CURVE SMOOTH",
"381 629 OFFCURVE",
"386 626 OFFCURVE",
"403 626 CURVE SMOOTH"
);
}
);
width = 470;
}
);
note = Amacron.001;
},
{
glyphname = Aogonek.ss01;
lastChange = "2021-06-07 01:12:49 +0000";
layers = (
{
layerId = "BDD3FA2A-F197-48C4-9241-A354346F8EDC";
paths = (
{
closed = 1;
nodes = (
"267 -297 OFFCURVE",
"340 -189 OFFCURVE",
"354 -172 CURVE SMOOTH",
"359 -167 OFFCURVE",
"362 -161 OFFCURVE",
"362 -157 CURVE SMOOTH",
"362 -153 OFFCURVE",
"361 -151 OFFCURVE",
"357 -151 CURVE SMOOTH",
"353 -151 OFFCURVE",
"348 -153 OFFCURVE",
"342 -160 CURVE",
"322 -175 OFFCURVE",
"214 -279 OFFCURVE",
"172 -279 CURVE SMOOTH",
"158 -279 OFFCURVE",
"152 -262 OFFCURVE",
"152 -250 CURVE SMOOTH",
"152 -203 OFFCURVE",
"215 -131 OFFCURVE",
"239 -108 CURVE SMOOTH",
"288 -64 OFFCURVE",
"343 -42 OFFCURVE",
"382 -5 CURVE",
"384 -6 OFFCURVE",
"386 -6 OFFCURVE",
"388 -6 CURVE SMOOTH",
"392 -6 OFFCURVE",
"395 -5 OFFCURVE",
"396 0 CURVE SMOOTH",
"427 134 OFFCURVE",
"524 463 OFFCURVE",
"524 528 CURVE SMOOTH",
"524 531 OFFCURVE",
"524 533 OFFCURVE",
"524 534 CURVE SMOOTH",
"521 554 OFFCURVE",
"478 561 OFFCURVE",
"464 561 CURVE SMOOTH",
"380 561 OFFCURVE",
"159 341 OFFCURVE",
"106 260 CURVE",
"73 254 OFFCURVE",
"45 257 OFFCURVE",
"45 236 CURVE SMOOTH",
"45 227 OFFCURVE",
"51 221 OFFCURVE",
"64 221 CURVE SMOOTH",
"84 221 LINE",
"52 171 OFFCURVE",
"4 84 OFFCURVE",
"4 20 CURVE SMOOTH",
"4 13 OFFCURVE",
"6 -24 OFFCURVE",
"27 -24 CURVE SMOOTH",
"30 -24 OFFCURVE",
"30 -17 OFFCURVE",
"32 -15 CURVE",
"32 34 OFFCURVE",
"91 201 OFFCURVE",
"130 225 CURVE",
"147 225 OFFCURVE",
"186 225 OFFCURVE",
"220 225 CURVE SMOOTH",
"285 225 OFFCURVE",
"369 226 OFFCURVE",
"414 232 CURVE",
"398 151 OFFCURVE",
"381 72 OFFCURVE",
"368 13 CURVE SMOOTH",
"368 12 LINE SMOOTH",
"368 9 OFFCURVE",
"369 7 OFFCURVE",
"371 4 CURVE",
"345 -1 OFFCURVE",
"258 -60 OFFCURVE",
"189 -107 CURVE SMOOTH",
"142 -140 OFFCURVE",
"108 -183 OFFCURVE",
"108 -223 CURVE SMOOTH",
"108 -263 OFFCURVE",
"151 -297 OFFCURVE",
"187 -297 CURVE SMOOTH"
);
},
{
closed = 1;
nodes = (
"332 255 OFFCURVE",
"182 257 OFFCURVE",
"141 257 CURVE",
"221 373 OFFCURVE",
"353 488 OFFCURVE",
"469 532 CURVE",
"469 499 OFFCURVE",
"444 382 OFFCURVE",
"419 255 CURVE"
);
}
);
width = 470;
}
);
note = Aogonek.001;
},
{
glyphname = Aring.ss01;
lastChange = "2021-06-07 01:12:49 +0000";
layers = (
{
layerId = "BDD3FA2A-F197-48C4-9241-A354346F8EDC";
paths = (
{
closed = 1;
nodes = (
"30 -24 OFFCURVE",
"30 -17 OFFCURVE",
"32 -15 CURVE",
"32 34 OFFCURVE",
"91 201 OFFCURVE",
"130 225 CURVE",
"147 225 OFFCURVE",
"186 225 OFFCURVE",
"220 225 CURVE SMOOTH",
"285 225 OFFCURVE",
"369 226 OFFCURVE",
"414 232 CURVE",
"398 151 OFFCURVE",
"381 72 OFFCURVE",
"368 13 CURVE SMOOTH",
"368 12 LINE SMOOTH",
"368 5 OFFCURVE",
"376 -6 OFFCURVE",
"388 -6 CURVE SMOOTH",
"392 -6 OFFCURVE",
"395 -5 OFFCURVE",
"396 0 CURVE SMOOTH",
"427 134 OFFCURVE",
"524 463 OFFCURVE",
"524 528 CURVE SMOOTH",
"524 531 OFFCURVE",
"524 533 OFFCURVE",
"524 534 CURVE SMOOTH",
"521 554 OFFCURVE",
"478 561 OFFCURVE",
"464 561 CURVE SMOOTH",
"380 561 OFFCURVE",
"159 341 OFFCURVE",
"106 260 CURVE",
"73 254 OFFCURVE",
"45 257 OFFCURVE",
"45 236 CURVE SMOOTH",
"45 227 OFFCURVE",
"51 221 OFFCURVE",
"64 221 CURVE SMOOTH",
"84 221 LINE",
"52 171 OFFCURVE",
"4 84 OFFCURVE",
"4 20 CURVE SMOOTH",
"4 13 OFFCURVE",
"6 -24 OFFCURVE",
"27 -24 CURVE SMOOTH"
);
},
{
closed = 1;
nodes = (
"332 255 OFFCURVE",
"182 257 OFFCURVE",
"141 257 CURVE",
"221 373 OFFCURVE",
"353 488 OFFCURVE",
"469 532 CURVE",
"469 499 OFFCURVE",
"444 382 OFFCURVE",
"419 255 CURVE"
);
},
{
closed = 1;
nodes = (
"544 603 OFFCURVE",
"586 644 OFFCURVE",
"586 684 CURVE SMOOTH",
"586 715 OFFCURVE",
"558 726 OFFCURVE",
"531 726 CURVE SMOOTH",
"452 726 OFFCURVE",
"432 668 OFFCURVE",
"432 652 CURVE SMOOTH",
"432 619 OFFCURVE",
"461 603 OFFCURVE",
"495 603 CURVE SMOOTH"
);
},
{
closed = 1;
nodes = (
"470 615 OFFCURVE",
"459 629 OFFCURVE",
"459 644 CURVE SMOOTH",
"459 670 OFFCURVE",
"493 714 OFFCURVE",
"529 714 CURVE SMOOTH",
"555 714 OFFCURVE",
"563 698 OFFCURVE",
"563 682 CURVE SMOOTH",
"563 649 OFFCURVE",
"529 615 OFFCURVE",
"495 615 CURVE SMOOTH"
);
}
);
width = 470;
}
);
note = Aring.001;
},
{
glyphname = Atilde.ss01;
lastChange = "2021-06-07 01:12:49 +0000";
layers = (
{
layerId = "BDD3FA2A-F197-48C4-9241-A354346F8EDC";
paths = (
{
closed = 1;
nodes = (
"30 -24 OFFCURVE",
"30 -17 OFFCURVE",
"32 -15 CURVE",
"32 34 OFFCURVE",
"91 201 OFFCURVE",
"130 225 CURVE",
"147 225 OFFCURVE",
"186 225 OFFCURVE",
"220 225 CURVE SMOOTH",
"285 225 OFFCURVE",
"369 226 OFFCURVE",
"414 232 CURVE",
"398 151 OFFCURVE",
"381 72 OFFCURVE",
"368 13 CURVE SMOOTH",
"368 12 LINE SMOOTH",
"368 5 OFFCURVE",
"376 -6 OFFCURVE",
"388 -6 CURVE SMOOTH",
"392 -6 OFFCURVE",
"395 -5 OFFCURVE",
"396 0 CURVE SMOOTH",
"427 134 OFFCURVE",
"524 463 OFFCURVE",
"524 528 CURVE SMOOTH",
"524 531 OFFCURVE",
"524 533 OFFCURVE",
"524 534 CURVE SMOOTH",
"521 554 OFFCURVE",
"478 561 OFFCURVE",
"464 561 CURVE SMOOTH",
"380 561 OFFCURVE",
"159 341 OFFCURVE",
"106 260 CURVE",
"73 254 OFFCURVE",
"45 257 OFFCURVE",
"45 236 CURVE SMOOTH",
"45 227 OFFCURVE",
"51 221 OFFCURVE",
"64 221 CURVE SMOOTH",
"84 221 LINE",
"52 171 OFFCURVE",
"4 84 OFFCURVE",
"4 20 CURVE SMOOTH",
"4 13 OFFCURVE",
"6 -24 OFFCURVE",
"27 -24 CURVE SMOOTH"
);
},
{
closed = 1;
nodes = (
"332 255 OFFCURVE",
"182 257 OFFCURVE",
"141 257 CURVE",
"221 373 OFFCURVE",
"353 488 OFFCURVE",
"469 532 CURVE",
"469 499 OFFCURVE",
"444 382 OFFCURVE",
"419 255 CURVE"
);
},
{
closed = 1;
nodes = (
"382 612 OFFCURVE",
"420 651 OFFCURVE",
"446 651 CURVE SMOOTH",
"483 651 OFFCURVE",
"521 618 OFFCURVE",
"558 618 CURVE SMOOTH",
"589 618 OFFCURVE",
"619 647 OFFCURVE",
"634 681 CURVE",
"634 684 OFFCURVE",
"629 685 OFFCURVE",
"624 685 CURVE SMOOTH",
"611 685 OFFCURVE",
"602 649 OFFCURVE",
"577 649 CURVE SMOOTH",
"538 649 OFFCURVE",
"481 694 OFFCURVE",
"457 694 CURVE SMOOTH",
"419 694 OFFCURVE",
"392 654 OFFCURVE",
"365 618 CURVE",
"365 617 LINE SMOOTH",
"365 614 OFFCURVE",
"370 612 OFFCURVE",
"375 612 CURVE SMOOTH"
);
}
);
width = 470;
}
);
note = Atilde.001;
},
{
glyphname = AE.ss01;
lastChange = "2021-06-07 01:12:49 +0000";
layers = (
{
layerId = "BDD3FA2A-F197-48C4-9241-A354346F8EDC";
paths = (
{
closed = 1;
nodes = (
"27 -72 OFFCURVE",
"27 -64 OFFCURVE",
"28 -62 CURVE",
"33 11 OFFCURVE",
"78 146 OFFCURVE",
"125 225 CURVE",
"296 225 LINE SMOOTH",
"311 226 OFFCURVE",
"341 226 OFFCURVE",
"379 226 CURVE",
"362 183 OFFCURVE",
"351 138 OFFCURVE",
"351 97 CURVE SMOOTH",
"351 30 OFFCURVE",
"384 -24 OFFCURVE",
"487 -24 CURVE SMOOTH",
"659 -24 OFFCURVE",
"791 64 OFFCURVE",
"850 136 CURVE",
"851 138 OFFCURVE",
"852 141 OFFCURVE",
"852 143 CURVE SMOOTH",
"852 149 OFFCURVE",
"850 154 OFFCURVE",
"846 154 CURVE SMOOTH",
"845 154 OFFCURVE",
"843 153 OFFCURVE",
"841 152 CURVE",
"767 66 OFFCURVE",
"628 9 OFFCURVE",
"516 9 CURVE SMOOTH",
"430 9 OFFCURVE",
"404 63 OFFCURVE",
"404 124 CURVE SMOOTH",
"404 160 OFFCURVE",
"413 197 OFFCURVE",
"425 227 CURVE",
"551 227 OFFCURVE",
"652 232 OFFCURVE",
"656 243 CURVE",
"656 244 OFFCURVE",
"656 244 OFFCURVE",
"656 246 CURVE SMOOTH",
"656 255 OFFCURVE",
"607 256 OFFCURVE",
"538 256 CURVE SMOOTH",
"526 256 OFFCURVE",
"513 256 OFFCURVE",
"499 256 CURVE SMOOTH",
"479 256 OFFCURVE",
"458 256 OFFCURVE",
"437 256 CURVE",
"465 314 OFFCURVE",
"554 479 OFFCURVE",
"578 493 CURVE SMOOTH",
"611 511 OFFCURVE",
"703 524 OFFCURVE",
"779 527 CURVE",
"744 495 OFFCURVE",
"737 460 OFFCURVE",
"737 426 CURVE SMOOTH",
"737 392 OFFCURVE",
"747 387 OFFCURVE",
"754 387 CURVE SMOOTH",
"758 387 OFFCURVE",
"760 390 OFFCURVE",
"760 393 CURVE SMOOTH",
"760 401 OFFCURVE",
"753 408 OFFCURVE",
"753 418 CURVE SMOOTH",
"753 475 OFFCURVE",
"839 513 OFFCURVE",
"839 533 CURVE SMOOTH",
"839 541 OFFCURVE",
"829 546 OFFCURVE",
"816 546 CURVE SMOOTH",
"812 546 OFFCURVE",
"806 545 OFFCURVE",
"804 545 CURVE SMOOTH",
"770 548 OFFCURVE",
"732 549 OFFCURVE",
"697 549 CURVE SMOOTH",
"624 549 OFFCURVE",
"564 548 OFFCURVE",
"524 537 CURVE",
"518 554 OFFCURVE",
"477 561 OFFCURVE",
"464 561 CURVE SMOOTH",
"346 561 OFFCURVE",
"159 341 OFFCURVE",
"106 260 CURVE",
"74 254 OFFCURVE",
"45 257 OFFCURVE",
"45 236 CURVE SMOOTH",
"45 228 OFFCURVE",
"51 221 OFFCURVE",
"64 221 CURVE SMOOTH",
"84 221 LINE",
"52 171 OFFCURVE",
"0 46 OFFCURVE",
"0 -28 CURVE SMOOTH",
"0 -34 OFFCURVE",
"2 -72 OFFCURVE",
"23 -72 CURVE SMOOTH"
);
},
{
closed = 1;
nodes = (
"319 256 OFFCURVE",
"246 257 OFFCURVE",
"189 257 CURVE SMOOTH",
"141 257 LINE",
"221 373 OFFCURVE",
"333 506 OFFCURVE",
"470 544 CURVE",
"477 539 OFFCURVE",
"492 532 OFFCURVE",
"492 501 CURVE SMOOTH",
"492 409 OFFCURVE",
"427 336 OFFCURVE",
"391 256 CURVE"
);
}
);
width = 852;
}
);
note = AE.001;
},
{
glyphname = B.ss01;
lastChange = "2021-06-07 01:12:49 +0000";
layers = (
{
layerId = "BDD3FA2A-F197-48C4-9241-A354346F8EDC";
paths = (
{
closed = 1;
nodes = (
"186 -25 OFFCURVE",
"460 20 OFFCURVE",
"460 153 CURVE SMOOTH",
"460 233 OFFCURVE",
"353 278 OFFCURVE",
"270 279 CURVE",
"347 290 OFFCURVE",
"526 336 OFFCURVE",
"526 432 CURVE SMOOTH",
"526 531 OFFCURVE",
"341 554 OFFCURVE",
"223 554 CURVE SMOOTH",
"182 554 OFFCURVE",
"102 551 OFFCURVE",
"102 518 CURVE SMOOTH",
"102 511 OFFCURVE",
"113 506 OFFCURVE",
"142 506 CURVE SMOOTH",
"164 506 OFFCURVE",
"196 510 OFFCURVE",
"225 510 CURVE",
"193 471 OFFCURVE",
"17 66 OFFCURVE",
"17 6 CURVE",
"4 9 LINE",
"-3 9 OFFCURVE",
"-9 9 OFFCURVE",
"-9 0 CURVE SMOOTH",
"-9 -29 OFFCURVE",
"58 -25 OFFCURVE",
"87 -25 CURVE SMOOTH"
);
},
{
closed = 1;
nodes = (
"74 103 OFFCURVE",
"121 205 OFFCURVE",
"145 255 CURVE",
"218 255 OFFCURVE",
"391 251 OFFCURVE",
"409 159 CURVE",
"409 157 OFFCURVE",
"409 152 OFFCURVE",
"409 149 CURVE SMOOTH",
"409 57 OFFCURVE",
"206 6 OFFCURVE",
"56 6 CURVE"
);
},
{
closed = 1;
nodes = (
"186 346 OFFCURVE",
"272 477 OFFCURVE",
"271 489 CURVE SMOOTH",
"270 497 OFFCURVE",
"262 504 OFFCURVE",
"256 510 CURVE",
"320 510 OFFCURVE",
"380 509 OFFCURVE",
"443 492 CURVE SMOOTH",
"479 481 OFFCURVE",
"494 460 OFFCURVE",
"494 438 CURVE SMOOTH",
"494 321 OFFCURVE",
"198 292 OFFCURVE",
"159 292 CURVE"
);
}
);
width = 471;
}
);
note = B.001;
},
{
glyphname = C.ss01;
lastChange = "2021-06-07 01:12:49 +0000";
layers = (
{
layerId = "BDD3FA2A-F197-48C4-9241-A354346F8EDC";
paths = (
{
closed = 1;
nodes = (
"342 -25 OFFCURVE",
"479 52 OFFCURVE",
"551 161 CURVE SMOOTH",
"554 164 OFFCURVE",
"555 168 OFFCURVE",
"555 171 CURVE SMOOTH",
"555 175 OFFCURVE",
"552 178 OFFCURVE",
"549 178 CURVE SMOOTH",
"546 178 OFFCURVE",
"543 177 OFFCURVE",
"540 172 CURVE SMOOTH",
"453 53 OFFCURVE",
"307 -6 OFFCURVE",
"220 -6 CURVE SMOOTH",
"135 -6 OFFCURVE",
"80 45 OFFCURVE",
"80 134 CURVE SMOOTH",
"80 290 OFFCURVE",
"272 543 OFFCURVE",
"420 543 CURVE SMOOTH",
"455 543 OFFCURVE",
"497 522 OFFCURVE",
"497 483 CURVE SMOOTH",
"497 461 OFFCURVE",
"487 439 OFFCURVE",
"471 425 CURVE",
"447 408 LINE SMOOTH",
"446 407 OFFCURVE",
"446 406 OFFCURVE",
"446 404 CURVE SMOOTH",
"446 401 OFFCURVE",
"449 398 OFFCURVE",
"457 398 CURVE SMOOTH",
"471 398 OFFCURVE",
"534 421 OFFCURVE",
"534 486 CURVE SMOOTH",
"534 551 OFFCURVE",
"470 563 OFFCURVE",
"427 563 CURVE SMOOTH",
"238 563 OFFCURVE",
"27 318 OFFCURVE",
"27 147 CURVE SMOOTH",
"27 29 OFFCURVE",
"123 -25 OFFCURVE",
"212 -25 CURVE SMOOTH"
);
}
);
width = 478;
}
);
note = C.001;
},
{
glyphname = Cacute.ss01;
lastChange = "2021-06-07 01:12:49 +0000";
layers = (
{
layerId = "BDD3FA2A-F197-48C4-9241-A354346F8EDC";
paths = (
{
closed = 1;
nodes = (
"342 -25 OFFCURVE",
"479 52 OFFCURVE",
"551 161 CURVE SMOOTH",
"554 164 OFFCURVE",
"555 168 OFFCURVE",
"555 171 CURVE SMOOTH",
"555 175 OFFCURVE",
"552 178 OFFCURVE",
"549 178 CURVE SMOOTH",
"546 178 OFFCURVE",
"543 177 OFFCURVE",
"540 172 CURVE SMOOTH",
"453 53 OFFCURVE",
"307 -6 OFFCURVE",
"220 -6 CURVE SMOOTH",
"135 -6 OFFCURVE",
"80 45 OFFCURVE",
"80 134 CURVE SMOOTH",
"80 290 OFFCURVE",
"272 543 OFFCURVE",
"420 543 CURVE SMOOTH",
"455 543 OFFCURVE",
"497 522 OFFCURVE",
"497 483 CURVE SMOOTH",
"497 461 OFFCURVE",
"487 439 OFFCURVE",
"471 425 CURVE",
"447 408 LINE SMOOTH",
"446 407 OFFCURVE",
"446 406 OFFCURVE",
"446 404 CURVE SMOOTH",
"446 401 OFFCURVE",
"449 398 OFFCURVE",
"457 398 CURVE SMOOTH",
"471 398 OFFCURVE",
"534 421 OFFCURVE",
"534 486 CURVE SMOOTH",
"534 551 OFFCURVE",
"470 563 OFFCURVE",
"427 563 CURVE SMOOTH",
"238 563 OFFCURVE",
"27 318 OFFCURVE",
"27 147 CURVE SMOOTH",
"27 29 OFFCURVE",
"123 -25 OFFCURVE",
"212 -25 CURVE SMOOTH"
);
},
{
closed = 1;
nodes = (
"453 629 OFFCURVE",
"574 686 OFFCURVE",
"595 704 CURVE SMOOTH",
"596 705 LINE SMOOTH",
"599 708 OFFCURVE",
"602 713 OFFCURVE",
"602 718 CURVE SMOOTH",
"602 727 OFFCURVE",
"593 743 OFFCURVE",
"571 743 CURVE SMOOTH",
"563 743 OFFCURVE",
"427 644 OFFCURVE",
"427 631 CURVE SMOOTH",
"427 629 OFFCURVE",
"430 628 OFFCURVE",
"436 628 CURVE SMOOTH"
);
}
);
width = 479;
}
);
note = Cacute.001;
},
{
glyphname = Ccaron.ss01;
lastChange = "2021-06-07 01:12:49 +0000";
layers = (
{
layerId = "BDD3FA2A-F197-48C4-9241-A354346F8EDC";
paths = (
{
closed = 1;
nodes = (
"342 -25 OFFCURVE",
"479 52 OFFCURVE",
"551 161 CURVE SMOOTH",
"554 164 OFFCURVE",
"555 168 OFFCURVE",
"555 171 CURVE SMOOTH",
"555 175 OFFCURVE",
"552 178 OFFCURVE",
"549 178 CURVE SMOOTH",
"546 178 OFFCURVE",
"543 177 OFFCURVE",
"540 172 CURVE SMOOTH",
"453 53 OFFCURVE",
"307 -6 OFFCURVE",
"220 -6 CURVE SMOOTH",
"135 -6 OFFCURVE",
"80 45 OFFCURVE",
"80 134 CURVE SMOOTH",
"80 290 OFFCURVE",
"272 543 OFFCURVE",
"420 543 CURVE SMOOTH",
"455 543 OFFCURVE",
"497 522 OFFCURVE",
"497 483 CURVE SMOOTH",
"497 461 OFFCURVE",
"487 439 OFFCURVE",
"471 425 CURVE",
"447 408 LINE SMOOTH",
"446 407 OFFCURVE",
"446 406 OFFCURVE",
"446 404 CURVE SMOOTH",
"446 401 OFFCURVE",
"449 398 OFFCURVE",
"457 398 CURVE SMOOTH",
"471 398 OFFCURVE",
"534 421 OFFCURVE",
"534 486 CURVE SMOOTH",
"534 551 OFFCURVE",
"470 563 OFFCURVE",
"427 563 CURVE SMOOTH",
"238 563 OFFCURVE",
"27 318 OFFCURVE",
"27 147 CURVE SMOOTH",
"27 29 OFFCURVE",
"123 -25 OFFCURVE",
"212 -25 CURVE SMOOTH"
);
},
{
closed = 1;
nodes = (
"506 625 OFFCURVE",
"580 698 OFFCURVE",
"597 711 CURVE SMOOTH",
"604 715 OFFCURVE",
"609 724 OFFCURVE",
"609 728 CURVE SMOOTH",
"609 731 OFFCURVE",
"608 732 OFFCURVE",
"606 732 CURVE SMOOTH",
"584 732 OFFCURVE",
"531 679 OFFCURVE",
"500 660 CURVE",
"478 685 OFFCURVE",
"404 737 OFFCURVE",
"408 737 CURVE",
"404 737 OFFCURVE",
"403 733 OFFCURVE",
"403 728 CURVE SMOOTH",
"403 725 OFFCURVE",
"404 720 OFFCURVE",
"407 716 CURVE SMOOTH",
"426 688 OFFCURVE",
"469 631 OFFCURVE",
"488 624 CURVE"
);
}
);
width = 479;
}
);
note = Ccaron.001;
},
{
glyphname = Ccedilla.ss01;
lastChange = "2021-06-07 01:12:49 +0000";
layers = (
{
layerId = "BDD3FA2A-F197-48C4-9241-A354346F8EDC";
paths = (
{
closed = 1;
nodes = (
"171 -297 OFFCURVE",
"273 -239 OFFCURVE",
"273 -171 CURVE SMOOTH",
"273 -132 OFFCURVE",
"242 -101 OFFCURVE",
"185 -101 CURVE SMOOTH",
"174 -101 OFFCURVE",
"161 -102 OFFCURVE",
"147 -104 CURVE",
"158 -91 OFFCURVE",
"201 -34 OFFCURVE",
"204 -25 CURVE",
"340 -25 OFFCURVE",
"476 47 OFFCURVE",
"551 161 CURVE SMOOTH",
"554 164 OFFCURVE",
"555 168 OFFCURVE",
"555 171 CURVE SMOOTH",
"555 175 OFFCURVE",
"552 178 OFFCURVE",
"549 178 CURVE SMOOTH",
"546 178 OFFCURVE",
"543 177 OFFCURVE",
"540 172 CURVE SMOOTH",
"453 53 OFFCURVE",
"307 -6 OFFCURVE",
"220 -6 CURVE SMOOTH",
"135 -6 OFFCURVE",
"80 45 OFFCURVE",
"80 134 CURVE SMOOTH",
"80 290 OFFCURVE",
"272 543 OFFCURVE",
"420 543 CURVE SMOOTH",
"455 543 OFFCURVE",
"497 522 OFFCURVE",
"497 483 CURVE SMOOTH",
"497 461 OFFCURVE",
"487 439 OFFCURVE",
"471 425 CURVE",
"447 408 LINE SMOOTH",
"446 407 OFFCURVE",
"446 406 OFFCURVE",
"446 404 CURVE SMOOTH",
"446 401 OFFCURVE",
"449 398 OFFCURVE",
"457 398 CURVE SMOOTH",
"471 398 OFFCURVE",
"534 421 OFFCURVE",
"534 486 CURVE SMOOTH",
"534 551 OFFCURVE",
"470 563 OFFCURVE",
"427 563 CURVE SMOOTH",
"238 563 OFFCURVE",
"27 318 OFFCURVE",
"27 147 CURVE SMOOTH",
"27 42 OFFCURVE",
"102 -11 OFFCURVE",
"181 -23 CURVE",
"158 -43 OFFCURVE",
"114 -118 OFFCURVE",
"114 -127 CURVE SMOOTH",
"114 -131 OFFCURVE",
"116 -132 OFFCURVE",
"123 -132 CURVE SMOOTH",
"134 -132 OFFCURVE",
"159 -125 OFFCURVE",
"178 -125 CURVE SMOOTH",
"209 -125 OFFCURVE",
"227 -145 OFFCURVE",
"227 -171 CURVE SMOOTH",
"227 -228 OFFCURVE",
"146 -279 OFFCURVE",
"81 -279 CURVE SMOOTH",
"39 -279 OFFCURVE",
"9 -237 OFFCURVE",
"0 -237 CURVE SMOOTH",
"-2 -237 OFFCURVE",
"-4 -239 OFFCURVE",
"-4 -242 CURVE SMOOTH",
"-4 -246 OFFCURVE",
"-2 -250 OFFCURVE",
"1 -256 CURVE SMOOTH",
"17 -284 OFFCURVE",
"51 -297 OFFCURVE",
"90 -297 CURVE SMOOTH"
);
}
);
width = 479;
}
);
note = Ccedilla.001;
},
{
glyphname = Ccircumflex.ss01;
lastChange = "2021-06-07 01:12:49 +0000";
layers = (
{
layerId = "BDD3FA2A-F197-48C4-9241-A354346F8EDC";
paths = (
{
closed = 1;
nodes = (
"342 -25 OFFCURVE",
"479 52 OFFCURVE",
"551 161 CURVE SMOOTH",
"554 164 OFFCURVE",
"555 168 OFFCURVE",
"555 171 CURVE SMOOTH",
"555 175 OFFCURVE",
"552 178 OFFCURVE",
"549 178 CURVE SMOOTH",
"546 178 OFFCURVE",
"543 177 OFFCURVE",
"540 172 CURVE SMOOTH",
"453 53 OFFCURVE",
"307 -6 OFFCURVE",
"220 -6 CURVE SMOOTH",
"135 -6 OFFCURVE",
"80 45 OFFCURVE",
"80 134 CURVE SMOOTH",
"80 290 OFFCURVE",
"272 543 OFFCURVE",
"420 543 CURVE SMOOTH",
"455 543 OFFCURVE",
"497 522 OFFCURVE",
"497 483 CURVE SMOOTH",
"497 461 OFFCURVE",
"487 439 OFFCURVE",
"471 425 CURVE",
"447 408 LINE SMOOTH",
"446 407 OFFCURVE",
"446 406 OFFCURVE",
"446 404 CURVE SMOOTH",
"446 401 OFFCURVE",
"449 398 OFFCURVE",
"457 398 CURVE SMOOTH",
"471 398 OFFCURVE",
"534 421 OFFCURVE",
"534 486 CURVE SMOOTH",
"534 551 OFFCURVE",
"470 563 OFFCURVE",
"427 563 CURVE SMOOTH",
"238 563 OFFCURVE",
"27 318 OFFCURVE",
"27 147 CURVE SMOOTH",
"27 29 OFFCURVE",
"123 -25 OFFCURVE",
"212 -25 CURVE SMOOTH"
);
},
{
closed = 1;
nodes = (
"566 624 OFFCURVE",
"567 628 OFFCURVE",
"567 631 CURVE SMOOTH",
"567 635 OFFCURVE",
"566 640 OFFCURVE",
"563 644 CURVE SMOOTH",
"545 671 OFFCURVE",
"501 728 OFFCURVE",
"483 737 CURVE",
"463 736 OFFCURVE",
"390 663 OFFCURVE",
"372 649 CURVE SMOOTH",
"367 644 OFFCURVE",
"361 635 OFFCURVE",
"361 630 CURVE SMOOTH",
"361 629 OFFCURVE",
"362 626 OFFCURVE",
"364 626 CURVE SMOOTH",
"386 626 OFFCURVE",
"439 681 OFFCURVE",
"471 702 CURVE",
"493 676 OFFCURVE",
"566 624 OFFCURVE",
"562 624 CURVE"
);
}
);
width = 479;
}
);
note = Ccircumflex.001;
},
{
glyphname = Cdotaccent.ss01;
lastChange = "2021-06-07 01:12:49 +0000";
layers = (
{
layerId = "BDD3FA2A-F197-48C4-9241-A354346F8EDC";
paths = (
{
closed = 1;
nodes = (
"342 -25 OFFCURVE",
"479 52 OFFCURVE",
"551 161 CURVE SMOOTH",
"554 164 OFFCURVE",
"555 168 OFFCURVE",
"555 171 CURVE SMOOTH",
"555 175 OFFCURVE",
"552 178 OFFCURVE",
"549 178 CURVE SMOOTH",
"546 178 OFFCURVE",
"543 177 OFFCURVE",
"540 172 CURVE SMOOTH",
"453 53 OFFCURVE",
"307 -6 OFFCURVE",
"220 -6 CURVE SMOOTH",
"135 -6 OFFCURVE",
"80 45 OFFCURVE",
"80 134 CURVE SMOOTH",
"80 290 OFFCURVE",
"272 543 OFFCURVE",
"420 543 CURVE SMOOTH",
"455 543 OFFCURVE",
"497 522 OFFCURVE",
"497 483 CURVE SMOOTH",
"497 461 OFFCURVE",
"487 439 OFFCURVE",
"471 425 CURVE",
"447 408 LINE SMOOTH",
"446 407 OFFCURVE",
"446 406 OFFCURVE",
"446 404 CURVE SMOOTH",
"446 401 OFFCURVE",
"449 398 OFFCURVE",
"457 398 CURVE SMOOTH",
"471 398 OFFCURVE",
"534 421 OFFCURVE",
"534 486 CURVE SMOOTH",
"534 551 OFFCURVE",
"470 563 OFFCURVE",
"427 563 CURVE SMOOTH",
"238 563 OFFCURVE",
"27 318 OFFCURVE",
"27 147 CURVE SMOOTH",
"27 29 OFFCURVE",
"123 -25 OFFCURVE",
"212 -25 CURVE SMOOTH"
);
},
{
closed = 1;
nodes = (
"460 628 OFFCURVE",
"486 668 OFFCURVE",
"486 680 CURVE SMOOTH",
"486 685 OFFCURVE",
"486 688 OFFCURVE",
"486 694 CURVE SMOOTH",
"486 704 OFFCURVE",
"484 711 OFFCURVE",
"477 711 CURVE SMOOTH",
"460 711 OFFCURVE",
"403 660 OFFCURVE",
"403 652 CURVE SMOOTH",
"403 628 OFFCURVE",
"431 628 OFFCURVE",
"448 628 CURVE SMOOTH"
);
}
);
width = 479;
}
);
note = Cdotaccent.001;
},
{
glyphname = D.ss01;
lastChange = "2021-06-07 01:12:49 +0000";
layers = (
{
layerId = "BDD3FA2A-F197-48C4-9241-A354346F8EDC";
paths = (
{
closed = 1;
nodes = (
"374 -11 OFFCURVE",
"595 121 OFFCURVE",
"595 329 CURVE SMOOTH",
"595 449 OFFCURVE",
"495 558 OFFCURVE",
"279 558 CURVE SMOOTH",
"189 558 OFFCURVE",
"94 546 OFFCURVE",
"94 518 CURVE SMOOTH",
"94 506 OFFCURVE",
"109 494 OFFCURVE",
"124 494 CURVE SMOOTH",
"125 494 OFFCURVE",
"127 495 OFFCURVE",
"129 495 CURVE",
"192 515 OFFCURVE",
"261 527 OFFCURVE",
"324 527 CURVE SMOOTH",
"490 527 OFFCURVE",
"548 441 OFFCURVE",
"548 346 CURVE SMOOTH",
"548 157 OFFCURVE",
"347 10 OFFCURVE",
"185 10 CURVE SMOOTH",
"143 10 OFFCURVE",
"106 18 OFFCURVE",
"75 39 CURVE",
"113 198 OFFCURVE",
"191 314 OFFCURVE",
"266 463 CURVE",
"266 464 OFFCURVE",
"266 465 OFFCURVE",
"266 465 CURVE",
"266 477 OFFCURVE",
"240 488 OFFCURVE",
"225 488 CURVE SMOOTH",
"203 488 OFFCURVE",
"87 222 OFFCURVE",
"42 66 CURVE",
"35 72 OFFCURVE",
"29 85 OFFCURVE",
"23 85 CURVE SMOOTH",
"17 85 OFFCURVE",
"15 79 OFFCURVE",
"15 70 CURVE SMOOTH",
"15 57 OFFCURVE",
"23 42 OFFCURVE",
"34 34 CURVE",
"32 21 OFFCURVE",
"30 12 OFFCURVE",
"30 6 CURVE",
"32 0 OFFCURVE",
"36 -1 OFFCURVE",
"44 -1 CURVE SMOOTH",
"53 -1 OFFCURVE",
"64 2 OFFCURVE",
"69 6 CURVE",
"70 10 LINE",
"102 -5 OFFCURVE",
"146 -11 OFFCURVE",
"187 -11 CURVE SMOOTH"
);
}
);
width = 567;
}
);
note = D.001;
},
{
glyphname = Eth.ss01;
lastChange = "2021-06-07 01:12:49 +0000";
layers = (
{
layerId = "BDD3FA2A-F197-48C4-9241-A354346F8EDC";
paths = (
{
closed = 1;
nodes = (
"374 -11 OFFCURVE",
"595 121 OFFCURVE",
"595 329 CURVE SMOOTH",
"595 449 OFFCURVE",
"495 558 OFFCURVE",
"279 558 CURVE SMOOTH",
"189 558 OFFCURVE",
"94 546 OFFCURVE",
"94 518 CURVE SMOOTH",
"94 506 OFFCURVE",
"109 494 OFFCURVE",
"124 494 CURVE SMOOTH",
"125 494 OFFCURVE",
"127 495 OFFCURVE",
"129 495 CURVE",
"192 515 OFFCURVE",
"261 527 OFFCURVE",
"324 527 CURVE SMOOTH",
"490 527 OFFCURVE",
"548 441 OFFCURVE",
"548 346 CURVE SMOOTH",
"548 157 OFFCURVE",
"347 10 OFFCURVE",
"185 10 CURVE SMOOTH",
"143 10 OFFCURVE",
"106 18 OFFCURVE",
"75 39 CURVE",
"90 103 OFFCURVE",
"112 160 OFFCURVE",
"137 215 CURVE",
"170 219 OFFCURVE",
"257 216 OFFCURVE",
"257 234 CURVE SMOOTH",
"257 242 OFFCURVE",
"236 248 OFFCURVE",
"204 248 CURVE SMOOTH",
"152 248 LINE",
"187 317 OFFCURVE",
"227 386 OFFCURVE",
"266 463 CURVE",
"266 464 OFFCURVE",
"266 465 OFFCURVE",
"266 465 CURVE",
"266 477 OFFCURVE",
"240 488 OFFCURVE",
"225 488 CURVE SMOOTH",
"205 488 OFFCURVE",
"161 385 OFFCURVE",
"106 248 CURVE",
"55 248 LINE SMOOTH",
"41 248 OFFCURVE",
"23 231 OFFCURVE",
"23 220 CURVE SMOOTH",
"23 215 OFFCURVE",
"28 210 OFFCURVE",
"42 210 CURVE SMOOTH",
"43 210 OFFCURVE",
"45 210 OFFCURVE",
"46 210 CURVE SMOOTH",
"94 212 LINE",
"73 158 OFFCURVE",
"53 104 OFFCURVE",
"42 66 CURVE",
"35 72 OFFCURVE",
"29 85 OFFCURVE",
"23 85 CURVE SMOOTH",
"17 85 OFFCURVE",
"15 79 OFFCURVE",
"15 70 CURVE SMOOTH",
"15 57 OFFCURVE",
"23 42 OFFCURVE",
"34 34 CURVE",
"32 21 OFFCURVE",
"30 12 OFFCURVE",
"30 6 CURVE",
"32 0 OFFCURVE",
"36 -1 OFFCURVE",
"44 -1 CURVE SMOOTH",
"53 -1 OFFCURVE",
"64 2 OFFCURVE",
"69 6 CURVE",
"70 10 LINE",
"102 -5 OFFCURVE",
"146 -11 OFFCURVE",
"187 -11 CURVE SMOOTH"
);
}
);
width = 567;
}
);
note = Eth.001;
},
{
glyphname = Dcaron.ss01;
lastChange = "2021-06-07 01:12:49 +0000";
layers = (
{
layerId = "BDD3FA2A-F197-48C4-9241-A354346F8EDC";
paths = (
{
closed = 1;
nodes = (
"374 -11 OFFCURVE",
"595 121 OFFCURVE",
"595 329 CURVE SMOOTH",
"595 449 OFFCURVE",
"495 558 OFFCURVE",
"279 558 CURVE SMOOTH",
"189 558 OFFCURVE",
"94 546 OFFCURVE",
"94 518 CURVE SMOOTH",
"94 506 OFFCURVE",
"109 494 OFFCURVE",
"124 494 CURVE SMOOTH",
"125 494 OFFCURVE",
"127 495 OFFCURVE",
"129 495 CURVE",
"192 515 OFFCURVE",
"261 527 OFFCURVE",
"324 527 CURVE SMOOTH",
"490 527 OFFCURVE",
"548 441 OFFCURVE",
"548 346 CURVE SMOOTH",
"548 157 OFFCURVE",
"347 10 OFFCURVE",
"185 10 CURVE SMOOTH",
"143 10 OFFCURVE",
"106 18 OFFCURVE",
"75 39 CURVE",
"113 198 OFFCURVE",
"191 314 OFFCURVE",
"266 463 CURVE",
"266 464 OFFCURVE",
"266 465 OFFCURVE",
"266 465 CURVE",
"266 477 OFFCURVE",
"240 488 OFFCURVE",
"225 488 CURVE SMOOTH",
"203 488 OFFCURVE",
"87 222 OFFCURVE",
"42 66 CURVE",
"35 72 OFFCURVE",
"29 85 OFFCURVE",
"23 85 CURVE SMOOTH",
"17 85 OFFCURVE",
"15 79 OFFCURVE",
"15 70 CURVE SMOOTH",
"15 57 OFFCURVE",
"23 42 OFFCURVE",
"34 34 CURVE",
"32 21 OFFCURVE",
"30 12 OFFCURVE",
"30 6 CURVE",
"32 0 OFFCURVE",
"36 -1 OFFCURVE",
"44 -1 CURVE SMOOTH",
"53 -1 OFFCURVE",
"64 2 OFFCURVE",
"69 6 CURVE",
"70 10 LINE",
"102 -5 OFFCURVE",
"146 -11 OFFCURVE",
"187 -11 CURVE SMOOTH"
);
},
{
closed = 1;
nodes = (
"408 618 OFFCURVE",
"482 691 OFFCURVE",
"499 704 CURVE SMOOTH",
"505 708 OFFCURVE",
"510 716 OFFCURVE",
"510 721 CURVE SMOOTH",
"510 724 OFFCURVE",
"509 725 OFFCURVE",
"506 725 CURVE SMOOTH",
"486 725 OFFCURVE",
"432 671 OFFCURVE",
"402 653 CURVE",
"380 677 OFFCURVE",
"306 728 OFFCURVE",
"310 728 CURVE",
"306 728 OFFCURVE",
"305 726 OFFCURVE",
"305 721 CURVE SMOOTH",
"305 718 OFFCURVE",
"306 713 OFFCURVE",
"308 709 CURVE",
"327 681 OFFCURVE",
"369 624 OFFCURVE",
"390 617 CURVE"
);
}
);
width = 567;
}
);
note = Dcaron.001;
},
{
glyphname = Dcroat.ss01;
lastChange = "2021-06-07 01:12:49 +0000";
layers = (
{
layerId = "BDD3FA2A-F197-48C4-9241-A354346F8EDC";
paths = (
{
closed = 1;
nodes = (
"374 -11 OFFCURVE",
"595 121 OFFCURVE",
"595 329 CURVE SMOOTH",
"595 449 OFFCURVE",
"495 558 OFFCURVE",
"279 558 CURVE SMOOTH",
"189 558 OFFCURVE",
"94 546 OFFCURVE",
"94 518 CURVE SMOOTH",
"94 506 OFFCURVE",
"109 494 OFFCURVE",
"124 494 CURVE SMOOTH",
"125 494 OFFCURVE",
"127 495 OFFCURVE",
"129 495 CURVE",
"192 515 OFFCURVE",
"261 527 OFFCURVE",
"324 527 CURVE SMOOTH",
"490 527 OFFCURVE",
"548 441 OFFCURVE",
"548 346 CURVE SMOOTH",
"548 157 OFFCURVE",
"347 10 OFFCURVE",
"185 10 CURVE SMOOTH",
"143 10 OFFCURVE",
"106 18 OFFCURVE",
"75 39 CURVE",
"92 112 OFFCURVE",
"118 175 OFFCURVE",
"147 236 CURVE",
"166 237 OFFCURVE",
"184 238 OFFCURVE",
"198 239 CURVE SMOOTH",
"206 240 OFFCURVE",
"252 243 OFFCURVE",
"252 256 CURVE",
"251 262 OFFCURVE",
"229 268 OFFCURVE",
"197 268 CURVE SMOOTH",
"186 268 OFFCURVE",
"175 268 OFFCURVE",
"164 268 CURVE",
"195 331 OFFCURVE",
"231 394 OFFCURVE",
"266 463 CURVE",
"266 464 OFFCURVE",
"266 465 OFFCURVE",
"266 465 CURVE",
"266 477 OFFCURVE",
"240 488 OFFCURVE",
"225 488 CURVE SMOOTH",
"211 488 OFFCURVE",
"161 385 OFFCURVE",
"115 269 CURVE",
"59 270 OFFCURVE",
"17 266 OFFCURVE",
"17 240 CURVE SMOOTH",
"17 233 OFFCURVE",
"23 231 OFFCURVE",
"40 231 CURVE SMOOTH",
"54 231 OFFCURVE",
"76 232 OFFCURVE",
"100 233 CURVE",
"77 175 OFFCURVE",
"56 116 OFFCURVE",
"42 66 CURVE",
"35 72 OFFCURVE",
"29 85 OFFCURVE",
"23 85 CURVE SMOOTH",
"17 85 OFFCURVE",
"15 79 OFFCURVE",
"15 70 CURVE SMOOTH",
"15 57 OFFCURVE",
"23 42 OFFCURVE",
"34 34 CURVE",
"32 21 OFFCURVE",
"30 12 OFFCURVE",
"30 6 CURVE",
"32 0 OFFCURVE",
"36 -1 OFFCURVE",
"44 -1 CURVE SMOOTH",
"53 -1 OFFCURVE",
"64 2 OFFCURVE",
"69 6 CURVE",
"70 10 LINE",
"102 -5 OFFCURVE",
"146 -11 OFFCURVE",
"187 -11 CURVE SMOOTH"
);
}
);
width = 567;
}
);
note = Dcroat.001;
},
{
glyphname = E.ss01;
lastChange = "2021-06-07 01:12:49 +0000";
layers = (
{
layerId = "BDD3FA2A-F197-48C4-9241-A354346F8EDC";
paths = (
{
closed = 1;
nodes = (
"345 -24 OFFCURVE",
"477 64 OFFCURVE",
"535 136 CURVE",
"537 137 OFFCURVE",
"538 141 OFFCURVE",
"538 143 CURVE SMOOTH",
"538 148 OFFCURVE",
"534 154 OFFCURVE",
"531 154 CURVE SMOOTH",
"529 154 OFFCURVE",
"528 153 OFFCURVE",
"527 152 CURVE SMOOTH",
"453 66 OFFCURVE",
"313 9 OFFCURVE",
"199 9 CURVE SMOOTH",
"115 9 OFFCURVE",
"90 63 OFFCURVE",
"90 124 CURVE SMOOTH",
"90 158 OFFCURVE",
"98 194 OFFCURVE",
"108 223 CURVE",
"216 226 OFFCURVE",
"340 233 OFFCURVE",
"340 246 CURVE SMOOTH",
"340 256 OFFCURVE",
"248 257 OFFCURVE",
"178 257 CURVE SMOOTH",
"157 257 OFFCURVE",
"138 257 OFFCURVE",
"124 257 CURVE",
"152 317 OFFCURVE",
"239 479 OFFCURVE",
"263 493 CURVE SMOOTH",
"296 511 OFFCURVE",
"388 524 OFFCURVE",
"464 528 CURVE",
"430 493 OFFCURVE",
"420 461 OFFCURVE",
"420 426 CURVE SMOOTH",
"420 393 OFFCURVE",
"432 387 OFFCURVE",
"439 387 CURVE SMOOTH",
"443 387 OFFCURVE",
"446 390 OFFCURVE",
"446 393 CURVE SMOOTH",
"446 401 OFFCURVE",
"438 409 OFFCURVE",
"438 418 CURVE SMOOTH",
"438 461 OFFCURVE",
"495 500 OFFCURVE",
"518 521 CURVE SMOOTH",
"523 526 OFFCURVE",
"524 529 OFFCURVE",
"524 533 CURVE SMOOTH",
"524 541 OFFCURVE",
"515 546 OFFCURVE",
"501 546 CURVE SMOOTH",
"497 546 OFFCURVE",
"493 546 OFFCURVE",
"488 544 CURVE",
"454 548 OFFCURVE",
"416 549 OFFCURVE",
"381 549 CURVE SMOOTH",
"283 549 OFFCURVE",
"176 545 OFFCURVE",
"176 508 CURVE SMOOTH",
"176 497 OFFCURVE",
"183 494 OFFCURVE",
"192 494 CURVE SMOOTH",
"197 494 OFFCURVE",
"204 494 OFFCURVE",
"210 494 CURVE SMOOTH",
"215 494 OFFCURVE",
"219 494 OFFCURVE",
"221 490 CURVE",
"188 450 OFFCURVE",
"109 327 OFFCURVE",
"76 257 CURVE",
"55 257 LINE SMOOTH",
"34 257 OFFCURVE",
"24 246 OFFCURVE",
"24 236 CURVE SMOOTH",
"24 227 OFFCURVE",
"30 221 OFFCURVE",
"44 221 CURVE SMOOTH",
"61 221 LINE",
"46 181 OFFCURVE",
"35 137 OFFCURVE",
"35 98 CURVE SMOOTH",
"35 30 OFFCURVE",
"69 -24 OFFCURVE",
"172 -24 CURVE SMOOTH"
);
}
);
width = 524;
}
);
note = E.001;
},
{
glyphname = Eacute.ss01;
lastChange = "2021-06-07 01:12:49 +0000";
layers = (
{
layerId = "BDD3FA2A-F197-48C4-9241-A354346F8EDC";
paths = (
{
closed = 1;
nodes = (
"345 -24 OFFCURVE",
"477 64 OFFCURVE",
"535 136 CURVE",
"537 137 OFFCURVE",
"538 141 OFFCURVE",
"538 143 CURVE SMOOTH",
"538 148 OFFCURVE",
"534 154 OFFCURVE",
"531 154 CURVE SMOOTH",
"529 154 OFFCURVE",
"528 153 OFFCURVE",
"527 152 CURVE SMOOTH",
"453 66 OFFCURVE",
"313 9 OFFCURVE",
"199 9 CURVE SMOOTH",
"115 9 OFFCURVE",
"90 63 OFFCURVE",
"90 124 CURVE SMOOTH",
"90 158 OFFCURVE",
"98 194 OFFCURVE",
"108 223 CURVE",
"216 226 OFFCURVE",
"340 233 OFFCURVE",
"340 246 CURVE SMOOTH",
"340 256 OFFCURVE",
"248 257 OFFCURVE",
"178 257 CURVE SMOOTH",
"157 257 OFFCURVE",
"138 257 OFFCURVE",
"124 257 CURVE",
"152 317 OFFCURVE",
"239 479 OFFCURVE",
"263 493 CURVE SMOOTH",
"296 511 OFFCURVE",
"388 524 OFFCURVE",
"464 528 CURVE",
"430 493 OFFCURVE",
"420 461 OFFCURVE",
"420 426 CURVE SMOOTH",
"420 393 OFFCURVE",
"432 387 OFFCURVE",
"439 387 CURVE SMOOTH",
"443 387 OFFCURVE",
"446 390 OFFCURVE",
"446 393 CURVE SMOOTH",
"446 401 OFFCURVE",
"438 409 OFFCURVE",
"438 418 CURVE SMOOTH",
"438 461 OFFCURVE",
"495 500 OFFCURVE",
"518 521 CURVE SMOOTH",
"523 526 OFFCURVE",
"524 529 OFFCURVE",
"524 533 CURVE SMOOTH",
"524 541 OFFCURVE",
"515 546 OFFCURVE",
"501 546 CURVE SMOOTH",
"497 546 OFFCURVE",
"493 546 OFFCURVE",
"488 544 CURVE",
"454 548 OFFCURVE",
"416 549 OFFCURVE",
"381 549 CURVE SMOOTH",
"283 549 OFFCURVE",
"176 545 OFFCURVE",
"176 508 CURVE SMOOTH",
"176 497 OFFCURVE",
"183 494 OFFCURVE",
"192 494 CURVE SMOOTH",
"197 494 OFFCURVE",
"204 494 OFFCURVE",
"210 494 CURVE SMOOTH",
"215 494 OFFCURVE",
"219 494 OFFCURVE",
"221 490 CURVE",
"188 450 OFFCURVE",
"109 327 OFFCURVE",
"76 257 CURVE",
"55 257 LINE SMOOTH",
"34 257 OFFCURVE",
"24 246 OFFCURVE",
"24 236 CURVE SMOOTH",
"24 227 OFFCURVE",
"30 221 OFFCURVE",
"44 221 CURVE SMOOTH",
"61 221 LINE",
"46 181 OFFCURVE",
"35 137 OFFCURVE",
"35 98 CURVE SMOOTH",
"35 30 OFFCURVE",
"69 -24 OFFCURVE",
"172 -24 CURVE SMOOTH"
);
},
{
closed = 1;
nodes = (
"375 615 OFFCURVE",
"497 673 OFFCURVE",
"518 691 CURVE",
"520 692 LINE",
"522 694 OFFCURVE",
"524 699 OFFCURVE",
"524 704 CURVE SMOOTH",
"524 714 OFFCURVE",
"516 728 OFFCURVE",
"493 728 CURVE SMOOTH",
"486 728 OFFCURVE",
"350 630 OFFCURVE",
"350 618 CURVE SMOOTH",
"350 615 OFFCURVE",
"352 614 OFFCURVE",
"358 614 CURVE SMOOTH"
);
}
);
width = 524;
}
);
note = Eacute.001;
},
{
glyphname = Ecaron.ss01;
lastChange = "2021-06-07 01:12:49 +0000";
layers = (
{
layerId = "BDD3FA2A-F197-48C4-9241-A354346F8EDC";
paths = (
{
closed = 1;
nodes = (
"345 -24 OFFCURVE",
"477 64 OFFCURVE",
"535 136 CURVE",
"537 137 OFFCURVE",
"538 141 OFFCURVE",
"538 143 CURVE SMOOTH",
"538 148 OFFCURVE",
"534 154 OFFCURVE",
"531 154 CURVE SMOOTH",
"529 154 OFFCURVE",
"528 153 OFFCURVE",
"527 152 CURVE SMOOTH",
"453 66 OFFCURVE",
"313 9 OFFCURVE",
"199 9 CURVE SMOOTH",
"115 9 OFFCURVE",
"90 63 OFFCURVE",
"90 124 CURVE SMOOTH",
"90 158 OFFCURVE",
"98 194 OFFCURVE",
"108 223 CURVE",
"216 226 OFFCURVE",
"340 233 OFFCURVE",
"340 246 CURVE SMOOTH",
"340 256 OFFCURVE",
"248 257 OFFCURVE",
"178 257 CURVE SMOOTH",
"157 257 OFFCURVE",
"138 257 OFFCURVE",
"124 257 CURVE",
"152 317 OFFCURVE",
"239 479 OFFCURVE",
"263 493 CURVE SMOOTH",
"296 511 OFFCURVE",
"388 524 OFFCURVE",
"464 528 CURVE",
"430 493 OFFCURVE",
"420 461 OFFCURVE",
"420 426 CURVE SMOOTH",
"420 393 OFFCURVE",
"432 387 OFFCURVE",
"439 387 CURVE SMOOTH",
"443 387 OFFCURVE",
"446 390 OFFCURVE",
"446 393 CURVE SMOOTH",
"446 401 OFFCURVE",
"438 409 OFFCURVE",
"438 418 CURVE SMOOTH",
"438 461 OFFCURVE",
"495 500 OFFCURVE",
"518 521 CURVE SMOOTH",
"523 526 OFFCURVE",
"524 529 OFFCURVE",
"524 533 CURVE SMOOTH",
"524 541 OFFCURVE",
"515 546 OFFCURVE",
"501 546 CURVE SMOOTH",
"497 546 OFFCURVE",
"493 546 OFFCURVE",
"488 544 CURVE",
"454 548 OFFCURVE",
"416 549 OFFCURVE",
"381 549 CURVE SMOOTH",
"283 549 OFFCURVE",
"176 545 OFFCURVE",
"176 508 CURVE SMOOTH",
"176 497 OFFCURVE",
"183 494 OFFCURVE",
"192 494 CURVE SMOOTH",
"197 494 OFFCURVE",
"204 494 OFFCURVE",
"210 494 CURVE SMOOTH",
"215 494 OFFCURVE",
"219 494 OFFCURVE",
"221 490 CURVE",
"188 450 OFFCURVE",
"109 327 OFFCURVE",
"76 257 CURVE",
"55 257 LINE SMOOTH",
"34 257 OFFCURVE",
"24 246 OFFCURVE",
"24 236 CURVE SMOOTH",
"24 227 OFFCURVE",
"30 221 OFFCURVE",
"44 221 CURVE SMOOTH",
"61 221 LINE",
"46 181 OFFCURVE",
"35 137 OFFCURVE",
"35 98 CURVE SMOOTH",
"35 30 OFFCURVE",
"69 -24 OFFCURVE",
"172 -24 CURVE SMOOTH"
);
},
{
closed = 1;
nodes = (
"437 623 OFFCURVE",
"510 696 OFFCURVE",
"528 709 CURVE SMOOTH",
"534 713 OFFCURVE",
"539 721 OFFCURVE",
"539 726 CURVE SMOOTH",
"539 728 OFFCURVE",
"538 730 OFFCURVE",
"535 730 CURVE SMOOTH",
"515 730 OFFCURVE",
"460 676 OFFCURVE",
"431 658 CURVE",
"408 682 OFFCURVE",
"335 733 OFFCURVE",
"339 733 CURVE",
"335 733 OFFCURVE",
"333 731 OFFCURVE",
"333 726 CURVE SMOOTH",
"333 722 OFFCURVE",
"335 718 OFFCURVE",
"337 714 CURVE",
"356 686 OFFCURVE",
"398 629 OFFCURVE",
"418 622 CURVE"
);
}
);
width = 524;
}
);
note = Ecaron.001;
},
{
glyphname = Ecircumflex.ss01;
lastChange = "2021-06-07 01:12:49 +0000";
layers = (
{
layerId = "BDD3FA2A-F197-48C4-9241-A354346F8EDC";
paths = (
{
closed = 1;
nodes = (
"345 -24 OFFCURVE",
"477 64 OFFCURVE",
"535 136 CURVE",
"537 137 OFFCURVE",
"538 141 OFFCURVE",
"538 143 CURVE SMOOTH",
"538 148 OFFCURVE",
"534 154 OFFCURVE",
"531 154 CURVE SMOOTH",
"529 154 OFFCURVE",
"528 153 OFFCURVE",
"527 152 CURVE SMOOTH",
"453 66 OFFCURVE",
"313 9 OFFCURVE",
"199 9 CURVE SMOOTH",
"115 9 OFFCURVE",
"90 63 OFFCURVE",
"90 124 CURVE SMOOTH",
"90 158 OFFCURVE",
"98 194 OFFCURVE",
"108 223 CURVE",
"216 226 OFFCURVE",
"340 233 OFFCURVE",
"340 246 CURVE SMOOTH",
"340 256 OFFCURVE",
"248 257 OFFCURVE",
"178 257 CURVE SMOOTH",
"157 257 OFFCURVE",
"138 257 OFFCURVE",
"124 257 CURVE",
"152 317 OFFCURVE",
"239 479 OFFCURVE",
"263 493 CURVE SMOOTH",
"296 511 OFFCURVE",
"388 524 OFFCURVE",
"464 528 CURVE",
"430 493 OFFCURVE",
"420 461 OFFCURVE",
"420 426 CURVE SMOOTH",
"420 393 OFFCURVE",
"432 387 OFFCURVE",
"439 387 CURVE SMOOTH",
"443 387 OFFCURVE",
"446 390 OFFCURVE",
"446 393 CURVE SMOOTH",
"446 401 OFFCURVE",
"438 409 OFFCURVE",
"438 418 CURVE SMOOTH",
"438 461 OFFCURVE",
"495 500 OFFCURVE",
"518 521 CURVE SMOOTH",
"523 526 OFFCURVE",
"524 529 OFFCURVE",
"524 533 CURVE SMOOTH",
"524 541 OFFCURVE",
"515 546 OFFCURVE",
"501 546 CURVE SMOOTH",
"497 546 OFFCURVE",
"493 546 OFFCURVE",
"488 544 CURVE",
"454 548 OFFCURVE",
"416 549 OFFCURVE",
"381 549 CURVE SMOOTH",
"283 549 OFFCURVE",
"176 545 OFFCURVE",
"176 508 CURVE SMOOTH",
"176 497 OFFCURVE",
"183 494 OFFCURVE",
"192 494 CURVE SMOOTH",
"197 494 OFFCURVE",
"204 494 OFFCURVE",
"210 494 CURVE SMOOTH",
"215 494 OFFCURVE",
"219 494 OFFCURVE",
"221 490 CURVE",
"188 450 OFFCURVE",
"109 327 OFFCURVE",
"76 257 CURVE",
"55 257 LINE SMOOTH",
"34 257 OFFCURVE",
"24 246 OFFCURVE",
"24 236 CURVE SMOOTH",
"24 227 OFFCURVE",
"30 221 OFFCURVE",
"44 221 CURVE SMOOTH",
"61 221 LINE",
"46 181 OFFCURVE",
"35 137 OFFCURVE",
"35 98 CURVE SMOOTH",
"35 30 OFFCURVE",
"69 -24 OFFCURVE",
"172 -24 CURVE SMOOTH"
);
},
{
closed = 1;
nodes = (
"515 620 OFFCURVE",
"516 624 OFFCURVE",
"516 628 CURVE SMOOTH",
"516 631 OFFCURVE",
"515 636 OFFCURVE",
"511 640 CURVE SMOOTH",
"494 668 OFFCURVE",
"450 725 OFFCURVE",
"432 732 CURVE",
"412 731 OFFCURVE",
"339 659 OFFCURVE",
"321 646 CURVE",
"316 640 OFFCURVE",
"310 631 OFFCURVE",
"310 626 CURVE SMOOTH",
"310 625 OFFCURVE",
"311 623 OFFCURVE",
"313 623 CURVE SMOOTH",
"335 623 OFFCURVE",
"388 677 OFFCURVE",
"419 698 CURVE",
"442 673 OFFCURVE",
"515 620 OFFCURVE",
"510 620 CURVE"
);
}
);
width = 524;
}
);
note = Ecircumflex.001;
},
{
glyphname = Edieresis.ss01;
lastChange = "2021-06-07 01:12:49 +0000";
layers = (
{
layerId = "BDD3FA2A-F197-48C4-9241-A354346F8EDC";
paths = (
{
closed = 1;
nodes = (
"345 -24 OFFCURVE",
"477 64 OFFCURVE",
"535 136 CURVE",
"537 137 OFFCURVE",
"538 141 OFFCURVE",
"538 143 CURVE SMOOTH",
"538 148 OFFCURVE",
"534 154 OFFCURVE",
"531 154 CURVE SMOOTH",
"529 154 OFFCURVE",
"528 153 OFFCURVE",
"527 152 CURVE SMOOTH",
"453 66 OFFCURVE",
"313 9 OFFCURVE",
"199 9 CURVE SMOOTH",
"115 9 OFFCURVE",
"90 63 OFFCURVE",
"90 124 CURVE SMOOTH",
"90 158 OFFCURVE",
"98 194 OFFCURVE",
"108 223 CURVE",
"216 226 OFFCURVE",
"340 233 OFFCURVE",
"340 246 CURVE SMOOTH",
"340 256 OFFCURVE",
"248 257 OFFCURVE",
"178 257 CURVE SMOOTH",
"157 257 OFFCURVE",
"138 257 OFFCURVE",
"124 257 CURVE",
"152 317 OFFCURVE",
"239 479 OFFCURVE",
"263 493 CURVE SMOOTH",
"296 511 OFFCURVE",
"388 524 OFFCURVE",
"464 528 CURVE",
"430 493 OFFCURVE",
"420 461 OFFCURVE",
"420 426 CURVE SMOOTH",
"420 393 OFFCURVE",
"432 387 OFFCURVE",
"439 387 CURVE SMOOTH",
"443 387 OFFCURVE",
"446 390 OFFCURVE",
"446 393 CURVE SMOOTH",
"446 401 OFFCURVE",
"438 409 OFFCURVE",
"438 418 CURVE SMOOTH",
"438 461 OFFCURVE",
"495 500 OFFCURVE",
"518 521 CURVE SMOOTH",
"523 526 OFFCURVE",
"524 529 OFFCURVE",
"524 533 CURVE SMOOTH",
"524 541 OFFCURVE",
"515 546 OFFCURVE",
"501 546 CURVE SMOOTH",
"497 546 OFFCURVE",
"493 546 OFFCURVE",
"488 544 CURVE",
"454 548 OFFCURVE",
"416 549 OFFCURVE",
"381 549 CURVE SMOOTH",
"283 549 OFFCURVE",
"176 545 OFFCURVE",
"176 508 CURVE SMOOTH",
"176 497 OFFCURVE",
"183 494 OFFCURVE",
"192 494 CURVE SMOOTH",
"197 494 OFFCURVE",
"204 494 OFFCURVE",
"210 494 CURVE SMOOTH",
"215 494 OFFCURVE",
"219 494 OFFCURVE",
"221 490 CURVE",
"188 450 OFFCURVE",
"109 327 OFFCURVE",
"76 257 CURVE",
"55 257 LINE SMOOTH",
"34 257 OFFCURVE",
"24 246 OFFCURVE",
"24 236 CURVE SMOOTH",
"24 227 OFFCURVE",
"30 221 OFFCURVE",
"44 221 CURVE SMOOTH",
"61 221 LINE",
"46 181 OFFCURVE",
"35 137 OFFCURVE",
"35 98 CURVE SMOOTH",
"35 30 OFFCURVE",
"69 -24 OFFCURVE",
"172 -24 CURVE SMOOTH"
);
},
{
closed = 1;
nodes = (
"353 628 OFFCURVE",
"370 657 OFFCURVE",
"370 666 CURVE SMOOTH",
"370 674 OFFCURVE",
"376 687 OFFCURVE",
"376 693 CURVE SMOOTH",
"376 694 OFFCURVE",
"375 694 OFFCURVE",
"374 694 CURVE SMOOTH",
"373 694 OFFCURVE",
"367 692 OFFCURVE",
"358 684 CURVE SMOOTH",
"353 680 OFFCURVE",
"311 649 OFFCURVE",
"311 644 CURVE SMOOTH",
"311 628 OFFCURVE",
"330 628 OFFCURVE",
"345 628 CURVE SMOOTH"
);
},
{
closed = 1;
nodes = (
"517 628 OFFCURVE",
"535 678 OFFCURVE",
"535 693 CURVE SMOOTH",
"535 694 OFFCURVE",
"534 694 OFFCURVE",
"533 694 CURVE SMOOTH",
"532 694 OFFCURVE",
"526 692 OFFCURVE",
"517 684 CURVE SMOOTH",
"511 680 OFFCURVE",
"470 649 OFFCURVE",
"470 644 CURVE SMOOTH",
"470 628 OFFCURVE",
"488 628 OFFCURVE",
"503 628 CURVE SMOOTH"
);
}
);
width = 524;
}
);
note = Edieresis.001;
},
{
glyphname = Edotaccent.ss01;
lastChange = "2021-06-07 01:12:49 +0000";
layers = (
{
layerId = "BDD3FA2A-F197-48C4-9241-A354346F8EDC";
paths = (
{
closed = 1;
nodes = (
"345 -24 OFFCURVE",
"477 64 OFFCURVE",
"535 136 CURVE",
"537 137 OFFCURVE",
"538 141 OFFCURVE",
"538 143 CURVE SMOOTH",
"538 148 OFFCURVE",
"534 154 OFFCURVE",
"531 154 CURVE SMOOTH",
"529 154 OFFCURVE",
"528 153 OFFCURVE",
"527 152 CURVE SMOOTH",
"453 66 OFFCURVE",
"313 9 OFFCURVE",
"199 9 CURVE SMOOTH",
"115 9 OFFCURVE",
"90 63 OFFCURVE",
"90 124 CURVE SMOOTH",
"90 158 OFFCURVE",
"98 194 OFFCURVE",
"108 223 CURVE",
"216 226 OFFCURVE",
"340 233 OFFCURVE",
"340 246 CURVE SMOOTH",
"340 256 OFFCURVE",
"248 257 OFFCURVE",
"178 257 CURVE SMOOTH",
"157 257 OFFCURVE",
"138 257 OFFCURVE",
"124 257 CURVE",
"152 317 OFFCURVE",
"239 479 OFFCURVE",
"263 493 CURVE SMOOTH",
"296 511 OFFCURVE",
"388 524 OFFCURVE",
"464 528 CURVE",
"430 493 OFFCURVE",
"420 461 OFFCURVE",
"420 426 CURVE SMOOTH",
"420 393 OFFCURVE",
"432 387 OFFCURVE",
"439 387 CURVE SMOOTH",
"443 387 OFFCURVE",
"446 390 OFFCURVE",
"446 393 CURVE SMOOTH",
"446 401 OFFCURVE",
"438 409 OFFCURVE",
"438 418 CURVE SMOOTH",
"438 461 OFFCURVE",
"495 500 OFFCURVE",
"518 521 CURVE SMOOTH",
"523 526 OFFCURVE",
"524 529 OFFCURVE",
"524 533 CURVE SMOOTH",
"524 541 OFFCURVE",
"515 546 OFFCURVE",
"501 546 CURVE SMOOTH",
"497 546 OFFCURVE",
"493 546 OFFCURVE",
"488 544 CURVE",
"454 548 OFFCURVE",
"416 549 OFFCURVE",
"381 549 CURVE SMOOTH",
"283 549 OFFCURVE",
"176 545 OFFCURVE",
"176 508 CURVE SMOOTH",
"176 497 OFFCURVE",
"183 494 OFFCURVE",
"192 494 CURVE SMOOTH",
"197 494 OFFCURVE",
"204 494 OFFCURVE",
"210 494 CURVE SMOOTH",
"215 494 OFFCURVE",
"219 494 OFFCURVE",
"221 490 CURVE",
"188 450 OFFCURVE",
"109 327 OFFCURVE",
"76 257 CURVE",
"55 257 LINE SMOOTH",
"34 257 OFFCURVE",
"24 246 OFFCURVE",
"24 236 CURVE SMOOTH",
"24 227 OFFCURVE",
"30 221 OFFCURVE",
"44 221 CURVE SMOOTH",
"61 221 LINE",
"46 181 OFFCURVE",
"35 137 OFFCURVE",
"35 98 CURVE SMOOTH",
"35 30 OFFCURVE",
"69 -24 OFFCURVE",
"172 -24 CURVE SMOOTH"
);
},
{
closed = 1;
nodes = (
"421 603 OFFCURVE",
"447 642 OFFCURVE",
"447 656 CURVE SMOOTH",
"447 660 OFFCURVE",
"447 664 OFFCURVE",
"447 669 CURVE SMOOTH",
"447 679 OFFCURVE",
"446 686 OFFCURVE",
"438 686 CURVE SMOOTH",
"433 686 OFFCURVE",
"424 681 OFFCURVE",
"408 670 CURVE SMOOTH",
"402 665 OFFCURVE",
"364 631 OFFCURVE",
"364 626 CURVE SMOOTH",
"364 603 OFFCURVE",
"392 603 OFFCURVE",
"409 603 CURVE SMOOTH"
);
}
);
width = 524;
}
);
note = Edotaccent.001;
},
{
glyphname = Egrave.ss01;
lastChange = "2021-06-07 01:12:49 +0000";
layers = (
{
layerId = "BDD3FA2A-F197-48C4-9241-A354346F8EDC";
paths = (
{
closed = 1;
nodes = (
"345 -24 OFFCURVE",
"477 64 OFFCURVE",
"535 136 CURVE",
"537 137 OFFCURVE",
"538 141 OFFCURVE",
"538 143 CURVE SMOOTH",
"538 148 OFFCURVE",
"534 154 OFFCURVE",
"531 154 CURVE SMOOTH",
"529 154 OFFCURVE",
"528 153 OFFCURVE",
"527 152 CURVE SMOOTH",
"453 66 OFFCURVE",
"313 9 OFFCURVE",
"199 9 CURVE SMOOTH",
"115 9 OFFCURVE",
"90 63 OFFCURVE",
"90 124 CURVE SMOOTH",
"90 158 OFFCURVE",
"98 194 OFFCURVE",
"108 223 CURVE",
"216 226 OFFCURVE",
"340 233 OFFCURVE",
"340 246 CURVE SMOOTH",
"340 256 OFFCURVE",
"248 257 OFFCURVE",
"178 257 CURVE SMOOTH",
"157 257 OFFCURVE",
"138 257 OFFCURVE",
"124 257 CURVE",
"152 317 OFFCURVE",
"239 479 OFFCURVE",
"263 493 CURVE SMOOTH",
"296 511 OFFCURVE",
"388 524 OFFCURVE",
"464 528 CURVE",
"430 493 OFFCURVE",
"420 461 OFFCURVE",
"420 426 CURVE SMOOTH",
"420 393 OFFCURVE",
"432 387 OFFCURVE",
"439 387 CURVE SMOOTH",
"443 387 OFFCURVE",
"446 390 OFFCURVE",
"446 393 CURVE SMOOTH",
"446 401 OFFCURVE",
"438 409 OFFCURVE",
"438 418 CURVE SMOOTH",
"438 461 OFFCURVE",
"495 500 OFFCURVE",
"518 521 CURVE SMOOTH",
"523 526 OFFCURVE",
"524 529 OFFCURVE",
"524 533 CURVE SMOOTH",
"524 541 OFFCURVE",
"515 546 OFFCURVE",
"501 546 CURVE SMOOTH",
"497 546 OFFCURVE",
"493 546 OFFCURVE",
"488 544 CURVE",
"454 548 OFFCURVE",
"416 549 OFFCURVE",
"381 549 CURVE SMOOTH",
"283 549 OFFCURVE",
"176 545 OFFCURVE",
"176 508 CURVE SMOOTH",
"176 497 OFFCURVE",
"183 494 OFFCURVE",
"192 494 CURVE SMOOTH",
"197 494 OFFCURVE",
"204 494 OFFCURVE",
"210 494 CURVE SMOOTH",
"215 494 OFFCURVE",
"219 494 OFFCURVE",
"221 490 CURVE",
"188 450 OFFCURVE",
"109 327 OFFCURVE",
"76 257 CURVE",
"55 257 LINE SMOOTH",
"34 257 OFFCURVE",
"24 246 OFFCURVE",
"24 236 CURVE SMOOTH",
"24 227 OFFCURVE",
"30 221 OFFCURVE",
"44 221 CURVE SMOOTH",
"61 221 LINE",
"46 181 OFFCURVE",
"35 137 OFFCURVE",
"35 98 CURVE SMOOTH",
"35 30 OFFCURVE",
"69 -24 OFFCURVE",
"172 -24 CURVE SMOOTH"
);
},
{
closed = 1;
nodes = (
"463 626 OFFCURVE",
"465 629 OFFCURVE",
"465 631 CURVE SMOOTH",
"465 634 OFFCURVE",
"463 636 OFFCURVE",
"460 637 CURVE",
"413 673 OFFCURVE",
"341 738 OFFCURVE",
"311 738 CURVE SMOOTH",
"295 738 OFFCURVE",
"288 727 OFFCURVE",
"288 722 CURVE SMOOTH",
"288 693 OFFCURVE",
"433 626 OFFCURVE",
"457 626 CURVE SMOOTH"
);
}
);
width = 524;
}
);
note = Egrave.001;
},
{
glyphname = Emacron.ss01;
lastChange = "2021-06-07 01:12:49 +0000";
layers = (
{
layerId = "BDD3FA2A-F197-48C4-9241-A354346F8EDC";
paths = (
{
closed = 1;
nodes = (
"345 -24 OFFCURVE",
"477 64 OFFCURVE",
"535 136 CURVE",
"537 137 OFFCURVE",
"538 141 OFFCURVE",
"538 143 CURVE SMOOTH",
"538 148 OFFCURVE",
"534 154 OFFCURVE",
"531 154 CURVE SMOOTH",
"529 154 OFFCURVE",
"528 153 OFFCURVE",
"527 152 CURVE SMOOTH",
"453 66 OFFCURVE",
"313 9 OFFCURVE",
"199 9 CURVE SMOOTH",
"115 9 OFFCURVE",
"90 63 OFFCURVE",
"90 124 CURVE SMOOTH",
"90 158 OFFCURVE",
"98 194 OFFCURVE",
"108 223 CURVE",
"216 226 OFFCURVE",
"340 233 OFFCURVE",
"340 246 CURVE SMOOTH",
"340 256 OFFCURVE",
"248 257 OFFCURVE",
"178 257 CURVE SMOOTH",
"157 257 OFFCURVE",
"138 257 OFFCURVE",
"124 257 CURVE",
"152 317 OFFCURVE",
"239 479 OFFCURVE",
"263 493 CURVE SMOOTH",
"296 511 OFFCURVE",
"388 524 OFFCURVE",
"464 528 CURVE",
"430 493 OFFCURVE",
"420 461 OFFCURVE",
"420 426 CURVE SMOOTH",
"420 393 OFFCURVE",
"432 387 OFFCURVE",
"439 387 CURVE SMOOTH",
"443 387 OFFCURVE",
"446 390 OFFCURVE",
"446 393 CURVE SMOOTH",
"446 401 OFFCURVE",
"438 409 OFFCURVE",
"438 418 CURVE SMOOTH",
"438 461 OFFCURVE",
"495 500 OFFCURVE",
"518 521 CURVE SMOOTH",
"523 526 OFFCURVE",
"524 529 OFFCURVE",
"524 533 CURVE SMOOTH",
"524 541 OFFCURVE",
"515 546 OFFCURVE",
"501 546 CURVE SMOOTH",
"497 546 OFFCURVE",
"493 546 OFFCURVE",
"488 544 CURVE",
"454 548 OFFCURVE",
"416 549 OFFCURVE",
"381 549 CURVE SMOOTH",
"283 549 OFFCURVE",
"176 545 OFFCURVE",
"176 508 CURVE SMOOTH",
"176 497 OFFCURVE",
"183 494 OFFCURVE",
"192 494 CURVE SMOOTH",
"197 494 OFFCURVE",
"204 494 OFFCURVE",
"210 494 CURVE SMOOTH",
"215 494 OFFCURVE",
"219 494 OFFCURVE",
"221 490 CURVE",
"188 450 OFFCURVE",
"109 327 OFFCURVE",
"76 257 CURVE",
"55 257 LINE SMOOTH",
"34 257 OFFCURVE",
"24 246 OFFCURVE",
"24 236 CURVE SMOOTH",
"24 227 OFFCURVE",
"30 221 OFFCURVE",
"44 221 CURVE SMOOTH",
"61 221 LINE",
"46 181 OFFCURVE",
"35 137 OFFCURVE",
"35 98 CURVE SMOOTH",
"35 30 OFFCURVE",
"69 -24 OFFCURVE",
"172 -24 CURVE SMOOTH"
);
},
{
closed = 1;
nodes = (
"340 624 OFFCURVE",
"416 630 OFFCURVE",
"464 633 CURVE SMOOTH",
"472 634 OFFCURVE",
"518 636 OFFCURVE",
"518 649 CURVE SMOOTH",
"517 656 OFFCURVE",
"495 662 OFFCURVE",
"463 662 CURVE SMOOTH",
"434 662 OFFCURVE",
"405 663 OFFCURVE",
"378 663 CURVE SMOOTH",
"324 663 OFFCURVE",
"283 659 OFFCURVE",
"283 634 CURVE SMOOTH",
"283 626 OFFCURVE",
"288 624 OFFCURVE",
"306 624 CURVE SMOOTH"
);
}
);
width = 524;
}
);
note = Emacron.001;
},
{
glyphname = Eogonek.ss01;
lastChange = "2021-06-07 01:12:49 +0000";
layers = (
{
layerId = "BDD3FA2A-F197-48C4-9241-A354346F8EDC";
paths = (
{
closed = 1;
nodes = (
"104 -313 OFFCURVE",
"177 -206 OFFCURVE",
"192 -188 CURVE SMOOTH",
"197 -183 OFFCURVE",
"199 -177 OFFCURVE",
"199 -172 CURVE SMOOTH",
"199 -170 OFFCURVE",
"198 -167 OFFCURVE",
"194 -167 CURVE SMOOTH",
"191 -167 OFFCURVE",
"186 -170 OFFCURVE",
"180 -176 CURVE",
"160 -191 OFFCURVE",
"51 -296 OFFCURVE",
"10 -296 CURVE SMOOTH",
"-5 -296 OFFCURVE",
"-10 -278 OFFCURVE",
"-10 -266 CURVE SMOOTH",
"-10 -219 OFFCURVE",
"52 -147 OFFCURVE",
"78 -125 CURVE SMOOTH",
"127 -81 OFFCURVE",
"181 -58 OFFCURVE",
"219 -21 CURVE",
"368 -7 OFFCURVE",
"482 72 OFFCURVE",
"535 136 CURVE",
"537 137 OFFCURVE",
"538 141 OFFCURVE",
"538 143 CURVE SMOOTH",
"538 148 OFFCURVE",
"534 154 OFFCURVE",
"531 154 CURVE SMOOTH",
"529 154 OFFCURVE",
"528 153 OFFCURVE",
"527 152 CURVE SMOOTH",
"453 66 OFFCURVE",
"313 9 OFFCURVE",
"199 9 CURVE SMOOTH",
"115 9 OFFCURVE",
"90 63 OFFCURVE",
"90 124 CURVE SMOOTH",
"90 158 OFFCURVE",
"98 194 OFFCURVE",
"108 223 CURVE",
"216 226 OFFCURVE",
"340 233 OFFCURVE",
"340 246 CURVE SMOOTH",
"340 256 OFFCURVE",
"248 257 OFFCURVE",
"178 257 CURVE SMOOTH",
"157 257 OFFCURVE",
"138 257 OFFCURVE",
"124 257 CURVE",
"152 317 OFFCURVE",
"239 479 OFFCURVE",
"263 493 CURVE SMOOTH",
"296 511 OFFCURVE",
"388 524 OFFCURVE",
"464 528 CURVE",
"430 493 OFFCURVE",
"420 461 OFFCURVE",
"420 426 CURVE SMOOTH",
"420 393 OFFCURVE",
"432 387 OFFCURVE",
"439 387 CURVE SMOOTH",
"443 387 OFFCURVE",
"446 390 OFFCURVE",
"446 393 CURVE SMOOTH",
"446 401 OFFCURVE",
"438 409 OFFCURVE",
"438 418 CURVE SMOOTH",
"438 461 OFFCURVE",
"495 500 OFFCURVE",
"518 521 CURVE SMOOTH",
"523 526 OFFCURVE",
"524 529 OFFCURVE",
"524 533 CURVE SMOOTH",
"524 541 OFFCURVE",
"515 546 OFFCURVE",
"501 546 CURVE SMOOTH",
"497 546 OFFCURVE",
"493 546 OFFCURVE",
"488 544 CURVE",
"454 548 OFFCURVE",
"416 549 OFFCURVE",
"381 549 CURVE SMOOTH",
"283 549 OFFCURVE",
"176 545 OFFCURVE",
"176 508 CURVE SMOOTH",
"176 497 OFFCURVE",
"183 494 OFFCURVE",
"192 494 CURVE SMOOTH",
"197 494 OFFCURVE",
"204 494 OFFCURVE",
"210 494 CURVE SMOOTH",
"215 494 OFFCURVE",
"219 494 OFFCURVE",
"221 490 CURVE",
"188 450 OFFCURVE",
"109 327 OFFCURVE",
"76 257 CURVE",
"55 257 LINE SMOOTH",
"34 257 OFFCURVE",
"24 246 OFFCURVE",
"24 236 CURVE SMOOTH",
"24 227 OFFCURVE",
"30 221 OFFCURVE",
"44 221 CURVE SMOOTH",
"61 221 LINE",
"46 181 OFFCURVE",
"35 137 OFFCURVE",
"35 98 CURVE SMOOTH",
"35 3 OFFCURVE",
"96 -24 OFFCURVE",
"182 -24 CURVE",
"144 -44 OFFCURVE",
"80 -87 OFFCURVE",
"28 -124 CURVE SMOOTH",
"-20 -157 OFFCURVE",
"-53 -199 OFFCURVE",
"-53 -239 CURVE SMOOTH",
"-53 -279 OFFCURVE",
"-11 -313 OFFCURVE",
"25 -313 CURVE SMOOTH"
);
}
);
width = 524;
}
);
note = Eogonek.001;
},
{
glyphname = F.ss01;
lastChange = "2021-06-07 01:12:49 +0000";
layers = (
{
layerId = "BDD3FA2A-F197-48C4-9241-A354346F8EDC";
paths = (
{
closed = 1;
nodes = (
"53 -1 OFFCURVE",
"66 2 OFFCURVE",
"70 6 CURVE",
"85 87 OFFCURVE",
"109 157 OFFCURVE",
"141 222 CURVE",
"233 226 OFFCURVE",
"379 232 OFFCURVE",
"382 243 CURVE SMOOTH",
"382 244 OFFCURVE",
"382 244 OFFCURVE",
"382 246 CURVE SMOOTH",
"382 256 OFFCURVE",
"287 257 OFFCURVE",
"215 257 CURVE SMOOTH",
"193 257 OFFCURVE",
"173 257 OFFCURVE",
"159 257 CURVE",
"191 324 OFFCURVE",
"228 390 OFFCURVE",
"266 463 CURVE",
"266 464 OFFCURVE",
"266 465 OFFCURVE",
"266 465 CURVE",
"266 477 OFFCURVE",
"240 488 OFFCURVE",
"225 488 CURVE SMOOTH",
"206 488 OFFCURVE",
"164 392 OFFCURVE",
"112 257 CURVE",
"97 257 LINE SMOOTH",
"76 257 OFFCURVE",
"66 246 OFFCURVE",
"66 236 CURVE SMOOTH",
"66 227 OFFCURVE",
"74 221 OFFCURVE",
"86 221 CURVE SMOOTH",
"96 221 LINE",
"58 124 OFFCURVE",
"30 34 OFFCURVE",
"30 6 CURVE",
"32 0 OFFCURVE",
"36 -1 OFFCURVE",
"44 -1 CURVE SMOOTH"
);
},
{
closed = 1;
nodes = (
"453 387 OFFCURVE",
"455 390 OFFCURVE",
"455 393 CURVE SMOOTH",
"455 401 OFFCURVE",
"448 409 OFFCURVE",
"448 418 CURVE SMOOTH",
"448 463 OFFCURVE",
"506 499 OFFCURVE",
"528 521 CURVE SMOOTH",
"533 526 OFFCURVE",
"534 529 OFFCURVE",
"534 533 CURVE SMOOTH",
"534 541 OFFCURVE",
"524 546 OFFCURVE",
"511 546 CURVE SMOOTH",
"506 546 OFFCURVE",
"499 545 OFFCURVE",
"493 541 CURVE",
"479 548 OFFCURVE",
"444 549 OFFCURVE",
"409 549 CURVE SMOOTH",
"395 549 OFFCURVE",
"382 549 OFFCURVE",
"369 549 CURVE SMOOTH",
"268 549 OFFCURVE",
"120 541 OFFCURVE",
"120 498 CURVE SMOOTH",
"121 487 OFFCURVE",
"129 483 OFFCURVE",
"137 483 CURVE SMOOTH",
"148 483 OFFCURVE",
"161 488 OFFCURVE",
"170 490 CURVE SMOOTH",
"287 517 OFFCURVE",
"385 528 OFFCURVE",
"473 528 CURVE SMOOTH",
"475 528 LINE",
"439 493 OFFCURVE",
"431 461 OFFCURVE",
"431 426 CURVE SMOOTH",
"431 393 OFFCURVE",
"442 387 OFFCURVE",
"449 387 CURVE SMOOTH"
);
}
);
width = 381;
}
);
note = F.001;
},
{
glyphname = G.ss01;
lastChange = "2021-06-07 01:12:49 +0000";
layers = (
{
layerId = "BDD3FA2A-F197-48C4-9241-A354346F8EDC";
paths = (
{
closed = 1;
nodes = (
"308 -39 OFFCURVE",
"370 -24 OFFCURVE",
"420 0 CURVE SMOOTH",
"500 36 OFFCURVE",
"599 129 OFFCURVE",
"599 227 CURVE SMOOTH",
"599 229 OFFCURVE",
"599 233 OFFCURVE",
"597 236 CURVE",
"635 238 OFFCURVE",
"686 233 OFFCURVE",
"686 246 CURVE SMOOTH",
"686 250 OFFCURVE",
"681 254 OFFCURVE",
"673 255 CURVE SMOOTH",
"641 259 OFFCURVE",
"607 261 OFFCURVE",
"569 261 CURVE SMOOTH",
"446 261 OFFCURVE",
"339 259 OFFCURVE",
"339 204 CURVE SMOOTH",
"339 194 OFFCURVE",
"342 194 OFFCURVE",
"350 194 CURVE",
"416 208 OFFCURVE",
"488 227 OFFCURVE",
"557 232 CURVE",
"554 227 OFFCURVE",
"552 221 OFFCURVE",
"551 214 CURVE SMOOTH",
"534 75 OFFCURVE",
"370 -17 OFFCURVE",
"240 -17 CURVE SMOOTH",
"131 -17 OFFCURVE",
"91 40 OFFCURVE",
"91 115 CURVE SMOOTH",
"91 292 OFFCURVE",
"294 522 OFFCURVE",
"471 522 CURVE SMOOTH",
"511 522 OFFCURVE",
"549 509 OFFCURVE",
"562 473 CURVE SMOOTH",
"564 464 OFFCURVE",
"568 460 OFFCURVE",
"573 460 CURVE SMOOTH",
"578 460 OFFCURVE",
"586 470 OFFCURVE",
"586 482 CURVE SMOOTH",
"586 531 OFFCURVE",
"516 549 OFFCURVE",
"453 549 CURVE SMOOTH",
"257 549 OFFCURVE",
"51 342 OFFCURVE",
"51 143 CURVE SMOOTH",
"51 28 OFFCURVE",
"134 -39 OFFCURVE",
"249 -39 CURVE SMOOTH"
);
}
);
width = 620;
}
);
note = G.001;
},
{
glyphname = Gbreve.ss01;
lastChange = "2021-06-07 01:12:49 +0000";
layers = (
{
layerId = "BDD3FA2A-F197-48C4-9241-A354346F8EDC";
paths = (
{
closed = 1;
nodes = (
"308 -39 OFFCURVE",
"370 -24 OFFCURVE",
"420 0 CURVE SMOOTH",
"500 36 OFFCURVE",
"599 129 OFFCURVE",
"599 227 CURVE SMOOTH",
"599 229 OFFCURVE",
"599 233 OFFCURVE",
"597 236 CURVE",
"635 238 OFFCURVE",
"686 233 OFFCURVE",
"686 246 CURVE SMOOTH",
"686 250 OFFCURVE",
"681 254 OFFCURVE",
"673 255 CURVE SMOOTH",
"641 259 OFFCURVE",
"607 261 OFFCURVE",
"569 261 CURVE SMOOTH",
"446 261 OFFCURVE",
"339 259 OFFCURVE",
"339 204 CURVE SMOOTH",
"339 194 OFFCURVE",
"342 194 OFFCURVE",
"350 194 CURVE",
"416 208 OFFCURVE",
"488 227 OFFCURVE",
"557 232 CURVE",
"554 227 OFFCURVE",
"552 221 OFFCURVE",
"551 214 CURVE SMOOTH",
"534 75 OFFCURVE",
"370 -17 OFFCURVE",
"240 -17 CURVE SMOOTH",
"131 -17 OFFCURVE",
"91 40 OFFCURVE",
"91 115 CURVE SMOOTH",
"91 292 OFFCURVE",
"294 522 OFFCURVE",
"471 522 CURVE SMOOTH",
"511 522 OFFCURVE",
"549 509 OFFCURVE",
"562 473 CURVE SMOOTH",
"564 464 OFFCURVE",
"568 460 OFFCURVE",
"573 460 CURVE SMOOTH",
"578 460 OFFCURVE",
"586 470 OFFCURVE",
"586 482 CURVE SMOOTH",
"586 531 OFFCURVE",
"516 549 OFFCURVE",
"453 549 CURVE SMOOTH",
"257 549 OFFCURVE",
"51 342 OFFCURVE",
"51 143 CURVE SMOOTH",
"51 28 OFFCURVE",
"134 -39 OFFCURVE",
"249 -39 CURVE SMOOTH"
);
},
{
closed = 1;
nodes = (
"550 609 OFFCURVE",
"611 641 OFFCURVE",
"624 702 CURVE SMOOTH",
"624 703 OFFCURVE",
"623 708 OFFCURVE",
"619 709 CURVE",
"619 709 OFFCURVE",
"618 710 OFFCURVE",
"617 710 CURVE SMOOTH",
"615 710 OFFCURVE",
"614 710 OFFCURVE",
"614 709 CURVE",
"595 654 OFFCURVE",
"557 630 OFFCURVE",
"522 630 CURVE SMOOTH",
"486 630 OFFCURVE",
"457 654 OFFCURVE",
"457 698 CURVE SMOOTH",
"457 704 OFFCURVE",
"449 709 OFFCURVE",
"443 709 CURVE SMOOTH",
"435 709 OFFCURVE",
"428 698 OFFCURVE",
"428 677 CURVE SMOOTH",
"428 630 OFFCURVE",
"461 609 OFFCURVE",
"501 609 CURVE SMOOTH"
);
}
);
width = 620;
}
);
note = Gbreve.001;
},
{
glyphname = Gdotaccent.ss01;
lastChange = "2021-06-07 01:12:49 +0000";
layers = (
{
layerId = "BDD3FA2A-F197-48C4-9241-A354346F8EDC";
paths = (
{
closed = 1;
nodes = (
"308 -39 OFFCURVE",
"370 -24 OFFCURVE",
"420 0 CURVE SMOOTH",
"500 36 OFFCURVE",
"599 129 OFFCURVE",
"599 227 CURVE SMOOTH",
"599 229 OFFCURVE",
"599 233 OFFCURVE",
"597 236 CURVE",
"635 238 OFFCURVE",
"686 233 OFFCURVE",
"686 246 CURVE SMOOTH",
"686 250 OFFCURVE",
"681 254 OFFCURVE",
"673 255 CURVE SMOOTH",
"641 259 OFFCURVE",
"607 261 OFFCURVE",
"569 261 CURVE SMOOTH",
"446 261 OFFCURVE",
"339 259 OFFCURVE",
"339 204 CURVE SMOOTH",
"339 194 OFFCURVE",
"342 194 OFFCURVE",
"350 194 CURVE",
"416 208 OFFCURVE",
"488 227 OFFCURVE",
"557 232 CURVE",
"554 227 OFFCURVE",
"552 221 OFFCURVE",
"551 214 CURVE SMOOTH",
"534 75 OFFCURVE",
"370 -17 OFFCURVE",
"240 -17 CURVE SMOOTH",
"131 -17 OFFCURVE",
"91 40 OFFCURVE",
"91 115 CURVE SMOOTH",
"91 292 OFFCURVE",
"294 522 OFFCURVE",
"471 522 CURVE SMOOTH",
"511 522 OFFCURVE",
"549 509 OFFCURVE",
"562 473 CURVE SMOOTH",
"564 464 OFFCURVE",
"568 460 OFFCURVE",
"573 460 CURVE SMOOTH",
"578 460 OFFCURVE",
"586 470 OFFCURVE",
"586 482 CURVE SMOOTH",
"586 531 OFFCURVE",
"516 549 OFFCURVE",
"453 549 CURVE SMOOTH",
"257 549 OFFCURVE",
"51 342 OFFCURVE",
"51 143 CURVE SMOOTH",
"51 28 OFFCURVE",
"134 -39 OFFCURVE",
"249 -39 CURVE SMOOTH"
);
},
{
closed = 1;
nodes = (
"535 620 OFFCURVE",
"561 660 OFFCURVE",
"561 673 CURVE SMOOTH",
"561 677 OFFCURVE",
"561 681 OFFCURVE",
"561 686 CURVE SMOOTH",
"561 697 OFFCURVE",
"560 704 OFFCURVE",
"551 704 CURVE SMOOTH",
"546 704 OFFCURVE",
"537 699 OFFCURVE",
"522 687 CURVE SMOOTH",
"516 682 OFFCURVE",
"478 649 OFFCURVE",
"478 644 CURVE SMOOTH",
"478 620 OFFCURVE",
"505 620 OFFCURVE",
"523 620 CURVE SMOOTH"
);
}
);
width = 620;
}
);
note = Gdotaccent.001;
},
{
glyphname = H.ss01;
lastChange = "2021-06-07 01:12:49 +0000";
layers = (
{
layerId = "BDD3FA2A-F197-48C4-9241-A354346F8EDC";
paths = (
{
closed = 1;
nodes = (
"53 0 OFFCURVE",
"64 4 OFFCURVE",
"69 9 CURVE",
"83 86 OFFCURVE",
"104 152 OFFCURVE",
"132 217 CURVE",
"226 234 OFFCURVE",
"329 242 OFFCURVE",
"418 242 CURVE SMOOTH",
"427 242 OFFCURVE",
"433 243 OFFCURVE",
"437 244 CURVE",
"397 136 OFFCURVE",
"365 39 OFFCURVE",
"365 9 CURVE",
"367 2 OFFCURVE",
"373 0 OFFCURVE",
"381 0 CURVE SMOOTH",
"390 0 OFFCURVE",
"401 4 OFFCURVE",
"406 9 CURVE",
"442 209 OFFCURVE",
"534 345 OFFCURVE",
"622 522 CURVE",
"622 523 OFFCURVE",
"623 524 OFFCURVE",
"623 526 CURVE SMOOTH",
"623 537 OFFCURVE",
"595 549 OFFCURVE",
"579 549 CURVE SMOOTH",
"560 549 OFFCURVE",
"501 413 OFFCURVE",
"442 255 CURVE",
"431 262 OFFCURVE",
"393 263 OFFCURVE",
"357 263 CURVE SMOOTH",
"343 263 OFFCURVE",
"329 263 OFFCURVE",
"318 263 CURVE SMOOTH",
"257 263 OFFCURVE",
"193 260 OFFCURVE",
"151 257 CURVE SMOOTH",
"149 257 LINE",
"189 345 OFFCURVE",
"238 427 OFFCURVE",
"285 522 CURVE",
"285 523 OFFCURVE",
"287 524 OFFCURVE",
"287 526 CURVE SMOOTH",
"287 537 OFFCURVE",
"260 549 OFFCURVE",
"243 549 CURVE SMOOTH",
"223 549 OFFCURVE",
"165 409 OFFCURVE",
"104 254 CURVE",
"70 249 OFFCURVE",
"44 231 OFFCURVE",
"44 211 CURVE SMOOTH",
"44 206 OFFCURVE",
"46 204 OFFCURVE",
"52 204 CURVE SMOOTH",
"63 204 OFFCURVE",
"78 208 OFFCURVE",
"89 210 CURVE",
"55 115 OFFCURVE",
"30 34 OFFCURVE",
"30 9 CURVE",
"32 2 OFFCURVE",
"38 0 OFFCURVE",
"45 0 CURVE SMOOTH"
);
}
);
width = 528;
}
);
note = H.001;
},
{
glyphname = Hbar.ss01;
lastChange = "2021-06-07 01:12:49 +0000";
layers = (
{
layerId = "BDD3FA2A-F197-48C4-9241-A354346F8EDC";
paths = (
{
closed = 1;
nodes = (
"53 0 OFFCURVE",
"64 4 OFFCURVE",
"69 9 CURVE",
"83 86 OFFCURVE",
"104 152 OFFCURVE",
"132 217 CURVE",
"226 234 OFFCURVE",
"329 242 OFFCURVE",
"418 242 CURVE SMOOTH",
"427 242 OFFCURVE",
"433 243 OFFCURVE",
"437 244 CURVE",
"397 136 OFFCURVE",
"365 39 OFFCURVE",
"365 9 CURVE",
"367 2 OFFCURVE",
"373 0 OFFCURVE",
"381 0 CURVE SMOOTH",
"390 0 OFFCURVE",
"401 4 OFFCURVE",
"406 9 CURVE",
"435 167 OFFCURVE",
"498 284 OFFCURVE",
"567 414 CURVE",
"594 417 OFFCURVE",
"622 422 OFFCURVE",
"622 431 CURVE",
"620 435 OFFCURVE",
"606 439 OFFCURVE",
"581 442 CURVE",
"594 468 OFFCURVE",
"609 494 OFFCURVE",
"622 522 CURVE",
"622 523 OFFCURVE",
"623 524 OFFCURVE",
"623 526 CURVE SMOOTH",
"623 537 OFFCURVE",
"595 549 OFFCURVE",
"579 549 CURVE SMOOTH",
"569 549 OFFCURVE",
"546 508 OFFCURVE",
"519 446 CURVE",
"514 446 OFFCURVE",
"509 446 OFFCURVE",
"504 446 CURVE SMOOTH",
"435 446 OFFCURVE",
"365 448 OFFCURVE",
"304 448 CURVE SMOOTH",
"284 448 OFFCURVE",
"265 448 OFFCURVE",
"247 447 CURVE",
"260 471 OFFCURVE",
"272 496 OFFCURVE",
"285 522 CURVE",
"285 523 OFFCURVE",
"287 524 OFFCURVE",
"287 526 CURVE SMOOTH",
"287 537 OFFCURVE",
"260 549 OFFCURVE",
"243 549 CURVE SMOOTH",
"232 549 OFFCURVE",
"210 506 OFFCURVE",
"181 442 CURVE",
"143 437 OFFCURVE",
"120 429 OFFCURVE",
"120 412 CURVE SMOOTH",
"120 403 OFFCURVE",
"130 399 OFFCURVE",
"163 399 CURVE",
"144 355 OFFCURVE",
"125 306 OFFCURVE",
"104 254 CURVE",
"70 249 OFFCURVE",
"44 231 OFFCURVE",
"44 211 CURVE SMOOTH",
"44 206 OFFCURVE",
"46 204 OFFCURVE",
"52 204 CURVE SMOOTH",
"63 204 OFFCURVE",
"78 208 OFFCURVE",
"89 210 CURVE",
"55 115 OFFCURVE",
"30 34 OFFCURVE",
"30 9 CURVE",
"32 2 OFFCURVE",
"38 0 OFFCURVE",
"45 0 CURVE SMOOTH"
);
},
{
closed = 1;
nodes = (
"431 262 OFFCURVE",
"393 263 OFFCURVE",
"357 263 CURVE SMOOTH",
"343 263 OFFCURVE",
"329 263 OFFCURVE",
"318 263 CURVE SMOOTH",
"257 263 OFFCURVE",
"193 260 OFFCURVE",
"151 257 CURVE SMOOTH",
"149 257 LINE",
"171 305 OFFCURVE",
"196 352 OFFCURVE",
"222 400 CURVE",
"303 402 OFFCURVE",
"422 407 OFFCURVE",
"503 409 CURVE",
"484 364 OFFCURVE",
"462 311 OFFCURVE",
"442 255 CURVE"
);
}
);
width = 528;
}
);
note = Hbar.001;
},
{
glyphname = Hcircumflex.ss01;
lastChange = "2021-06-07 01:12:49 +0000";
layers = (
{
layerId = "BDD3FA2A-F197-48C4-9241-A354346F8EDC";
paths = (
{
closed = 1;
nodes = (
"53 0 OFFCURVE",
"64 4 OFFCURVE",
"69 9 CURVE",
"83 86 OFFCURVE",
"104 152 OFFCURVE",
"132 217 CURVE",
"226 234 OFFCURVE",
"329 242 OFFCURVE",
"418 242 CURVE SMOOTH",
"427 242 OFFCURVE",
"433 243 OFFCURVE",
"437 244 CURVE",
"397 136 OFFCURVE",
"365 39 OFFCURVE",
"365 9 CURVE",
"367 2 OFFCURVE",
"373 0 OFFCURVE",
"381 0 CURVE SMOOTH",
"390 0 OFFCURVE",
"401 4 OFFCURVE",
"406 9 CURVE",
"442 209 OFFCURVE",
"534 345 OFFCURVE",
"622 522 CURVE",
"622 523 OFFCURVE",
"623 524 OFFCURVE",
"623 526 CURVE SMOOTH",
"623 537 OFFCURVE",
"595 549 OFFCURVE",
"579 549 CURVE SMOOTH",
"560 549 OFFCURVE",
"501 413 OFFCURVE",
"442 255 CURVE",
"431 262 OFFCURVE",
"393 263 OFFCURVE",
"357 263 CURVE SMOOTH",
"343 263 OFFCURVE",
"329 263 OFFCURVE",
"318 263 CURVE SMOOTH",
"257 263 OFFCURVE",
"193 260 OFFCURVE",
"151 257 CURVE SMOOTH",
"149 257 LINE",
"189 345 OFFCURVE",
"238 427 OFFCURVE",
"285 522 CURVE",
"285 523 OFFCURVE",
"287 524 OFFCURVE",
"287 526 CURVE SMOOTH",
"287 537 OFFCURVE",
"260 549 OFFCURVE",
"243 549 CURVE SMOOTH",
"223 549 OFFCURVE",
"165 409 OFFCURVE",
"104 254 CURVE",
"70 249 OFFCURVE",
"44 231 OFFCURVE",
"44 211 CURVE SMOOTH",
"44 206 OFFCURVE",
"46 204 OFFCURVE",
"52 204 CURVE SMOOTH",
"63 204 OFFCURVE",
"78 208 OFFCURVE",
"89 210 CURVE",
"55 115 OFFCURVE",
"30 34 OFFCURVE",
"30 9 CURVE",
"32 2 OFFCURVE",
"38 0 OFFCURVE",
"45 0 CURVE SMOOTH"
);
},
{
closed = 1;
nodes = (
"541 608 OFFCURVE",
"543 612 OFFCURVE",
"543 615 CURVE SMOOTH",
"543 619 OFFCURVE",
"541 624 OFFCURVE",
"539 628 CURVE SMOOTH",
"522 656 OFFCURVE",
"478 713 OFFCURVE",
"459 720 CURVE",
"439 719 OFFCURVE",
"365 647 OFFCURVE",
"348 633 CURVE",
"344 628 OFFCURVE",
"337 619 OFFCURVE",
"337 614 CURVE SMOOTH",
"337 613 OFFCURVE",
"339 611 OFFCURVE",
"341 611 CURVE SMOOTH",
"362 611 OFFCURVE",
"415 665 OFFCURVE",
"447 685 CURVE",
"470 660 OFFCURVE",
"541 608 OFFCURVE",
"538 608 CURVE"
);
}
);
width = 528;
}
);
note = Hcircumflex.001;
},
{
glyphname = I.ss01;
lastChange = "2021-06-07 01:12:49 +0000";
layers = (
{
layerId = "BDD3FA2A-F197-48C4-9241-A354346F8EDC";
paths = (
{
closed = 1;
nodes = (
"44 -15 OFFCURVE",
"86 0 OFFCURVE",
"120 5 CURVE",
"123 1 OFFCURVE",
"126 0 OFFCURVE",
"131 0 CURVE SMOOTH",
"138 0 OFFCURVE",
"149 5 OFFCURVE",
"153 9 CURVE",
"153 10 LINE",
"203 16 OFFCURVE",
"290 15 OFFCURVE",
"290 24 CURVE SMOOTH",
"290 34 OFFCURVE",
"223 34 OFFCURVE",
"189 34 CURVE SMOOTH",
"180 34 OFFCURVE",
"169 34 OFFCURVE",
"159 34 CURVE",
"191 185 OFFCURVE",
"287 354 OFFCURVE",
"370 522 CURVE",
"379 530 OFFCURVE",
"391 532 OFFCURVE",
"405 532 CURVE SMOOTH",
"426 532 OFFCURVE",
"448 527 OFFCURVE",
"462 527 CURVE SMOOTH",
"472 527 OFFCURVE",
"477 529 OFFCURVE",
"477 535 CURVE SMOOTH",
"477 538 OFFCURVE",
"472 541 OFFCURVE",
"465 543 CURVE",
"433 548 OFFCURVE",
"395 548 OFFCURVE",
"356 548 CURVE",
"348 552 OFFCURVE",
"339 557 OFFCURVE",
"330 557 CURVE SMOOTH",
"323 557 OFFCURVE",
"321 551 OFFCURVE",
"318 545 CURVE",
"251 545 OFFCURVE",
"191 539 OFFCURVE",
"191 503 CURVE SMOOTH",
"191 499 OFFCURVE",
"192 497 OFFCURVE",
"197 497 CURVE SMOOTH",
"229 497 OFFCURVE",
"270 511 OFFCURVE",
"303 518 CURVE",
"251 412 OFFCURVE",
"140 127 OFFCURVE",
"121 33 CURVE",
"87 30 LINE SMOOTH",
"40 27 OFFCURVE",
"4 18 OFFCURVE",
"4 -9 CURVE SMOOTH",
"4 -12 OFFCURVE",
"5 -15 OFFCURVE",
"10 -15 CURVE SMOOTH"
);
}
);
width = 312;
}
);
note = I.001;
},
